<?xml version="1.0" encoding="utf-8" ?>
<svg baseProfile="full" height="200mm" version="1.1" viewBox="0,0,200,200" width="200mm" xmlns="http://www.w3.org/2000/svg" xmlns:ev="http://www.w3.org/2001/xml-events" xmlns:xlink="http://www.w3.org/1999/xlink"><defs /><rect fill="#1a1a1a" height="200" width="200" x="0" y="0" /><text alignment-baseline="middle" fill="#e1ed5e" style="dominant-baseline: central; font-size:9.0px; font-family:Arial;" text-anchor="middle" x="100.0" y="100.0">2020</text><line stroke="#e1ed5e" stroke-width="0.3" x1="100.0" x2="100.0" y1="15.0" y2="10.0" /><path d="M 100.0 14.0 a86.0,86.0 0 0,1 42.35913384403234,11.155469271406648" fill="none" id="id97" stroke="none" /><text fill="#e1ed5e" style="font-size:6.75px; font-family:Arial;" text-anchor="middle"><textPath startOffset="22.145653131862478" xlink:href="#id97">January</textPath></text><path d="M 100.0 79.0 l 0.0 -63.0 a84.0,84.0 0 0,0 1.441971699395419,0.012377592777739643 l -1.0814787745465644 62.990716805416696" fill="#4dd2ff" stroke="none" /><path d="M 102.15924093988457 79.11130261209362 l 3.538795901568094 -34.234640210819165 a55.417054882676865,55.417054882676865 0 0,0 0.9454257715943523,0.1059369296765962 l -4.125957574763243 34.168847520635595" fill="#6dff28" stroke="none" /><path d="M 103.94208987418118 79.37332000966035 l 7.746465998593111 -40.53278344959507 a62.266381833632174,62.266381833632174 0 0,0 1.048161181498112,0.2096615917655675 l -8.44112366562218 40.393832461166646" fill="#31ff3d" stroke="none" /><path d="M 105.69591212413111 79.78721728523813 l 8.703793760793992 -30.88669351756654 a53.08962234552665,53.08962234552665 0 0,0 0.8750686295878995,0.254719724686184 l -9.232722402763496 30.73273009857784" fill="#86ff25" stroke="none" /><path d="M 109.06512990194946 81.05736502329252 l 9.354350113431384 -19.546993982396977 a42.66999861081023,42.66999861081023 0 0,0 0.6580115101958443,0.32186640301405867 l -9.688521872889295 19.3835338292857" fill="#fffa17" stroke="none" /><path d="M 109.3889696526874 81.21577127319529 l 10.787099967015662 -21.581425925829038 a45.12715214629433,45.12715214629433 0 0,0 0.6899571483697502,0.35229703609691243 l -11.15598433709899 21.39307093805929" fill="#e5ff1a" stroke="none" /><path d="M 109.71004243097381 81.37971332152246 l 14.645133142466722 -28.083973833866608 a52.67316705133671,52.67316705133671 0 0,0 0.7981519458894395,0.4249709550989881 l -15.125073904142722 27.828432411045046" fill="#8bff24" stroke="none" /><path d="M 110.02825361518725 81.54914285379988 l 16.167694326143796 -29.746736554741503 a54.8565012291704,54.8565012291704 0 0,0 0.8235157538056189,0.45679030664205084 l -16.675954268105514 29.464813332666306" fill="#73ff27" stroke="none" /><line stroke="#e1ed5e" stroke-width="0.3" x1="143.13028292997686" x2="145.6673583964461" y1="26.7553504044142" y2="22.446841604673864" /><path d="M 143.63769802327073 25.89364864446614 a86.0,86.0 0 0,1 29.32050498858742,28.57503671076993" fill="none" id="id98" stroke="none" /><text fill="#e1ed5e" style="font-size:6.75px; font-family:Arial;" text-anchor="middle"><textPath startOffset="20.669276256404974" xlink:href="#id98">February</textPath></text><path d="M 110.65571695917076 81.90426304109057 l 15.854925768660719 -26.92513017303782 a52.246460695009496,52.246460695009496 0 0,0 0.7689366469827116,0.4617243631687645 l -16.314795172200867 26.648991809333136" fill="#90ff24" stroke="none" /><path d="M 111.5731344415666 82.4767994020092 l 6.782308827610336 -10.26928000394436 a33.30682025677196,33.30682025677196 0 0,0 0.47439017002316625,0.3191908777522054 l -6.957595285730503 10.151339452135035" fill="#ff7c0b" stroke="none" /><path d="M 111.8722381534696 82.67804972795209 l 16.496733563703707 -24.069227280299184 a50.17995750755177,50.17995750755177 0 0,0 0.7063543697106858,0.493090208302941 l -16.907483024588153 23.782492256191116" fill="#a8ff21" stroke="none" /><path d="M 112.16784306229584 82.88440491214696 l 5.721919097452698 -8.048595786127406 a30.87523429019594,30.87523429019594 0 0,0 0.42934070104238287,0.3108095577439531 l -5.859240808869049 7.949185457010379" fill="#ff5908" stroke="none" /><path d="M 112.45986205192187 83.09580414077388 l 5.229527020118098 -7.094857762534862 a29.81390716565284,29.81390716565284 0 0,0 0.40936909619561346,0.30719820159830086 l -5.350549105224479 7.004040533672546" fill="#ff4a06" stroke="none" /><path d="M 112.7482090630111 83.31218511350987 l 19.001432267671095 -24.87348479255163 a52.30087337356882,52.30087337356882 0 0,0 0.7087765928099993,0.5511489655659505 l -19.425618805116322 24.54363477536489" fill="#8fff24" stroke="none" /><path d="M 113.03279911837588 83.53348406188908 l 5.807597964371955 -7.33771030872673 a30.357894351325612,30.357894351325612 0 0,0 0.40585502156052783,0.3269280763996067 l -5.932703756287743 7.236933938533715" fill="#ff5207" stroke="none" /><path d="M 113.31354834802062 83.75963576809568 l 2.4534223362177405 -2.99277632929388 a24.869882597319183,24.869882597319183 0 0,0 0.3278391337770686,0.27349506539967033 l -2.504435804156702 2.950219079982339" fill="#ff0000" stroke="none" /><path d="M 113.59037401385872 83.9905735841838 l 5.304264473080217 -6.248410211905191 a29.196209598138765,29.196209598138765 0 0,0 0.3793011948341329,0.32763133817101237 l -5.4107451476772095 6.156434741269458" fill="#ff4106" stroke="none" /><path d="M 113.86319453409587 84.22622945171908 l 4.507394201499644 -5.128587190365369 a27.827811439758158,27.827811439758158 0 0,0 0.35610981718226525,0.3184355944064813 l -4.594769045505284 5.050456066075501" fill="#ff2d04" stroke="none" /><path d="M 114.13192950727249 84.46653392183569 l 20.16309052393376 -22.162768539377634 a50.96228510655311,50.96228510655311 0 0,0 0.6420525440477941,0.5942742494827251 l -20.54057283929552 21.813376543762534" fill="#9fff22" stroke="none" /><path d="M 114.39649973595853 84.71141617570332 l 16.369559482757495 -17.38390490112322 a44.87807838312857,44.87807838312857 0 0,0 0.5563332659343587,0.532954683997506 l -16.665565234557167 17.100338086820134" fill="#e8ff1a" stroke="none" /><path d="M 114.65682725009322 84.96080404539774 l 5.8872648911420455 -6.0408524180410375 a29.43515179679809,29.43515179679809 0 0,0 0.35883984248482675,0.355772853713388 l -5.990096653756835 5.93889955409899" fill="#ff4406" stroke="none" /><path d="M 115.41159269507618 85.73525988315684 l 22.662422544241632 -20.97599997662645 a51.88005781395469,51.88005781395469 0 0,0 0.5993438717200822,0.6587839046132055 l -23.01916411680359 20.583878496455572" fill="#94ff23" stroke="none" /><path d="M 115.6541949942343 86.00192230759917 l 10.382022247944949 -9.28366831283845 a34.927414810352445,34.927414810352445 0 0,0 0.3958256328282266,0.45037690944929903 l -10.539858944731765 9.104079125577854" fill="#ff930d" stroke="none" /><path d="M 115.8921839302757 86.27271002978787 l 3.5190090192407615 -3.039636177560377 a25.650033609494848,25.650033609494848 0 0,0 0.2849662993962114,0.33568958415117145 l -3.570669882144085 2.9787798109596535" fill="#ff0c01" stroke="none" /><path d="M 116.35404254752997 86.82634096563983 l 26.524160252714125 -21.365985952797892 a55.059307580260885,55.059307580260885 0 0,0 0.5866007338731437,0.7411508645146252 l -26.88702741722883 20.90751514436859" fill="#70ff27" stroke="none" /><path d="M 116.57777611688842 87.10902102172516 l 23.579615523050165 -18.335651650753263 a50.8696231926792,50.8696231926792 0 0,0 0.5301293546880638,0.6939563426675803 l -23.890896855092535 17.9281743948448" fill="#a0ff22" stroke="none" /><path d="M 116.7966241395341 87.39550010848427 l 5.481174414104384 -4.113175465142832 a27.85284505624383,27.85284505624383 0 0,0 0.2836984431607228,0.3848914240111222 l -5.550974876848932 4.018477731862835" fill="#ff2d04" stroke="none" /><path d="M 117.01052211995028 87.68569379921539 l 8.99013617413486 -6.508165290541388 a32.09859287831101,32.09859287831101 0 0,0 0.31928149574823345,0.4491094084870431 l -9.100532768413055 6.352878655344841" fill="#ff6b09" stroke="none" /><path d="M 117.62189284568427 88.57770195909679 l 4.296219449718072 -2.7847575418564245 a26.119802352343505,26.119802352343505 0 0,0 0.2406533168289015,0.378346985508512 l -4.3433904581728635 2.7105968816692405" fill="#ff1302" stroke="none" /><line stroke="#e1ed5e" stroke-width="0.3" x1="172.87174338648825" x2="177.1583165268699" y1="56.24261187166439" y2="53.66864786411523" /><path d="M 173.72905801456457 55.72781907015455 a86.0,86.0 0 0,1 12.242430191666344,42.057860355516425" fill="none" id="id99" stroke="none" /><text fill="#e1ed5e" style="font-size:6.75px; font-family:Arial;" text-anchor="middle"><textPath startOffset="22.145653131862474" xlink:href="#id99">March</textPath></text><path d="M 118.00360718960297 89.18935116829356 l 25.341816231651197 -15.217032517585213 a50.559528557810694,50.559528557810694 0 0,0 0.4404127131746841,0.7479170703863076 l -25.59930265495565 14.77976427890535" fill="#a3ff21" stroke="none" /><path d="M 118.53625476483649 90.13048839642627 l 28.558478628779802 -15.205781307119445 a53.354327171962886,53.354327171962886 0 0,0 0.42351122975414657,0.8121386251023662 l -28.815297927508894 14.713296438912579" fill="#83ff25" stroke="none" /><path d="M 118.70294669586156 90.45014215332178 l 7.527583515903881 -3.843637779376606 a29.452104173988804,29.452104173988804 0 0,0 0.2260520336600228,0.4522554935741918 l -7.592455462775641 3.713850429638664" fill="#ff4506" stroke="none" /><path d="M 119.0197475246899 91.09779779509293 l 34.861688880943845 -16.31703066614617 a59.491334627311616,59.491334627311616 0 0,0 0.4249821143144458,0.9286626168374201 l -35.13665546011334 15.716179067094064" fill="#41ff2d" stroke="none" /><path d="M 119.16976305983485 91.42560881287824 l 7.718684696915036 -3.4524694872243273 a29.455627653261782,29.455627653261782 0 0,0 0.20249498176452294,0.46334814630627397 l -7.776813560696529 3.319459271142204" fill="#ff4506" stroke="none" /><path d="M 119.4528033332814 92.08871423366111 l 3.8349232293832936 -1.5596298918889369 a25.13993738780396,25.13993738780396 0 0,0 0.15914936131444415,0.4011603545698936 l -3.8611312656638623 1.4935685201054778" fill="#ff0400" stroke="none" /><path d="M 119.58574465831526 92.42381321644754 l 32.406849386391976 -12.535665521071742 a55.746896224101526,55.746896224101526 0 0,0 0.3375854605850635,0.8954855417673324 l -32.61726553079148 11.977511699110252" fill="#69ff28" stroke="none" /><path d="M 119.71291397450082 92.76114493625339 l 9.24354551829741 -3.3943579507653108 a30.847070612459312,30.847070612459312 0 0,0 0.17826644019859705,0.49864296052283047 l -9.30045212853995 3.2351800338615635" fill="#ff5908" stroke="none" /><path d="M 119.94978838288452 93.4421083053983 l 41.4465300287344 -13.62429765313617 a64.62838912868585,64.62838912868585 0 0,0 0.33740722909435694,1.05692333949684 l -41.67430197360601 12.910805279947942" fill="#34ff5a" stroke="none" /><path d="M 120.26092885502905 94.47779374421319 l 30.166531677843892 -8.222022353404178 a52.266935971569666,52.266935971569666 0 0,0 0.22850735849027287,0.8676796598279928 l -30.303228517138898 7.702962189203386" fill="#90ff24" stroke="none" /><path d="M 120.51834098615036 95.52812308129327 l 26.055418393038874 -5.678657168127029 a47.66705785926578,47.66705785926578 0 0,0 0.1673846649909341,0.8009962159124601 l -26.149060768854174 5.230544500929165" fill="#c6ff1e" stroke="none" /><path d="M 120.65975698304385 96.23510406497455 l 38.09239123796466 -6.941702607872728 a59.71973018142448,59.71973018142448 0 0,0 0.1751357372636928,1.0101363920259208 l -38.20594179272059 6.286773182926216" fill="#3fff2d" stroke="none" /><path d="M 120.77682067341334 96.94652285012252 l 32.32511411013684 -4.750678597750509 a53.672342269456166,53.672342269456166 0 0,0 0.12614401906300524,0.9127152833671213 l -32.40190264575505 4.195075006183303" fill="#80ff26" stroke="none" /><line stroke="#e1ed5e" stroke-width="0.3" x1="184.99686870605535" x2="189.99668451229388" y1="99.2704041080226" y2="99.22748670261217" /><path d="M 185.99683186730306 99.26182062694052 a86.0,86.0 0 0,1 -10.086455211305974,41.156179273409016" fill="none" id="id100" stroke="none" /><text fill="#e1ed5e" style="font-size:6.75px; font-family:Arial;" text-anchor="middle"><textPath startOffset="21.40746469413373" xlink:href="#id100">April</textPath></text><path d="M 120.99922638620191 99.81974689727618 l 31.808944442598552 -0.27304153137354203 a52.81011628759279,52.81011628759279 0 0,0 0.0,0.906589268194734 l -31.808944442598552 -0.27304153137353815" fill="#8aff24" stroke="none" /><path d="M 120.98066250479742 100.90099992219065 l 22.134251450555038 0.9505399951092152 a43.15465218771669,43.15465218771669 0 0,0 -0.03813722629326003,0.7398520016473613 l -22.114672634805206 -1.3303637901333072" fill="#feff18" stroke="none" /><path d="M 120.96210409425399 101.26102812881392 l 34.74720336130265 2.090305469298328 a55.810020373258915,55.810020373258915 0 0,0 -0.06573899196816121,0.9558305154915538 l -34.70620040816942 -2.6864794089442254" fill="#68ff28" stroke="none" /><path d="M 120.86939407059847 102.33845913500097 l 29.409012219432547 3.2953411605167586 a50.59306123210184,50.59306123210184 0 0,0 -0.1041203121994539,0.8622655485128768 l -29.34810982097343 -3.799700385953044" fill="#a3ff21" stroke="none" /><path d="M 120.65975698304385 103.76489593502545 l 41.490029575838236 7.560865494321266 a63.17332381052209,63.17332381052209 0 0,0 -0.20357966910084677,1.06521485331551 l -41.35412361445523 -8.27198291267009" fill="#32ff48" stroke="none" /><path d="M 120.51834098615036 104.47187691870673 l 30.758483238066955 6.703668261463373 a52.48052507926444,52.48052507926444 0 0,0 -0.19939885147980538,0.8785881311772251 l -30.638873525029485 -7.230690726579615" fill="#8dff24" stroke="none" /><path d="M 120.16314734710363 105.8691983318838 l 39.281811494531574 11.434362826803254 a61.91216649783892,61.91216649783892 0 0,0 -0.30579798789065926,1.017902046282571 l -39.07973718663729 -12.107002476676548" fill="#30ff38" stroke="none" /><path d="M 119.71291397450082 107.23885506374661 l 30.743691821184882 11.289509481242726 a53.750994047861504,53.750994047861504 0 0,0 -0.3254989122552676,0.8634245363542213 l -30.545362225115174 -11.815602297791107" fill="#7fff26" stroke="none" /><path d="M 119.31412917781788 108.2440532568976 l 36.252769061359366 15.474151389393521 a60.41716156495955,60.41716156495955 0 0,0 -0.4153424321279523,0.9503847667327202 l -35.98179274721445 -16.094198225902087" fill="#38ff2e" stroke="none" /><line stroke="#e1ed5e" stroke-width="0.3" x1="174.33088141563837" x2="178.70328620479359" y1="141.23008692659167" y2="143.65538615756765" /><path d="M 175.20536237346943 141.71514677278685 a86.0,86.0 0 0,1 -30.301960400862466,31.631185727798858" fill="none" id="id101" stroke="none" /><text fill="#e1ed5e" style="font-size:6.75px; font-family:Arial;" text-anchor="middle"><textPath startOffset="22.145653131862474" xlink:href="#id101">May</textPath></text><path d="M 118.36410011445183 110.18625677009912 l 35.68623916995397 19.79455530512232 a61.80848056253385,61.80848056253385 0 0,0 -0.5226249479347944,0.9234282060454744 l -35.341180856997795 -20.404240281266915" fill="#30ff37" stroke="none" /><path d="M 118.00360718960297 110.81064883170644 l 31.92238910768582 19.168477454427986 a58.235325354606644,58.235325354606644 0 0,0 -0.5219882777190187,0.8526286227120029 l -31.588632865511396 -19.713643193264545" fill="#4eff2b" stroke="none" /><path d="M 117.62189284568427 111.42229804090321 l 27.103142989495673 17.567929834907297 a53.29880057514945,53.29880057514945 0 0,0 -0.5042461480533387,0.7634929368285038 l -26.79757240252161 -18.03060265007486" fill="#84ff25" stroke="none" /><path d="M 117.423217284605 111.72311816256416 l 28.524123926511276 19.19230356896144 a55.37979293215919,55.37979293215919 0 0,0 -0.5374747701245918,0.7841917522398867 l -28.190459419571365 -19.67913005627137" fill="#6dff28" stroke="none" /><path d="M 116.79662413953412 112.60449989151573 l 25.490031653993217 19.12819496039528 a52.86894344286405,52.86894344286405 0 0,0 -0.5509649396113291,0.7212307921634001 l -25.157914737027586 -19.562946665799558" fill="#89ff24" stroke="none" /><path d="M 116.57777611688842 112.89097897827486 l 33.06525202322525 25.71173996664886 a62.88561165211712,62.88561165211712 0 0,0 -0.6699820169627031,0.8465003918466637 l -32.61900357562099 -26.275560302410206" fill="#32ff44" stroke="none" /><path d="M 116.35404254752997 113.17365903436017 l 21.674484063223677 17.45943010510923 a48.83190541450821,48.83190541450821 0 0,0 -0.531461300244016,0.6482963718990429 l -21.371575943741032 -17.828928758706766" fill="#b8ff1f" stroke="none" /><path d="M 116.1254893667686 113.45245675266167 l 22.36008605314093 18.653579049548497 a50.11922834935057,50.11922834935057 0 0,0 -0.5568137355586589,0.6559251803998768 l -22.036577754075154 -19.03467101239793" fill="#a9ff21" stroke="none" /><path d="M 115.16444852881244 114.52719865689866 l 26.459385391618127 25.347492669657964 a57.641430921028984,57.641430921028984 0 0,0 -0.6906354676326133,0.708652831454988 l -26.02036312283471 -25.79796819318069" fill="#55ff2b" stroke="none" /><path d="M 114.65682725009322 115.03919595460226 l 19.061244360800604 19.55851591815783 a48.310558059164336,48.310558059164336 0 0,0 -0.598884166000084,0.5737174837201705 l -18.722687708935208 -19.88284553218358" fill="#beff1f" stroke="none" /><path d="M 114.39649973595853 115.28858382429668 l 21.10296207580457 22.41061442393802 a51.78263548222057,51.78263548222057 0 0,0 -0.652387795785551,0.6038404041948374 l -20.715144508705052 -22.769572574265236" fill="#95ff23" stroke="none" /><path d="M 113.31354834802062 116.24036423190432 l 25.12738680330371 30.651326244086455 a60.634446736194825,60.634446736194825 0 0,0 -0.810622581482008,0.6529801706801643 l -24.59751345146645 -31.07815470856002" fill="#35ff2f" stroke="none" /><path d="M 112.7482090630111 116.68781488649013 l 18.670047498484767 24.439691492092724 a51.75498648714297,51.75498648714297 0 0,0 -0.7106378886919692,0.5332759200012267 l -18.247756620882033 -24.756586439357967" fill="#96ff23" stroke="none" /><path d="M 112.16784306229584 117.11559508785304 l 19.39004527391173 27.274526959652754 a54.46451369132938,54.46451369132938 0 0,0 -0.7666656001900479,0.5351921311837489 l -18.918984582547925 -27.603363906641622" fill="#77ff27" stroke="none" /><path d="M 110.96478420261333 117.91015095944535 l 21.082871692071947 34.4372864696808 a61.37838751336201,61.37838751336201 0 0,0 -0.9033356683668691,0.5424271139124137 l -20.488603267147642 -34.794127584129136" fill="#30ff31" stroke="none" /><line stroke="#e1ed5e" stroke-width="0.3" x1="143.1302829299769" x2="145.66735839644613" y1="173.24464959558577" y2="177.55315839532614" /><path d="M 143.63769802327073 174.10635135553383 a86.0,86.0 0 0,1 -40.68552437913181,11.842963189579606" fill="none" id="id102" stroke="none" /><text fill="#e1ed5e" style="font-size:6.75px; font-family:Arial;" text-anchor="middle"><textPath startOffset="21.407464694133747" xlink:href="#id102">June</textPath></text><path d="M 110.65571695917076 118.09573695890943 l 14.144528944296711 24.0205024368058 a48.87565669850023,48.87565669850023 0 0,0 -0.7266356266448161,0.4195232746461586 l -13.730100849791498 -24.259772608728127" fill="#b7ff1f" stroke="none" /><path d="M 110.02825361518725 118.45085714620011 l 16.927117713190903 31.143990051269462 a56.44679718098368,56.44679718098368 0 0,0 -0.8553334369531923,0.4554168783301478 l -16.389995460451157 -31.42997739732218" fill="#61ff29" stroke="none" /><path d="M 109.06512990194946 118.94263497670748 l 17.868011610644068 37.33727209217534 a62.39248393371974,62.39248393371974 0 0,0 -0.9700881035214389,0.4540502150679043 l -17.224434793251124 -37.63849853881378" fill="#31ff3e" stroke="none" /><path d="M 108.4095320186766 119.2426549942271 l 13.744611682620445 31.450361334126896 a55.322581172650324,55.322581172650324 0 0,0 -0.8734774984708346,0.372835603914543 l -13.202699108979179 -31.68167158770084" fill="#6eff28" stroke="none" /><path d="M 108.07796709384702 119.3841803445677 l 10.270075097452688 24.644441544322852 a47.69874419404149,47.69874419404149 0 0,0 -0.7585134681151674,0.3084808241293036 l -9.84550716814708 -24.81710962503145" fill="#c5ff1e" stroke="none" /><path d="M 105.69591212413111 120.21278271476187 l 9.946013044482314 35.29489152309835 a57.66950426591955,57.66950426591955 0 0,0 -0.9551679134553696,0.26033526225530784 l -9.33866373009225 -35.4604272794978" fill="#54ff2b" stroke="none" /><path d="M 103.58742460773223 120.69131181640829 l 4.678459724779336 26.98411244023624 a48.38668124442417,48.38668124442417 0 0,0 -0.8196300510115068,0.1348698129881251 l -4.214552170714757 -27.060448251720036" fill="#bdff1f" stroke="none" /><path d="M 103.2317021107853 120.74984581791261 l 4.550255492976135 29.215904397952503 a50.56812295093586,50.56812295093586 0 0,0 -0.8588752339591725,0.12622508239896232 l -4.048055153409277 -29.289710553650345" fill="#a3ff21" stroke="none" /><path d="M 101.08105385017728 120.97215588758144 l 1.527612936551747 29.635282864027086 a50.67462875445652,50.67462875445652 0 0,0 -0.869128374689129,0.037324112038379854 l -1.0186588012617883 -29.657139544491297" fill="#a2ff22" stroke="none" /><line stroke="#e1ed5e" stroke-width="0.3" x1="101.45913802915013" x2="101.54496967792366" y1="184.9874750549273" y2="189.98673829345242" /><path d="M 101.47630435890484 185.9873277026323 a86.0,86.0 0 0,1 -42.54439059252881,-10.42667462771756" fill="none" id="id103" stroke="none" /><text fill="#e1ed5e" style="font-size:6.75px; font-family:Arial;" text-anchor="middle"><textPath startOffset="22.145653131862474" xlink:href="#id103">July</textPath></text><path d="M 100.36049292484886 120.99690560180557 l 0.4744715703112294 27.635590287222204 a48.63966305500564,48.63966305500564 0 0,0 -0.8349644951600782,0.007167165977872947 l -3.3848824889824012e-15 -27.63966305500564" fill="#baff1f" stroke="none" /><path d="M 97.84075906011543 120.88869738790638 l -3.04251965096935 29.4336176717985 a50.59045074134802,50.59045074134802 0 0,0 -0.8630829629742012,-0.09671024622004613 l 3.5473385155443506 -29.377051665071484" fill="#a3ff21" stroke="none" /><path d="M 96.05791012581884 120.62667999033965 l -6.158864263635984 32.22578031566207 a53.809031164775426,53.809031164775426 0 0,0 -0.905794363186777,-0.1811842408880076 l 6.711155112353719 -32.115306678111196" fill="#7eff26" stroke="none" /><path d="M 94.30408787586889 120.21278271476187 l -9.906773366200152 35.155643747916834 a57.52483327627515,57.52483327627515 0 0,0 -0.9481735751428578,-0.27599950889434205 l 10.508806953724617 -34.98040054471998" fill="#56ff2b" stroke="none" /><path d="M 93.61358852112213 120.00534299687104 l -8.854914143673941 27.737892435826442 a50.117008453364754,50.117008453364754 0 0,0 -0.8173302786853931,-0.2686726968460429 l 9.329767160007076 -27.581798817578377" fill="#a9ff21" stroke="none" /><path d="M 91.59046798132341 119.24265499422711 l -13.039496401113823 29.83691957981102 a53.5617910503518,53.5617910503518 0 0,0 -0.8393555977960844,-0.37543308272199455 l 13.549765401765542 -29.60868274617917" fill="#81ff25" stroke="none" /><line stroke="#e1ed5e" stroke-width="0.3" x1="58.13341422392154" x2="55.67067388415222" y1="173.97424548756322" y2="178.32567169271397" /><path d="M 57.64086615596768 174.84453072859336 a86.0,86.0 0 0,1 -31.369924170532247,-30.572349798747897" fill="none" id="id104" stroke="none" /><text fill="#e1ed5e" style="font-size:6.75px; font-family:Arial;" text-anchor="middle"><textPath startOffset="22.145653131862474" xlink:href="#id104">August</textPath></text><path d="M 89.03521579738668 117.91015095944536 l -17.223966386581342 28.1340546611543 a53.987725744023365,53.987725744023365 0 0,0 -0.7862563398850214,-0.49068210735571816 l 17.704386855256075 -27.834236756957033" fill="#7cff26" stroke="none" /><path d="M 86.68645165197938 116.24036423190432 l -21.642351592881415 26.400149946170064 a55.137359295208526,55.137359295208526 0 0,0 -0.726830295211955,-0.6063476828810477 l 22.092356222255265 -26.024740079377146" fill="#70ff27" stroke="none" /><path d="M 85.08716467003676 114.78537596483092 l -24.16804842776002 23.961485152505432 a55.03303300501282,55.03303300501282 0 0,0 -0.6593827369887788,-0.6765847765991224 l 24.575817965899606 -23.543077683838572" fill="#71ff27" stroke="none" /><path d="M 83.4222238831116 112.89097897827486 l -26.799317287381246 20.839311216889143 a54.94820023306233,54.94820023306233 0 0,0 -0.5726335699498073,-0.7495957248488331 l 27.15310283468535 -20.376194578799442" fill="#72ff27" stroke="none" /><path d="M 81.99639281039703 110.81064883170644 l -29.17441527777189 17.518398125265847 a55.029998232077645,55.029998232077645 0 0,0 -0.4793539718171085,-0.8140478409334497 l 29.470842959718766 -17.014999116038837" fill="#71ff27" stroke="none" /><line stroke="#e1ed5e" stroke-width="0.3" x1="26.387840678322732" x2="22.057713659400548" y1="142.50000000000003" y2="145.00000000000006" /><path d="M 25.521815274538298 143.00000000000003 a86.0,86.0 0 0,1 -11.493303480769221,-40.785679425670985" fill="none" id="id105" stroke="none" /><text fill="#e1ed5e" style="font-size:6.75px; font-family:Arial;" text-anchor="middle"><textPath startOffset="21.40746469413373" xlink:href="#id105">September</textPath></text><path d="M 80.83023694016515 108.57439118712176 l -29.112684116511407 13.021733306923089 a52.89222342177487,52.89222342177487 0 0,0 -0.36361166509013526,-0.8320146481001168 l 29.33192966361851 -12.520056589047122" fill="#89ff24" stroke="none" /><path d="M 79.34024301695615 103.76489593502545 l -32.591079541344705 5.9391803584139735 a54.12781805371473,54.12781805371473 0 0,0 -0.15873674064691218,-0.9155513374040952 l 32.68823109948386 -5.3788359880892855" fill="#7bff26" stroke="none" /><path d="M 79.03789590574601 101.26102812881392 l -35.79734686839462 2.153479494948618 a56.862062360540925,56.862062360540925 0 0,0 -0.05025092845870881,-0.974854587455526 l 35.8290393863099 -1.538653114116361" fill="#5dff2a" stroke="none" /><line stroke="#e1ed5e" stroke-width="0.3" x1="15.003131293944662" x2="10.003315487706104" y1="100.72959589197737" y2="100.7725132973878" /><path d="M 14.003168132696942 100.73817937305945 a86.0,86.0 0 0,1 10.791469493833604,-42.45332614584628" fill="none" id="id106" stroke="none" /><text fill="#e1ed5e" style="font-size:6.75px; font-family:Arial;" text-anchor="middle"><textPath startOffset="22.145653131862435" xlink:href="#id106">October</textPath></text><path d="M 79.06263194458094 98.37931529534042 l -37.97638736010227 -2.9396125611316006 a59.08998974709889,59.08998974709889 0 0,0 0.08696464371001564,-1.0106609822830832 l 37.92032909369452 3.5910945907903646" fill="#45ff2d" stroke="none" /><path d="M 79.34024301695615 96.23510406497455 l -33.33264921741853 -6.07431905638025 a54.881600550301286,54.881600550301286 0 0,0 0.17685911403468466,-0.92540161817752 l 33.22346381110169 6.645623239591084" fill="#72ff27" stroke="none" /><path d="M 79.94057633289273 93.78553927170692 l -32.084982355686904 -9.940009549942683 a54.58943111482675,54.58943111482675 0 0,0 0.28499656170627957,-0.8927476703810553 l 31.909621078203365 10.48932625401513" fill="#76ff27" stroke="none" /><path d="M 80.68587082218212 91.75594674310238 l -30.197694003696235 -12.889599904296386 a53.83355766336796,53.83355766336796 0 0,0 0.3700829398607445,-0.8468221911961188 l 29.971977181818513 13.406084165268371" fill="#7eff26" stroke="none" /><path d="M 81.29705330413844 90.45014215332179 l -27.652335234990936 -14.11947940167564 a52.04853205101111,52.04853205101111 0 0,0 0.4131462054572749,-0.7922623243334402 l 27.405880960558722 14.592087969113567" fill="#92ff23" stroke="none" /><line stroke="#e1ed5e" stroke-width="0.3" x1="26.387840678322718" x2="22.05771365940052" y1="57.49999999999999" y2="54.99999999999999" /><path d="M 25.521815274538284 56.99999999999999 a86.0,86.0 0 0,1 29.574782752854787,-30.34633250058573" fill="none" id="id107" stroke="none" /><text fill="#e1ed5e" style="font-size:6.75px; font-family:Arial;" text-anchor="middle"><textPath startOffset="21.40746469413373" xlink:href="#id107">November</textPath></text><path d="M 81.99639281039701 89.18935116829357 l -27.4164334311367 -16.462780537282484 a52.97943034362365,52.97943034362365 0 0,0 0.47487742931304744,-0.7756765923585437 l 27.12978803736826 16.930994245765568" fill="#88ff25" stroke="none" /><path d="M 83.64595745247003 86.82634096563983 l -26.720423881071614 -21.524082039029384 a55.311326992802385,55.311326992802385 0 0,0 0.6019799864922483,-0.7343177029438984 l 26.346997075340738 21.979602023671774" fill="#6eff28" stroke="none" /><path d="M 84.58840730492382 85.73525988315684 l -29.795666139653928 -27.578423755396678 a61.59989134884412,61.59989134884412 0 0,0 0.7249549423498254,-0.769877026237827 l 29.31785536356783 28.085842241579016" fill="#30ff34" stroke="none" /><path d="M 86.96720088162412 83.53348406188908 l -21.002873237392702 -26.536444225708948 a54.842333790241895,54.842333790241895 0 0,0 0.7432182290332063,-0.577930990211492 l 20.54424506372425 26.893076267541243" fill="#73ff27" stroke="none" /><path d="M 88.4268655584334 82.4767994020092 l -21.980078601746982 -33.28064047321999 a60.8838925588602,60.8838925588602 0 0,0 0.8770596315797502,-0.5684994568561438 l 21.405533337910207 33.65305377178004" fill="#33ff2f" stroke="none" /><path d="M 89.03521579738668 82.08984904055464 l -17.50864978185971 -28.599063592553772 a54.53295775136382,54.53295775136382 0 0,0 0.8025881394754245,-0.4819311175247199 l 17.01512888582685 28.895408710614415" fill="#76ff27" stroke="none" /><line stroke="#e1ed5e" stroke-width="0.3" x1="56.869717070023135" x2="54.33264160355391" y1="26.7553504044142" y2="22.446841604673864" /><path d="M 56.362301976729285 25.89364864446614 a86.0,86.0 0 0,1 42.16139366436587,-11.88097634709845" fill="none" id="id108" stroke="none" /><text fill="#e1ed5e" style="font-size:6.75px; font-family:Arial;" text-anchor="middle"><textPath startOffset="22.145653131862474" xlink:href="#id108">December</textPath></text><path d="M 90.61103034731259 81.2157712731953 l -19.026201963947297 -38.06514907531632 a63.55528093314585,63.55528093314585 0 0,0 0.9800822064509591,-0.47940731972084105 l 18.369959508234285 38.38615014513437" fill="#32ff4d" stroke="none" /><path d="M 91.26138138417902 80.90454125486306 l -13.6115426267179 -29.743677131714 a53.71024949453313,53.71024949453313 0 0,0 0.8416820589491252,-0.3764736792043637 l 13.098947164913158 29.97295456182821" fill="#7fff26" stroke="none" /><path d="M 94.30408787586887 79.78721728523814 l -8.83239460303975 -31.343052538667962 a53.56375495647739,53.56375495647739 0 0,0 0.8871652480781039,-0.24180083341230682 l 8.293047954026969 31.490053866224407" fill="#81ff25" stroke="none" /></svg>