<?xml version="1.0" encoding="utf-8" ?>
<svg baseProfile="full" height="200mm" version="1.1" viewBox="0,0,200,200" width="200mm" xmlns="http://www.w3.org/2000/svg" xmlns:ev="http://www.w3.org/2001/xml-events" xmlns:xlink="http://www.w3.org/1999/xlink"><defs /><rect fill="#1a1a1a" height="200" width="200" x="0" y="0" /><text alignment-baseline="middle" fill="#e1ed5e" style="dominant-baseline: central; font-size:9.0px; font-family:Arial;" text-anchor="middle" x="100.0" y="100.0">2018</text><line stroke="#e1ed5e" stroke-width="0.3" x1="100.0" x2="100.0" y1="15.0" y2="10.0" /><path d="M 100.0 14.0 a86.0,86.0 0 0,1 42.46469731375804,11.215312516191453" fill="none" id="id73" stroke="none" /><text fill="#e1ed5e" style="font-size:6.75px; font-family:Arial;" text-anchor="middle"><textPath startOffset="22.20632615414155" xlink:href="#id73">January</textPath></text><path d="M 102.88285421437855 79.19881850522331 l 4.355573211929581 -31.427558300815765 a52.72794413061855,52.72794413061855 0 0,0 0.8979594485397138,0.13233588069218383 l -4.895901640897951 31.34792793596261" fill="#ffed16" stroke="none" /><path d="M 103.59715602781102 79.31037775812273 l 4.792875037412524 -27.56699270477068 a48.98054213036502,48.98054213036502 0 0,0 0.8294152263134627,0.15157033112007823 l -5.266685384828888 27.480406892299865" fill="#ffaa0f" stroke="none" /><path d="M 104.66035177308747 79.52364482259891 l 7.84392206699824 -34.46412246286356 a56.345478501901745,56.345478501901745 0 0,0 0.9438573658919709,0.2233805436981964 l -8.436003119852733 34.3239960070245" fill="#d3ff1c" stroke="none" /><path d="M 105.36241919743992 79.69619591428918 l 8.854769869036181 -33.52694111098165 a55.676544373579425,55.676544373579425 0 0,0 0.9245013592284225,0.2527011447182959 l -9.430569117488314 33.36955342543706" fill="#deff1b" stroke="none" /><path d="M 107.4271985657038 80.35727306442388 l 6.828242800316994 -18.05866742216694 a40.30648514889529,40.30648514889529 0 0,0 0.6468554311842198,0.250969857797399 l -7.138081396500881 17.938454860478995" fill="#ff0000" stroke="none" /><path d="M 108.09893153111575 80.62456947434976 l 13.732457860110198 -32.85276362600997 a56.607365484491915,56.607365484491915 0 0,0 0.8957879513903125,0.3835296515198253 l -14.295929569290825 32.61151444652735" fill="#cfff1d" stroke="none" /><line stroke="#e1ed5e" stroke-width="0.3" x1="143.23703022742887" x2="145.7803849466894" y1="26.81831364943548" y2="22.513508569990506" /><path d="M 143.74570117128098 25.957352633546492 a86.0,86.0 0 0,1 28.547481713284135,27.462654790039103" fill="none" id="id74" stroke="none" /><text fill="#e1ed5e" style="font-size:6.75px; font-family:Arial;" text-anchor="middle"><textPath startOffset="19.985693538727396" xlink:href="#id74">February</textPath></text><path d="M 111.60114157652 82.49532879139004 l 20.376339569525737 -30.74534710630871 a57.88457106894461,57.88457106894461 0 0,0 0.8258069408831765,0.5575885328070729 l -20.902551204815456 30.390046661202966" fill="#baff1f" stroke="none" /><path d="M 111.90073688211348 82.69761687909136 l 16.132681796867075 -23.45517290081714 a49.467675664974706,49.467675664974706 0 0,0 0.6974208743606963,0.48858789172158884 l -16.534033810811422 23.174000166331616" fill="#ffb310" stroke="none" /><path d="M 112.48926042617603 83.11751280151076 l 21.193352623632645 -28.64833402077572 a56.635449170672345,56.635449170672345 0 0,0 0.7787477991263447,0.5865366971669548 l -21.683346576517373 28.27928073410292" fill="#ceff1d" stroke="none" /><path d="M 113.89432698308785 84.25364557470407 l 22.940996042850266 -25.998888251279038 a55.673209971685154,55.673209971685154 0 0,0 0.7131181794116509,0.6402445425312857 l -23.385125209857904 25.600144699978458" fill="#deff1b" stroke="none" /><path d="M 115.19652480421416 85.50635884689758 l 20.301726289548274 -19.362712160850123 a49.05485185417433,49.05485185417433 0 0,0 0.5775220187737963,0.6160602230696205 l -20.632015630292535 19.01038252090245" fill="#ffab0f" stroke="none" /><path d="M 115.4437574822437 85.77008943001954 l 19.30973388027943 -17.79202934016666 a47.25684921251144,47.25684921251144 0 0,0 0.5460559517078566,0.6029686204245547 l -19.613133472603323 17.457007932472557" fill="#ff8a0c" stroke="none" /><path d="M 116.38621287248628 86.86637796730983 l 21.97212454328351 -17.61075492258605 a49.15870994717177,49.15870994717177 0 0,0 0.5235307087118989,0.6648308346882483 l -22.272009332589374 17.229931693944764" fill="#ffad10" stroke="none" /><line stroke="#e1ed5e" stroke-width="0.3" x1="172.23445277983987" x2="176.4835382374775" y1="55.19839476539836" y2="52.563006222186495" /><path d="M 173.08426987136738 54.67131705675599 a86.0,86.0 0 0,1 12.851231095245387,41.99856678651699" fill="none" id="id75" stroke="none" /><text fill="#e1ed5e" style="font-size:6.75px; font-family:Arial;" text-anchor="middle"><textPath startOffset="22.20632615414155" xlink:href="#id75">March</textPath></text><path d="M 117.84615892207809 88.93136811851018 l 29.719457542478075 -18.432747163777417 a55.971593109592554,55.971593109592554 0 0,0 0.5007703852401946,0.823134844627745 l -30.032343726004495 17.91844454594259" fill="#d9ff1c" stroke="none" /><path d="M 118.3937258080291 89.86733742301442 l 51.57642532080096 -28.412216217480378 a79.88447740500898,79.88447740500898 0 0,0 0.6531198937431234,1.2101319713848513 l -52.05785331376254 27.520203262763065" fill="#46fff5" stroke="none" /><path d="M 119.196687751892 91.48605970444005 l 30.37511945466885 -13.471696620270514 a54.228519252503716,54.228519252503716 0 0,0 0.3711020003838014,0.8565545820884458 l -30.602512164895334 12.946842893595464" fill="#f7ff19" stroke="none" /><path d="M 119.47837535516314 92.15188598940014 l 40.88152579800706 -16.471747234555302 a65.07513594456853,65.07513594456853 0 0,0 0.4096834625808173,1.042599725956771 l -41.15900281046958 15.765598503702746" fill="#4dff2c" stroke="none" /><path d="M 119.7369772167798 92.82701384747503 l 32.05964404961632 -11.651398301623875 a55.11122775525945,55.11122775525945 0 0,0 0.3163566056516877,0.8943827252159933 l -32.25545373607781 11.097817949981268" fill="#e8ff1a" stroke="none" /><path d="M 120.08093135843002 93.85539295169968 l 26.76054205458374 -8.18851538257477 a48.9853246403505,48.9853246403505 0 0,0 0.23978107148080258,0.8084225714774568 l -26.897529023176247 7.726663424350783" fill="#ffaa0f" stroke="none" /><path d="M 120.37134235888165 94.90015583598534 l 35.187525341525216 -8.808987282119705 a57.273408946458645,57.273408946458645 0 0,0 0.23118602361467766,0.9584153208093267 l -35.333944165400716 8.201986729650974" fill="#c4ff1e" stroke="none" /><path d="M 120.78858239683441 97.02765380044208 l 62.36574719050324 -8.917038598673738 a84.0,84.0 0 0,0 0.19233600376865523,1.4331266317413425 l -62.50999919332973 7.84219362486773" fill="#4dd2ff" stroke="none" /><path d="M 120.91429891909075 98.10471618934814 l 32.93830984705062 -2.9849169529830903 a54.07328203847507,54.07328203847507 0 0,0 0.07602578875047712,0.9277071890172238 l -32.98481011962059 2.4174958467580976" fill="#f9ff18" stroke="none" /><path d="M 120.98425023603335 99.18683210126433 l 19.980550936160213 -0.7742732019292607 a40.99554737194555,40.99554737194555 0 0,0 0.021255811702086676,0.7053769089588834 l -19.990918442317945 0.43022614554537825" fill="#ff0e01" stroke="none" /><line stroke="#e1ed5e" stroke-width="0.3" x1="184.98032266829074" x2="189.97916517819016" y1="98.17113171792111" y2="98.06355123074" /><path d="M 185.9800911702706 98.14961562048488 a86.0,86.0 0 0,1 -9.607161424134198,41.387399972396054" fill="none" id="id76" stroke="none" /><text fill="#e1ed5e" style="font-size:6.75px; font-family:Arial;" text-anchor="middle"><textPath startOffset="21.466115282336823" xlink:href="#id76">April</textPath></text><path d="M 120.99824983174949 100.27111621757518 l 30.045597238454533 0.3879298866975402 a51.04810148765509,51.04810148765509 0 0,0 -0.01890709206763614,0.8785382743913495 l -30.034468083701892 -0.9050579768790045" fill="#ffd013" stroke="none" /><path d="M 120.92983693683757 101.71520430193887 l 41.40988260514838 3.3935481199150686 a62.54870089683129,62.54870089683129 0 0,0 -0.09717507710017051,1.0723188783318087 l -41.34533293177113 -4.105848386795448" fill="#71ff27" stroke="none" /><path d="M 120.8583938346157 102.4346265915055 l 31.86169557660982 3.718950361965725 a53.078002381871016,53.078002381871016 0 0,0 -0.11373476187506648,0.9065779567746903 l -31.7929593054879 -4.26684607302781" fill="#fff417" stroke="none" /><path d="M 120.76222939487914 103.15116336523771 l 35.264929529213696 5.352293912981995 a56.66878614182647,56.66878614182647 0 0,0 -0.15467406686308685,0.9631555620043685 l -35.16757370798932 -5.958528704679569" fill="#ceff1d" stroke="none" /><path d="M 120.13307415673323 105.97154293290107 l 30.83138704929258 9.144701400911869 a53.158979944878936,53.158979944878936 0 0,0 -0.26775223233579093,0.8750297873138467 l -30.669408044450655 -9.674058160777772" fill="#fff517" stroke="none" /><path d="M 120.02730092923936 106.31721596034902 l 22.783021983417182 7.186453661786162 a44.8895627195198,44.8895627195198 0 0,0 -0.23878628591726456,0.7349086210707934 l -22.655943446483672 -7.577561182834751" fill="#ff5c08" stroke="none" /><path d="M 119.79798401119884 107.00284435728193 l 59.02246303373761 20.877131831952727 a83.6059563947206,83.6059563947206 0 0,0 -0.4915860595334721,1.3526337080245552 l -58.65435271319891 -21.89001333698341" fill="#4cd7ff" stroke="none" /><line stroke="#e1ed5e" stroke-width="0.3" x1="174.80103733775053" x2="179.2010983576182" y1="140.37084112569926" y2="142.7455964860345" /><path d="M 175.68104954172406 140.8457921977663 a86.0,86.0 0 0,1 -30.038265399797805,32.042727171017184" fill="none" id="id77" stroke="none" /><text fill="#e1ed5e" style="font-size:6.75px; font-family:Arial;" text-anchor="middle"><textPath startOffset="22.206326154141568" xlink:href="#id77">May</textPath></text><path d="M 118.48025628344425 109.97397251340804 l 26.21013636205732 14.145863327773863 a50.783832819261136,50.783832819261136 0 0,0 -0.4218046886737998,0.7656980313969137 l -25.96275526393201 -14.594931877568582" fill="#ffcb12" stroke="none" /><path d="M 118.30583269289576 110.29060199501025 l 30.571290154882444 17.18561426489826 a56.07063043909942,56.07063043909942 0 0,0 -0.48019956947379316,0.8372684255197259 l -30.27093858925627 -17.7093025362763" fill="#d8ff1c" stroke="none" /><path d="M 115.32070863581623 114.36230785411682 l 20.89716333075007 19.589922383378305 a49.64361175303896,49.64361175303896 0 0,0 -0.5897978999175933,0.6184007400826667 l -20.55685887945351 -19.94673024004348" fill="#ffb610" stroke="none" /><path d="M 113.48314897796784 116.09983520530334 l 21.483524437165258 25.65285035659367 a54.46058208788462,54.46058208788462 0 0,0 -0.7238845370272633,0.5957076921650675 l -21.038769771593305 -26.018853167615916" fill="#f3ff19" stroke="none" /><path d="M 111.1453310114006 117.79835938074945 l 18.252234081610013 29.147615387444134 a55.39080591879545,55.39080591879545 0 0,0 -0.8124533502619802,0.49907520530985877 l -17.747801531415725 -29.457479059582372" fill="#e3ff1b" stroke="none" /><line stroke="#e1ed5e" stroke-width="0.3" x1="143.8653032363475" x2="146.44561519142675" y1="172.8068346515853" y2="177.08958963109032" /><path d="M 144.38136562736335 173.6633856474863 a86.0,86.0 0 0,1 -40.68145358897372,12.25698825130547" fill="none" id="id78" stroke="none" /><text fill="#e1ed5e" style="font-size:6.75px; font-family:Arial;" text-anchor="middle"><textPath startOffset="21.466115282336833" xlink:href="#id78">June</textPath></text><line stroke="#e1ed5e" stroke-width="0.3" x1="102.19456741930631" x2="102.32365962044197" y1="184.97166512339345" y2="189.96999836594603" /><path d="M 102.22038585953345 185.97133177190398 a86.0,86.0 0 0,1 -42.740103519485714,-10.115201625700543" fill="none" id="id79" stroke="none" /><text fill="#e1ed5e" style="font-size:6.75px; font-family:Arial;" text-anchor="middle"><textPath startOffset="22.20632615414155" xlink:href="#id79">July</textPath></text><path d="M 97.65516085044442 120.86867818915974 l -2.496450566094045 22.21799456429083 a43.35780731395206,43.35780731395206 0 0,0 -0.7409489543618711,-0.08971859964076193 l 2.8785269435073055 -22.171730435924722" fill="#ff3e05" stroke="none" /><line stroke="#e1ed5e" stroke-width="0.3" x1="58.666819895761336" x2="56.23545636021788" y1="174.27360380694188" y2="178.64263932499728" /><path d="M 58.180547188652646 175.14741091055294 a86.0,86.0 0 0,1 -31.652253787137756,-30.449443065178592" fill="none" id="id80" stroke="none" /><text fill="#e1ed5e" style="font-size:6.75px; font-family:Arial;" text-anchor="middle"><textPath startOffset="22.20632615414155" xlink:href="#id80">August</textPath></text><path d="M 86.24171649860922 115.8653595955263 l -18.067679849915567 20.834738421168495 a48.57766089133666,48.57766089133666 0 0,0 -0.6270164982146376,-0.5532691577162409 l 18.423638701036793 -20.520646121679963" fill="#ffa30f" stroke="none" /><line stroke="#e1ed5e" stroke-width="0.3" x1="26.63291911575756" x2="22.317208475507996" y1="142.92168965132927" y2="145.44649492493687" /><path d="M 25.769776987707644 143.4266507060508 a86.0,86.0 0 0,1 -11.730757126820373,-40.83630448921669" fill="none" id="id81" stroke="none" /><text fill="#e1ed5e" style="font-size:6.75px; font-family:Arial;" text-anchor="middle"><textPath startOffset="21.46611528233685" xlink:href="#id81">September</textPath></text><path d="M 79.18660465613746 102.79330883721812 l -26.318879359856243 3.5321847822989985 a47.55484400434263,47.55484400434263 0 0,0 -0.10189981943795198,-0.8122418210471226 l 26.37578068854104 -3.078625206964467" fill="#ff8f0d" stroke="none" /><path d="M 79.10278846688536 102.07522291339032 l -33.58813455828388 3.335510402568952 a54.753346689639976,54.753346689639976 0 0,0 -0.08506428766336975,-0.9386773260725307 l 33.64057344222433 -2.7568516879478553" fill="#eeff19" stroke="none" /><line stroke="#e1ed5e" stroke-width="0.3" x1="15.007084014347285" x2="10.007500721073583" y1="101.09737516637583" y2="101.16192664675087" /><path d="M 14.007167355692545 101.11028546245083 a86.0,86.0 0 0,1 10.666146001902534,-42.60595125391555" fill="none" id="id82" stroke="none" /><text fill="#e1ed5e" style="font-size:6.75px; font-family:Arial;" text-anchor="middle"><textPath startOffset="22.20632615414155" xlink:href="#id82">October</textPath></text><line stroke="#e1ed5e" stroke-width="0.3" x1="26.266209847984243" x2="21.928928074336255" y1="57.711370442889674" y2="55.22380399835377" /><path d="M 25.398753493254645 57.213857153982495 a86.0,86.0 0 0,1 29.58750427330803,-30.492523968695096" fill="none" id="id83" stroke="none" /><text fill="#e1ed5e" style="font-size:6.75px; font-family:Arial;" text-anchor="middle"><textPath startOffset="21.46611528233685" xlink:href="#id83">November</textPath></text><line stroke="#e1ed5e" stroke-width="0.3" x1="56.762969772571076" x2="54.21961505331055" y1="26.818313649435495" y2="22.513508569990535" /><path d="M 56.25429882871897 25.957352633546506 a86.0,86.0 0 0,1 42.265352541879196,-11.944610805530505" fill="none" id="id84" stroke="none" /><text fill="#e1ed5e" style="font-size:6.75px; font-family:Arial;" text-anchor="middle"><textPath startOffset="22.20632615414155" xlink:href="#id84">December</textPath></text><path d="M 93.59665428221793 80.00007090966166 l -11.245331603493716 -35.12317538043465 a57.87946490497531,57.87946490497531 0 0,0 0.9514684716606432,-0.2956258856561555 l 10.639077759122344 35.31154140097333" fill="#baff1f" stroke="none" /><path d="M 95.33964822691252 79.52364482259891 l -6.921740289145483 -30.41229922271991 a52.19003739405629,52.19003739405629 0 0,0 0.877680544400514,-0.19182697241395405 l 6.397217020591448 30.526939693229732" fill="#ffe415" stroke="none" /><path d="M 97.47563105711357 79.15227682838746 l -4.020200169298741 -33.201177054641335 a54.44368650754387,54.44368650754387 0 0,0 0.9313326179613559,-0.10464607121060239 l 3.4481008478276673 33.26545907932254" fill="#f3ff19" stroke="none" /><path d="M 98.91598698831166 79.02799685794201 l -1.5183650330038898 -29.375252787190455 a50.41446767637976,50.41446767637976 0 0,0 0.8670308181684114,-0.03733617087811042 l 1.0124933824461542 29.39703668459276" fill="#ffc412" stroke="none" /></svg>