<?xml version="1.0" encoding="utf-8" ?>
<svg baseProfile="full" height="200mm" version="1.1" viewBox="0,0,200,200" width="200mm" xmlns="http://www.w3.org/2000/svg" xmlns:ev="http://www.w3.org/2001/xml-events" xmlns:xlink="http://www.w3.org/1999/xlink"><defs /><rect fill="#1a1a1a" height="200" width="200" x="0" y="0" /><text alignment-baseline="middle" fill="#e1ed5e" style="dominant-baseline: central; font-size:9.0px; font-family:Arial;" text-anchor="middle" x="100.0" y="100.0">2015</text><line stroke="#e1ed5e" stroke-width="0.3" x1="100.0" x2="100.0" y1="15.0" y2="10.0" /><path d="M 100.0 14.0 a86.0,86.0 0 0,1 42.46469731375804,11.215312516191453" fill="none" id="id37" stroke="none" /><text fill="#e1ed5e" style="font-size:6.75px; font-family:Arial;" text-anchor="middle"><textPath startOffset="22.20632615414155" xlink:href="#id37">January</textPath></text><path d="M 100.0 79.0 l 0.0 -30.136762379530246 a51.136762379530246,51.136762379530246 0 0,0 0.8802353034951425,0.007576463157385885 l -0.5187548242226141 30.13229729298142" fill="#bbff1f" stroke="none" /><path d="M 101.44485096284872 79.0497635885617 l 0.9854387144567959 -14.288791417039299 a35.32273191886262,35.32273191886262 0 0,0 0.6062218629562888,0.047054484010349396 l -1.2312507667754258 14.269711670840485" fill="#ff6309" stroke="none" /><path d="M 102.16513564639614 79.11191278185805 l 1.411335779718678 -13.615823521227295 a34.68877346018702,34.68877346018702 0 0,0 0.5933982114908256,0.0666752031426084 l -1.645500694719229 13.589512364614086" fill="#ff5908" stroke="none" /><path d="M 102.88285421437855 79.19881850522331 l 1.4338679823192928 -10.346048021093669 a31.44493595219696,31.44493595219696 0 0,0 0.5355087859495151,0.07892007475646827 l -1.6117457486974636 10.319833462176232" fill="#ff2503" stroke="none" /><path d="M 105.01212808612495 79.60689891045804 l 3.4323433581175347 -13.965350420688313 a35.38095940125807,35.38095940125807 0 0,0 0.5901731232407952,0.1504482698668225 l -3.672225370043355 13.904199154652623" fill="#ff6409" stroke="none" /><path d="M 105.36241919743992 79.69619591428918 l 4.346664831649568 -16.45783888178592 a38.02216072705001,38.02216072705001 0 0,0 0.6313527477046506,0.17257255543589442 l -4.62931546857793 16.380579785523732" fill="#ff8c0c" stroke="none" /><path d="M 107.08798089147638 80.2323363322302 l 4.343298501832216 -12.113021367790994 a33.86815948504599,33.86815948504599 0 0,0 0.5470799186133694,0.20149415102266072 l -4.551160746218161 12.036463948962009" fill="#ff4c07" stroke="none" /><path d="M 107.76421540070413 80.48803036053334 l 6.30134800800112 -15.835690365916571 a38.04335870898464,38.04335870898464 0 0,0 0.6063678959491552,0.24735268974880825 l -6.572999773538662 15.724876789984185" fill="#ff8c0c" stroke="none" /><path d="M 109.08828744355905 81.06846463323043 l 6.4361777275383165 -13.407006218983534 a35.87185931537558,35.87185931537558 0 0,0 0.5543547168380417,0.27201945201632477 l -6.66600371138679 13.294231606832376" fill="#ff6b09" stroke="none" /><path d="M 109.41281617654863 81.2277094730956 l 6.930118631548329 -13.820964724824757 a36.46109990175937,36.46109990175937 0 0,0 0.558617928779511,0.28614579995893313 l -7.166997047916595 13.699626399553322" fill="#ff740a" stroke="none" /><path d="M 110.05341064243156 81.56283822128135 l 8.15593243346632 -14.957336478175275 a38.03646525487669,38.03646525487669 0 0,0 0.5721334814697172,0.3183916630021204 l -8.412190004008073 14.814729417612975" fill="#ff8c0c" stroke="none" /><line stroke="#e1ed5e" stroke-width="0.3" x1="143.23703022742887" x2="145.7803849466894" y1="26.81831364943548" y2="22.513508569990506" /><path d="M 143.74570117128098 25.957352633546492 a86.0,86.0 0 0,1 28.547481713284135,27.462654790039103" fill="none" id="id38" stroke="none" /><text fill="#e1ed5e" style="font-size:6.75px; font-family:Arial;" text-anchor="middle"><textPath startOffset="19.985693538727396" xlink:href="#id38">February</textPath></text><path d="M 110.99172775467656 82.1063720568725 l 6.185954797127807 -10.070225180542316 a32.81843779604297,32.81843779604297 0 0,0 0.4788067042747523,0.29982871429103847 l -6.358380653774823 9.962252124928334" fill="#ff3b05" stroke="none" /><path d="M 111.60114157652 82.49532879139004 l 8.43493169547728 -12.72725662578316 a36.26863235283071,36.26863235283071 0 0,0 0.517424380628719,0.3493672515331766 l -8.652760770512542 12.580177461951312" fill="#ff710a" stroke="none" /><path d="M 112.19680574252982 82.90503203632743 l 9.79087877322717 -13.722835511013395 a37.85756570843966,37.85756570843966 0 0,0 0.5272201144227323,0.3830478347479652 l -10.025644204003692 13.552268441448755" fill="#ff890c" stroke="none" /><path d="M 113.06298171725822 83.55741782278167 l 8.048086334681686 -10.130253857166567 a33.93807315101937,33.93807315101937 0 0,0 0.45427985819148736,0.36732938561098327 l -8.221269591437665 9.990218374291453" fill="#ff4d07" stroke="none" /><path d="M 113.6212207817346 84.01681056812373 l 10.071271720642079 -11.817666441966427 a36.527000811637265,36.527000811637265 0 0,0 0.4750357351663245,0.4119463084563707 l -10.273201254455168 11.642555140090385" fill="#ff750a" stroke="none" /><path d="M 114.16331599549186 84.49514656593476 l 11.247177901919281 -12.312501180629054 a37.67623147118117,37.67623147118117 0 0,0 0.4750651934232978,0.44152132281180884 l -11.457450979137425 12.117075271742603" fill="#ff870c" stroke="none" /><path d="M 115.19652480421416 85.50635884689758 l 11.046033478137481 -10.535122171674653 a36.2644572380496,36.2644572380496 0 0,0 0.42694089905955396,0.45543078352341276 l -11.225741699167498 10.343421971273184" fill="#ff710a" stroke="none" /><path d="M 115.68641384162765 86.03803664274999 l 21.14749248173133 -18.822690648649626 a49.31095409059266,49.31095409059266 0 0,0 0.5588765851571543,0.6388925484209943 l -21.468360930466332 18.455882544025684" fill="#d3ff1c" stroke="none" /><path d="M 115.9244219780498 86.31012108654704 l 11.258426680621444 -9.678624330989432 a35.84681582910455,35.84681582910455 0 0,0 0.3982229368196236,0.4713703512143285 l -11.423360230928184 9.483395030145996" fill="#ff6b09" stroke="none" /><path d="M 117.45458315368197 88.32363383020206 l 13.479801772542 -9.017408207728518 a37.21785147952207,37.21785147952207 0 0,0 0.3516260456326767,0.5355505911749223 l -13.633024453532602 8.784039552575923" fill="#ff800b" stroke="none" /><line stroke="#e1ed5e" stroke-width="0.3" x1="172.23445277983987" x2="176.4835382374775" y1="55.19839476539836" y2="52.563006222186495" /><path d="M 173.08426987136738 54.67131705675599 a86.0,86.0 0 0,1 12.851231095245387,41.99856678651699" fill="none" id="id39" stroke="none" /><text fill="#e1ed5e" style="font-size:6.75px; font-family:Arial;" text-anchor="middle"><textPath startOffset="22.20632615414155" xlink:href="#id39">March</textPath></text><path d="M 118.03404312379186 89.2402003453031 l 11.38012356175537 -6.789816833067295 a34.2517479944128,34.2517479944128 0 0,0 0.2977297728028775,0.508916692243951 l -11.495313009028575 6.592920728469449" fill="#ff5207" stroke="none" /><path d="M 118.3937258080291 89.86733742301442 l 13.408213506534485 -7.386263372621855 a36.30807225115393,36.30807225115393 0 0,0 0.29684771135780624,0.5500137257919586 l -13.533369317110756 7.154368663497437" fill="#ff720a" stroke="none" /><path d="M 118.73160827565052 90.50648371742162 l 14.646192450426149 -7.422953996248279 a37.419841635208854,37.419841635208854 0 0,0 0.28624394645549855,0.5770503292119126 l -14.771796409835055 7.169744078537416" fill="#ff830c" stroke="none" /><path d="M 119.04729006885535 91.15688171328212 l 23.299825182786282 -10.817450115286102 a46.688500940014094,46.688500940014094 0 0,0 0.3321501840425096,0.7318489023623478 l -23.482577683792137 10.414779204081691" fill="#f6ff19" stroke="none" /><path d="M 119.196687751892 91.48605970444005 l 12.446566586861813 -5.520187970698672 a34.61578110256739,34.61578110256739 0 0,0 0.23688615859481454,0.5467659144059293 l -12.539743455299307 5.30512291170614" fill="#ff5808" stroke="none" /><path d="M 119.47837535516314 92.15188598940014 l 14.791309748151576 -5.959628724313509 a36.94678709324943,36.94678709324943 0 0,0 0.23260016975595785,0.5919420611155886 l -14.891703467789235 5.704137658302136" fill="#ff7c0b" stroke="none" /><path d="M 119.7369772167798 92.82701384747503 l 16.465020519084728 -5.983862821913083 a38.51866190567518,38.51866190567518 0 0,0 0.22110981066941396,0.6251072097297544 l -16.565583410563953 5.699557985756714" fill="#ff930d" stroke="none" /><path d="M 120.18372546131832 94.20196356495316 l 14.576142032363702 -4.187185499923189 a36.16563348358409,36.16563348358409 0 0,0 0.16672913200281178,0.5998133974774006 l -14.646057934932877 3.935660799026836" fill="#ff700a" stroke="none" /><path d="M 120.37134235888165 94.90015583598534 l 15.528058913746564 -3.88735701529359 a37.00725329946198,37.00725329946198 0 0,0 0.14938101105875917,0.619280730721529 l -15.592672725066144 3.6194910529126547" fill="#ff7d0b" stroke="none" /><path d="M 120.67395015179393 96.31383870115 l 14.88986487338503 -2.654860016512867 a36.12469363838303,36.12469363838303 0 0,0 0.10388109533210442,0.6131121050217216 l -14.933357830237357 2.3981621231753074" fill="#ff6f0a" stroke="none" /><path d="M 120.78858239683441 97.02765380044208 l 18.067070637062358 -2.5832251434996394 a39.25081076408962,39.25081076408962 0 0,0 0.08987314389338946,0.6696593121840071 l -18.108859780013585 2.271847489250968" fill="#ff9e0e" stroke="none" /><path d="M 120.96714384426684 98.82574320788733 l 12.587882899815295 -0.7049795195385554 a33.607608497349176,33.607608497349176 0 0,0 0.02737642463290133,0.5778730553026326 l -12.598152932681693 0.4881953576129231" fill="#ff4806" stroke="none" /><path d="M 120.98425023603335 99.18683210126433 l 14.27803500954876 -0.5532930457935575 a35.2887514125071,35.2887514125071 0 0,0 0.018296890840864957,0.6071847307350974 l -14.285443594845269 0.30743816763346105" fill="#ff6209" stroke="none" /><line stroke="#e1ed5e" stroke-width="0.3" x1="184.98032266829074" x2="189.97916517819016" y1="98.17113171792111" y2="98.06355123074" /><path d="M 185.9800911702706 98.14961562048488 a86.0,86.0 0 0,1 -9.607161424134198,41.387399972396054" fill="none" id="id40" stroke="none" /><text fill="#e1ed5e" style="font-size:6.75px; font-family:Arial;" text-anchor="middle"><textPath startOffset="21.466115282336823" xlink:href="#id40">April</textPath></text><path d="M 120.99980553446 99.90962569577887 l 16.35481542599622 -0.0703842262902851 a37.35496687730411,37.35496687730411 0 0,0 -0.002767296343883198,0.6430222127695588 l -16.353603832362836 -0.21114746468295847" fill="#ff820c" stroke="none" /><path d="M 120.89721153311464 102.0752229133903 l 14.852805100250283 1.4749758082946327 a35.92586255400589,35.92586255400589 0 0,0 -0.06640758575885956,0.6148517686367218 l -14.82521521299037 -1.7304238988161458" fill="#ff6c09" stroke="none" /><path d="M 120.8583938346157 102.4346265915055 l 15.428074313947944 1.800790620710457 a36.53281442290286,36.53281442290286 0 0,0 -0.07828197676169561,0.6239843771146975 l -15.394790827939401 -2.0660927521125494" fill="#ff750a" stroke="none" /><path d="M 120.81339534386255 102.79330883721812 l 16.643821744786003 2.233721773727952 a37.79304365606895,37.79304365606895 0 0,0 -0.0920817592206563,0.6440196095222067 l -16.602905934548744 -2.5198868552305678" fill="#ff880c" stroke="none" /><path d="M 120.5718875245553 104.21870165774334 l 15.389177525575757 3.1558770998023133 a36.70943490972042,36.70943490972042 0 0,0 -0.13226927049173726,0.6179179970298962 l -15.332574216359578 -3.4203089162483784" fill="#ff780b" stroke="none" /><path d="M 120.49622156327973 104.57218783832717 l 14.730584930557825 3.286020355654501 a36.09264927619247,36.09264927619247 0 0,0 -0.14048536790014354,0.6052072880701429 l -14.671838996727129 -3.539096301073209" fill="#ff6f0a" stroke="none" /><path d="M 120.41448212921028 104.9243191809786 l 11.961509804607623 2.8853189510995203 a33.30458379041316,33.30458379041316 0 0,0 -0.13922693518620913,0.5561423978930785 l -11.910071555126352 -3.0907891883899947" fill="#ff4306" stroke="none" /><path d="M 120.32669344350535 105.2749913415812 l 16.013131981538237 4.1555766455070104 a37.54355503254503,37.54355503254503 0 0,0 -0.16771586278911427,0.6241331172706783 l -15.939228042407345 -4.430600695953237" fill="#ff850c" stroke="none" /><path d="M 119.9155931802556 106.66101706037122 l 14.482837726035214 4.843964641301756 a36.27143025537721,36.27143025537721 0 0,0 -0.20313584632549866,0.5904078552038362 l -14.397311048766484 -5.092545199594893" fill="#ff710a" stroke="none" /><path d="M 119.79798401119884 107.00284435728193 l 13.779028546954518 4.873849390639246 a35.61560931266371,35.61560931266371 0 0,0 -0.20941255617287047,0.5762134154736404 l -13.693091729776421 -5.110310603119018" fill="#ff6709" stroke="none" /><path d="M 119.67450827220406 107.3425965602758 l 11.833236800756463 4.416206119515369 a33.63045405647881,33.63045405647881 0 0,0 -0.20707667092240312,0.5406118441032355 l -11.755465850240553 -4.619241530451748" fill="#ff4806" stroke="none" /><path d="M 119.54520255179757 107.68017299344265 l 16.33882177280478 6.420244425281087 a38.55496042159687,38.55496042159687 0 0,0 -0.24803211239844947,0.6155953620074636 l -16.22588704614894 -6.700539155131364" fill="#ff940d" stroke="none" /><path d="M 119.26925614724726 108.34839909993367 l 12.122343257664 5.252001362586406 a34.21115908500239,34.21115908500239 0 0,0 -0.23875954121827664,0.5383397347691591 l -12.03014263171445 -5.459889433848253" fill="#ff5107" stroke="none" /><path d="M 119.12269723197855 108.67885076344098 l 13.445905501999013 6.102434495277815 a35.765909438224384,35.765909438224384 0 0,0 -0.25926091753836183,0.5584249514436403 l -13.33886996762082 -6.332979514000286" fill="#ff6a09" stroke="none" /><path d="M 118.97047184881838 109.00673069616215 l 12.515664508792058 5.9421410607256995 a34.85463454885041,34.85463454885041 0 0,0 -0.26198526454382404,0.5397672424324012 l -12.411525987633519 -6.156697259123376" fill="#ff5b08" stroke="none" /><path d="M 118.64920377521936 109.65438752849418 l 15.521538881790182 8.035246609429581 a38.47808219837846,38.47808219837846 0 0,0 -0.30956073693963965,0.5855722532801554 l -15.38092563662565 -8.30123387779587" fill="#ff930d" stroke="none" /><line stroke="#e1ed5e" stroke-width="0.3" x1="174.80103733775053" x2="179.2010983576182" y1="140.37084112569926" y2="142.7455964860345" /><path d="M 175.68104954172406 140.8457921977663 a86.0,86.0 0 0,1 -30.038265399797805,32.042727171017184" fill="none" id="id41" stroke="none" /><text fill="#e1ed5e" style="font-size:6.75px; font-family:Arial;" text-anchor="middle"><textPath startOffset="22.206326154141568" xlink:href="#id41">May</textPath></text><path d="M 118.48025628344425 109.97397251340804 l 19.238161615296303 10.38302132916662 a42.86124411505871,42.86124411505871 0 0,0 -0.3560005759011379,0.6462444526179127 l -19.056584629943657 -10.71263630018234" fill="#ffd313" stroke="none" /><path d="M 117.94076556474637 110.91462005526583 l 12.680679560135184 7.714542556278454 a35.84297143295309,35.84297143295309 0 0,0 -0.32520730844517287,0.5243377294748994 l -12.546007612022049 -7.931676617118627" fill="#ff6b09" stroke="none" /><path d="M 117.75023020441432 111.22182372390056 l 12.473108788965488 7.8855894547213135 a35.75672605660822,35.75672605660822 0 0,0 -0.3333806220687139,0.5174141288632857 l -12.335523303519723 -8.099125183506052" fill="#ff6909" stroke="none" /><path d="M 117.35343817320211 111.8261652097733 l 12.216572134453445 8.32545106722792 a35.783699475743916,35.783699475743916 0 0,0 -0.3512580642053616,0.5060134395521868 l -12.071453163085948 -8.534505768967128" fill="#ff6a09" stroke="none" /><path d="M 117.14729908036423 112.12312394758627 l 14.063675343381204 9.943004933159518 a38.22353945229792,38.22353945229792 0 0,0 -0.3844563780597002,0.5339762836198612 l -13.890439172945902 -10.18361482223051" fill="#ff8f0d" stroke="none" /><path d="M 114.0293411484842 115.62618273729858 l 9.618854922467543 10.713688059277219 a35.398106884273965,35.398106884273965 0 0,0 -0.4569013125529724,0.4031622853233029 l -9.433011257007983 -10.87767348637281" fill="#ff6409" stroke="none" /><path d="M 112.34349029814194 116.9893568818739 l 8.268262329648165 11.380286784240598 a35.06680806876386,35.06680806876386 0 0,0 -0.49139063400978267,0.3505941701354478 l -8.071144367789497 -11.520925216220265" fill="#ff5f08" stroke="none" /><path d="M 111.7513745106137 117.40417183066458 l 8.670205622534176 12.840859452270019 a36.49387417691184,36.49387417691184 0 0,0 -0.5236441728811335,0.34704280434160606 l -8.447886750913078 -12.988200277702942" fill="#ff750a" stroke="none" /><line stroke="#e1ed5e" stroke-width="0.3" x1="143.8653032363475" x2="146.44561519142675" y1="172.8068346515853" y2="177.08958963109032" /><path d="M 144.38136562736335 173.6633856474863 a86.0,86.0 0 0,1 -40.68145358897372,12.25698825130547" fill="none" id="id42" stroke="none" /><text fill="#e1ed5e" style="font-size:6.75px; font-family:Arial;" text-anchor="middle"><textPath startOffset="21.466115282336833" xlink:href="#id42">June</textPath></text><path d="M 109.89434966115114 118.52300852407294 l 7.052477961357444 13.20279895777022 a35.968344788744375,35.968344788744375 0 0,0 -0.5486184788999303,0.2870112588498411 l -6.824168579931018 -13.322239635564777" fill="#ff6d0a" stroke="none" /><path d="M 109.57404056367764 118.69057910512821 l 7.071628795680473 13.805335012806488 a36.51113176527483,36.51113176527483 0 0,0 -0.5618299788584951,0.2817132147986879 l -6.832944909139217 -13.925016068514477" fill="#ff750a" stroke="none" /><path d="M 108.2653958097858 119.30500536409082 l 11.410742965979454 26.651410196918768 a49.99142494807862,49.99142494807862 0 0,0 -0.7939793809797558,0.33188344564317235 l -10.950292125502237 -26.843878685581913" fill="#caff1d" stroke="none" /><path d="M 107.59598834532513 119.57807347666477 l 5.3222104993044175 13.717586636080947 a35.713874667037665,35.713874667037665 0 0,0 -0.5750440265219362,0.21743244626920147 l -5.085296252022206 -13.807167332456778" fill="#ff6909" stroke="none" /><path d="M 107.2578585660854 119.70592522655815 l 7.410629142264428 20.120715005608055 a42.4420287431269,42.4420287431269 0 0,0 -0.6877234375465069,0.24659315667626683 l -7.063186144088187 -20.245295703324285" fill="#ffcd13" stroke="none" /><path d="M 105.18746579009965 120.34920634021253 l 5.096298606743854 19.991578955159923 a41.630935233515046,41.630935233515046 0 0,0 -0.6959239555615988,0.17104117653132353 l -4.751421366439044 -20.07634139000528" fill="#ffc112" stroke="none" /><path d="M 104.83641907484287 120.43548508189849 l 3.3867165148590663 14.310007827076134 a35.70531103931499,35.70531103931499 0 0,0 -0.599304890524721,0.13639984191421964 l -3.1398914749414835 -14.366184402568038" fill="#ff6909" stroke="none" /><path d="M 103.41894727170886 120.7198165907248 l 2.1122149921059514 12.80063825457596 a33.97373469350251,33.97373469350251 0 0,0 -0.5778190291332468,0.09024344890209175 l -1.8915600993641877 -12.835100010825157" fill="#ff4e07" stroke="none" /><path d="M 103.06178313531738 120.77559828337769 l 1.7956870734912878 12.184557701419962 a33.31616573634572,33.31616573634572 0 0,0 -0.568074590546017,0.07872996194222012 l -1.5856838917584404 -12.213662228854785" fill="#ff4306" stroke="none" /><path d="M 100.90346689309514 120.98055641714683 l 0.599603968121857 13.924168087696547 a34.93707221237712,34.93707221237712 0 0,0 -0.6010501505907087,0.020701382473367908 l -0.359833465856496 -13.932426268596009" fill="#ff5d08" stroke="none" /><line stroke="#e1ed5e" stroke-width="0.3" x1="102.19456741930631" x2="102.32365962044197" y1="184.97166512339345" y2="189.96999836594603" /><path d="M 102.22038585953345 185.97133177190398 a86.0,86.0 0 0,1 -42.740103519485714,-10.115201625700543" fill="none" id="id43" stroke="none" /><text fill="#e1ed5e" style="font-size:6.75px; font-family:Arial;" text-anchor="middle"><textPath startOffset="22.20632615414155" xlink:href="#id43">July</textPath></text><path d="M 99.81925306533755 120.99922214144158 l -0.12280326693325863 14.267312952455887 a35.267841445912026,35.267841445912026 0 0,0 -0.6070104547155553,-0.010450235462484867 l 0.36837341154148184 -14.263085239714242" fill="#ff6209" stroke="none" /><path d="M 98.01472825383883 120.90594882070398 l -1.2211724060083162 12.859583515773833 a33.917435900532205,33.917435900532205 0 0,0 -0.5807430645976474,-0.060196393160670894 l 1.4423480672115567 -12.836657754157402" fill="#ff4d07" stroke="none" /><path d="M 97.65516085044442 120.86867818915974 l -1.596808992778517 14.211334285410123 a35.30076295625837,35.30076295625837 0 0,0 -0.6032607509697379,-0.07304647570742893 l 1.8411971667996443 -14.181742280977344" fill="#ff6209" stroke="none" /><path d="M 96.22490169976321 120.6578951692458 l -3.2979873605760197 18.04707367752612 a39.345942029576335,39.345942029576335 0 0,0 -0.66519445979449,-0.12748610139576827 l 3.6081494349422045 -17.987630377781887" fill="#ffa00e" stroke="none" /><path d="M 95.86986931433489 120.58985236759428 l -3.2451261524965433 16.177858154956457 a37.500119339795944,37.500119339795944 0 0,0 -0.6318029723731806,-0.13240045576603982 l 3.5231205862991106 -16.119601718463876" fill="#ff840c" stroke="none" /><path d="M 95.51606077576429 120.51570834832081 l -3.2389681361919616 14.819497390253963 a36.16932488567012,36.16932488567012 0 0,0 -0.6070932491553342,-0.1381724469818247 l 3.4935815347401586 -14.761548209694451" fill="#ff700a" stroke="none" /><path d="M 94.81253420990036 120.34920634021253 l -3.8101908653984897 14.946481240138944 a36.42448883731942,36.42448883731942 0 0,0 -0.6062241411594935,-0.16010930556570038 l 4.0669054493694725 -14.878680585269663" fill="#ff740a" stroke="none" /><path d="M 94.11515582081647 120.15858648285463 l -6.007767370369109 20.5796609760465 a42.43865001966036,42.43865001966036 0 0,0 -0.6994799439417335,-0.21074756918817011 l 6.361122288751088 -20.473198037752606" fill="#ffcd13" stroke="none" /><path d="M 93.76903079525671 120.05430185196036 l -4.2740030703199805 13.75582912898275 a35.404511004226244,35.404511004226244 0 0,0 -0.5804294012499053,-0.18583516492385488 l 4.510153816660826 -13.680221117399189" fill="#ff6409" stroke="none" /><path d="M 93.42475214034765 119.94407469862007 l -6.625909832807314 20.09774284901516 a42.161804004801496,42.161804004801496 0 0,0 -0.6872981726100971,-0.2331688563859238 l 6.970877738354637 -19.980711005731113" fill="#ffc912" stroke="none" /><path d="M 93.08242187328487 119.8279376855182 l -5.416168387712473 15.52442882735207 a37.44210358864023,37.44210358864023 0 0,0 -0.6067054980995136,-0.2175430060707912 l 5.682593446441713 -15.428898280241322" fill="#ff830c" stroke="none" /><path d="M 92.40401165467489 119.57807347666478 l -4.48633960199578 11.563193935546389 a33.40301161071344,33.40301161071344 0 0,0 -0.5342555998460834,-0.21259132895774516 l 4.684716277883722 -11.484255762182578" fill="#ff4506" stroke="none" /><path d="M 92.06813273071674 119.44442032107085 l -11.760239011570134 28.829407080823188 a52.13579827531445,52.13579827531445 0 0,0 -0.8280369860333501,-0.34611952731772955 l 12.254747457100946 -28.622702510485485" fill="#aeff20" stroke="none" /><path d="M 91.40352486487194 119.15986991738527 l -5.696417429339498 12.696205738475065 a34.91556005638903,34.91556005638903 0 0,0 -0.5462323297251678,-0.25074847157288577 l 5.914117754832084 -12.596270196568105" fill="#ff5c08" stroke="none" /><line stroke="#e1ed5e" stroke-width="0.3" x1="58.666819895761336" x2="56.23545636021788" y1="174.27360380694188" y2="178.64263932499728" /><path d="M 58.180547188652646 175.14741091055294 a86.0,86.0 0 0,1 -31.652253787137756,-30.449443065178592" fill="none" id="id44" stroke="none" /><text fill="#e1ed5e" style="font-size:6.75px; font-family:Arial;" text-anchor="middle"><textPath startOffset="22.20632615414155" xlink:href="#id44">August</textPath></text><path d="M 87.65650970185807 116.9893568818739 l -21.904831407319673 30.14941392000394 a58.26672508690327,58.26672508690327 0 0,0 -0.8063421921306559,-0.5965126768190122 l 22.420558569868895 -29.767891294445164" fill="#63ff29" stroke="none" /><path d="M 85.70375840098266 115.38237550388516 l -29.42738399506834 31.66308204670209 a64.22640042253568,64.22640042253568 0 0,0 -0.8033320893841245,-0.7596006319735418 l 29.96805191884328 -31.15184677798262" fill="#31ff42" stroke="none" /><path d="M 84.9287848128048 114.62390073753433 l -14.550665190260544 14.118800691549724 a41.27467362121435,41.27467362121435 0 0,0 -0.49036955535546384,-0.5141505183185563 l 14.791541296994964 -13.866243056648669" fill="#ffbc11" stroke="none" /><path d="M 83.28015986056508 112.70617746262583 l -13.878022083722508 10.546548887756185 a38.43069678464177,38.43069678464177 0 0,0 -0.39572405679696204,-0.5301370423806557 l 14.057507407214555 -10.306098965866221" fill="#ff920d" stroke="none" /><path d="M 82.44556493220864 111.52570212397912 l -32.23646182470125 21.16546930093135 a59.56379859018155,59.56379859018155 0 0,0 -0.5553477182260348,-0.8619119913421649 l 32.59601440630433 -20.607435709667737" fill="#54ff2b" stroke="none" /><line stroke="#e1ed5e" stroke-width="0.3" x1="26.63291911575756" x2="22.317208475507996" y1="142.92168965132927" y2="145.44649492493687" /><path d="M 25.769776987707644 143.4266507060508 a86.0,86.0 0 0,1 -11.730757126820373,-40.83630448921669" fill="none" id="id45" stroke="none" /><text fill="#e1ed5e" style="font-size:6.75px; font-family:Arial;" text-anchor="middle"><textPath startOffset="21.46611528233685" xlink:href="#id45">September</textPath></text><path d="M 81.87401531095188 110.60418214915194 l -25.032346337882487 14.64458702472302 a50.001418798127524,50.001418798127524 0 0,0 -0.42822168382820175,-0.7466406006676275 l 25.280720017863064 -14.211526578197086" fill="#caff1d" stroke="none" /><path d="M 80.58989483394504 108.01547362559985 l -18.188165366896683 7.510869134875463 a40.67797028595187,40.67797028595187 0 0,0 -0.2616898782356075,-0.6494928167500591 l 18.314757859389676 -7.1966769502825985" fill="#ffb310" stroke="none" /><path d="M 80.20201598880116 107.00284435728193 l -46.19380612976409 16.339443168264562 a69.99841964597611,69.99841964597611 0 0,0 -0.39202171285002113,-1.1393985988383368 l 46.46821867355734 -15.541871866336928" fill="#39ff8d" stroke="none" /><path d="M 79.76711848015287 105.62410040840567 l -23.23601366491105 6.458876053534733 a45.11699423458192,45.11699423458192 0 0,0 -0.20154819137253244,-0.7500357978647373 l 23.343749932625357 -6.057949322494457" fill="#fff316" stroke="none" /><path d="M 79.35854240842038 103.8639653848113 l -28.352781352055107 5.307482052631551 a49.84526956255479,49.84526956255479 0 0,0 -0.15061236601458344,-0.8447141334267485 l 28.43994016040888 -4.818649168471589" fill="#ccff1d" stroke="none" /><path d="M 79.23777060512086 103.15116336523772 l -20.608204134694105 3.1277863594265836 a41.84421083100625,41.84421083100625 0 0,0 -0.1019523217442829,-0.7130543008229692 l 20.658990507454988 -2.7725865866232136" fill="#ffc412" stroke="none" /><path d="M 79.10278846688536 102.07522291339032 l -49.813531566768035 4.9467931135423235 a71.05855260853619,71.05855260853619 0 0,0 -0.11039590318191307,-1.218209592470184 l 49.89130206622702 -4.088602132523573" fill="#3bff9a" stroke="none" /><line stroke="#e1ed5e" stroke-width="0.3" x1="15.007084014347285" x2="10.007500721073583" y1="101.09737516637583" y2="101.16192664675087" /><path d="M 14.007167355692545 101.11028546245083 a86.0,86.0 0 0,1 10.666146001902534,-42.60595125391555" fill="none" id="id46" stroke="none" /><text fill="#e1ed5e" style="font-size:6.75px; font-family:Arial;" text-anchor="middle"><textPath startOffset="22.20632615414155" xlink:href="#id46">October</textPath></text><path d="M 79.00486145842228 99.54816195383935 l -34.21908398754794 -0.7364316277180856 a55.22700747201197,55.22700747201197 0 0,0 0.02863469198360188,-0.9502460222867055 l 34.20133760110869 1.3253477974297856" fill="#88ff25" stroke="none" /><path d="M 79.05617556472873 98.46500227214037 l -17.712158216191412 -1.2981450785825406 a38.75966579979604,38.75966579979604 0 0,0 0.05449519712965541,-0.6649794362544836 l 17.68718853524226 1.6028384320448026" fill="#ff970d" stroke="none" /><path d="M 79.21141760316559 97.0276538004421 l -15.622319310631662 -2.2336752234874346 a36.781196584776346,36.781196584776346 0 0,0 0.09500776890355149,-0.6259824907942866 l 15.58155564828881 2.5022568266738134" fill="#ff790b" stroke="none" /><path d="M 79.32604984820605 96.31383870115002 l -12.34577817650115 -2.201249852315057 a33.54048402956158,33.54048402956158 0 0,0 0.10623433404472077,-0.5675080603914142 l 12.306058118546568 2.413435990169044" fill="#ff4706" stroke="none" /><path d="M 79.3925641242962 95.95851677861259 l -21.623331355988817 -4.240718320941735 a43.035247918016715,43.035247918016715 0 0,0 0.14882142877519705,-0.7257061395625223 l 21.547130631298625 4.612300116667659" fill="#ffd513" stroke="none" /><path d="M 79.46518482838121 95.60439243477599 l -18.209717527130294 -3.897905652127485 a39.62223082476328,39.62223082476328 0 0,0 0.14849961740046455,-0.6656946669574766 l 18.13992352272779 4.21077848863492" fill="#ffa40f" stroke="none" /><path d="M 79.71946130924805 94.55025226153421 l -38.856802698644266 -10.441526029459544 a61.23526539971185,61.23526539971185 0 0,0 0.2823039904081949,-1.0155976557552746 l 38.671311937669714 11.108834988633761" fill="#42ff2d" stroke="none" /><path d="M 80.02781315780177 93.51064311812611 l -16.303366207975774 -5.297284795869314 a38.14237369560921,38.14237369560921 0 0,0 0.2082622757098531,-0.622677696249664 l 16.20976663849415 5.5771355950413" fill="#ff8e0d" stroke="none" /><path d="M 80.14247586403 93.16781622104843 l -15.12502843294073 -5.203920348183484 a36.99522654067468,36.99522654067468 0 0,0 0.2123647897248333,-0.600383857902246 l 15.033210562406088 5.463501832512342" fill="#ff7c0b" stroke="none" /><path d="M 80.38941819471856 92.48833698450439 l -8.490281489559006 -3.252128574741802 a30.091821601780385,30.091821601780385 0 0,0 0.18944442436022993,-0.4821153963056273 l 8.433043515317086 3.3977929759431924" fill="#ff0f01" stroke="none" /><path d="M 80.52162464483688 92.15188598940014 l -29.873309445398917 -12.03638055672209 a53.206972445835355,53.206972445835355 0 0,0 0.3495908716175626,-0.8465620249211223 l 29.661696886895157 12.548817152096523" fill="#a1ff22" stroke="none" /><path d="M 80.803312248108 91.48605970444005 l -11.08082611145081 -4.914467180885183 a33.12174471700372,33.12174471700372 0 0,0 0.2356339008977002,-0.5191880661709064 l 10.994589893589758 5.104477255898161" fill="#ff4006" stroke="none" /><path d="M 81.10775173730289 90.83032412892265 l -14.268067789170402 -6.925250775556634 a36.85991351618002,36.85991351618002 0 0,0 0.28196076332273734,-0.5684156933796395 l 14.146747012894252 7.169826057435236" fill="#ff7a0b" stroke="none" /><path d="M 81.6062741919709 89.86733742301443 l -24.680692048393453 -13.596001555253036 a49.177789449814455,49.177789449814455 0 0,0 0.41483188662687387,-0.7379396381234149 l 24.44300252047415 14.018824703311235" fill="#d4ff1c" stroke="none" /><line stroke="#e1ed5e" stroke-width="0.3" x1="26.266209847984243" x2="21.928928074336255" y1="57.711370442889674" y2="55.22380399835377" /><path d="M 25.398753493254645 57.213857153982495 a86.0,86.0 0 0,1 29.58750427330803,-30.492523968695096" fill="none" id="id47" stroke="none" /><text fill="#e1ed5e" style="font-size:6.75px; font-family:Arial;" text-anchor="middle"><textPath startOffset="21.46611528233685" xlink:href="#id47">November</textPath></text><path d="M 81.96595687620814 89.24020034530311 l -9.628945159479771 -5.744996842409764 a32.21256320399431,32.21256320399431 0 0,0 0.2882015106065358,-0.473727505952258 l 9.52862785058702 5.909892121569096" fill="#ff3204" stroke="none" /><path d="M 82.15384107792192 88.93136811851018 l -17.82406928187077 -11.054931336912308 a41.974006594563065,41.974006594563065 0 0,0 0.3861057023361696,-0.6107264976108464 l 17.631135983288637 11.360105482237369" fill="#ffc612" stroke="none" /><path d="M 82.54541684631803 88.32363383020206 l -10.970966838709664 -7.339105432515712 a34.199415969111996,34.199415969111996 0 0,0 0.3315316371299518,-0.48648176863287834 l 10.843010735910973 7.526865224419007" fill="#ff5107" stroke="none" /><path d="M 83.17141714833178 87.43820079747576 l -50.48574855500465 -37.6853976075727 a84.0,84.0 0 0,0 0.8748962391035646,-1.1512608964758937 l 49.82957637567698 38.54884327992962" fill="#4dd2ff" stroke="none" /><path d="M 83.84228863543731 86.58626213691792 l -11.553388469708953 -9.591341302390278 a36.01581210294473,36.01581210294473 0 0,0 0.400100319536142,-0.4735925801936932 l 11.386577536685687 9.788792832213087" fill="#ff6d0a" stroke="none" /><path d="M 85.83668400450813 84.49514656593479 l -5.795205602869554 -6.344122627876558 a29.59257236786901,29.59257236786901 0 0,0 0.37905127693942053,-0.3403159790432008 l 5.6851433383341625 6.442937615689038" fill="#ff0701" stroke="none" /><path d="M 86.10567301691215 84.25364557470407 l -8.814591957541976 -9.989522288252138 a34.32244673194267,34.32244673194267 0 0,0 0.4463653832433012,-0.38708366179106213 l 8.641332775651902 10.13977094346288" fill="#ff5307" stroke="none" /><path d="M 86.93701828274178 83.55741782278169 l -6.442342598845261 -8.10907876073646 a31.356685594760684,31.356685594760684 0 0,0 0.42550640821943797,-0.3321145008860795 l 6.301803635466397 8.218771650845762" fill="#ff2403" stroke="none" /><path d="M 87.51073957382395 83.11751280151077 l -5.975794873437385 -8.077842643120668 a31.04796825912678,31.04796825912678 0 0,0 0.43238684452765475,-0.31414743109938414 l 5.835862712555949 8.179509309036721" fill="#ff1f03" stroke="none" /><path d="M 87.80319425747018 82.90503203632743 l -8.090404594937022 -11.339461354322665 a34.92975341906508,34.92975341906508 0 0,0 0.4924577280669688,-0.34499810941105225 l 7.894015727286392 11.47704430649766" fill="#ff5d08" stroke="none" /><path d="M 88.09926311788651 82.69761687909137 l -4.624629927013277 -6.723711277901385 a29.160606307769363,29.160606307769363 0 0,0 0.4160181313365121,-0.2808972993433399 l 4.508207101270226 6.802320489543391" fill="#ff0000" stroke="none" /><path d="M 89.00827224532344 82.1063720568725 l -6.927180624249537 -11.276879809220706 a34.23457024737063,34.23457024737063 0 0,0 0.5047772188248849,-0.304122626351146 l 6.7320413392070035 11.394449045030472" fill="#ff5207" stroke="none" /><line stroke="#e1ed5e" stroke-width="0.3" x1="56.762969772571076" x2="54.21961505331055" y1="26.818313649435495" y2="22.513508569990535" /><path d="M 56.25429882871897 25.957352633546506 a86.0,86.0 0 0,1 42.265352541879196,-11.944610805530505" fill="none" id="id48" stroke="none" /><text fill="#e1ed5e" style="font-size:6.75px; font-family:Arial;" text-anchor="middle"><textPath startOffset="22.20632615414155" xlink:href="#id48">December</textPath></text><path d="M 89.63071344664047 81.73862282372117 l -5.957632612018417 -10.492002091553674 a33.06546701246794,33.06546701246794 0 0,0 0.49736116727721613,-0.2767809511082623 l 5.7761473556691545 10.592998440222122" fill="#ff3f05" stroke="none" /><path d="M 90.26544431104013 81.39251694778311 l -7.67836888450135 -14.677107353658217 a37.564263611681824,37.564263611681824 0 0,0 0.5755194218337931,-0.2948034011588873 l 7.424588975078794 14.80710328012961" fill="#ff850c" stroke="none" /><path d="M 91.56875222667455 80.76684994638697 l -4.642281812001648 -10.589856339398057 a32.56269162916362,32.56269162916362 0 0,0 0.5152910151636495,-0.22062072075236341 l 4.459307039047689 10.668196588113206" fill="#ff3705" stroke="none" /><path d="M 91.90106846888425 80.62456947434976 l -4.859747463918303 -11.626187849297947 a33.60100747242948,33.60100747242948 0 0,0 0.5355618666239765,-0.21846913255354902 l 4.658901727705946 11.708117868035073" fill="#ff4806" stroke="none" /><path d="M 92.57280143429618 80.3572730644239 l -4.421125912295942 -11.692560563014867 a33.50049306436131,33.50049306436131 0 0,0 0.5411409210840386,-0.19930676811134587 l 4.219202665439333 11.766930598932534" fill="#ff4606" stroke="none" /><path d="M 94.28887869178378 79.79150937346287 l -2.846252942862087 -10.071310485706894 a31.465775208471694,31.465775208471694 0 0,0 0.5224848682098068,-0.1428148514619817 l 2.6724701854285575 10.118811877995173" fill="#ff2603" stroke="none" /><path d="M 94.63758080256005 79.69619591428918 l -3.6294698104669854 -13.742313171246417 a35.21352251912607,35.21352251912607 0 0,0 0.5873801874543082,-0.14973628834753444 l 3.392380734327678 13.802752455762814" fill="#ff6108" stroke="none" /><path d="M 94.98787191387505 79.60689891045804 l -2.9126357092873283 -11.850789412372867 a33.20346903431252,33.20346903431252 0 0,0 0.5561997103306728,-0.1316345013433583 l 2.7082123119941213 11.899169825857095" fill="#ff4106" stroke="none" /><path d="M 96.04723909329186 79.375362276772 l -2.568468104899067 -13.401702105813875 a34.645609101057374,34.645609101057374 0 0,0 0.586673696604667,-0.10721086813060793 l 2.3373992871915066 13.44392845529522" fill="#ff5808" stroke="none" /><path d="M 96.40284397218896 79.31037775812273 l -2.25643700469518 -12.978260847958074 a34.17295572731493,34.17295572731493 0 0,0 0.5804045356115299,-0.09577172147386478 l 2.0327032629447643 13.015178832371566" fill="#ff5107" stroke="none" /><path d="M 98.91598698831166 79.02799685794201 l -0.6315282228775959 -12.21794547821822 a33.23425598902541,33.23425598902541 0 0,0 0.5715645823407874,-0.024612773233634217 l 0.4211228081474844 12.227005977976049" fill="#ff4206" stroke="none" /><path d="M 99.27714615592234 79.0124445844662 l -0.4203359848681526 -12.204161114782051 a33.211397579955104,33.211397579955104 0 0,0 0.5715102139690014,-0.014760422707450234 l 0.21019913570427226 12.209588329631861" fill="#ff4206" stroke="none" /></svg>