<?xml version="1.0" encoding="utf-8" ?>
<svg baseProfile="full" height="200mm" version="1.1" viewBox="0,0,200,200" width="200mm" xmlns="http://www.w3.org/2000/svg" xmlns:ev="http://www.w3.org/2001/xml-events" xmlns:xlink="http://www.w3.org/1999/xlink"><defs /><rect fill="#1a1a1a" height="200" width="200" x="0" y="0" /><text alignment-baseline="middle" fill="#e1ed5e" style="dominant-baseline: central; font-size:9.0px; font-family:Arial;" text-anchor="middle" x="100.0" y="100.0">2014</text><line stroke="#e1ed5e" stroke-width="0.3" x1="100.0" x2="100.0" y1="15.0" y2="10.0" /><path d="M 100.0 14.0 a86.0,86.0 0 0,1 42.46469731375804,11.215312516191453" fill="none" id="id25" stroke="none" /><text fill="#e1ed5e" style="font-size:6.75px; font-family:Arial;" text-anchor="middle"><textPath startOffset="22.20632615414155" xlink:href="#id25">January</textPath></text><path d="M 100.0 79.0 l 0.0 -32.12939717723521 a53.12939717723521,53.12939717723521 0 0,0 0.9145352359565476,0.007871693504956345 l -0.5530547566840193 32.12463686033882" fill="#7cff26" stroke="none" /><path d="M 101.80526077348638 79.07773832637324 l 1.3416404574817724 -15.549084728157036 a36.60685858847187,36.60685858847187 0 0,0 0.6273280277215104,0.0595723552033761 l -1.609093612293527 15.523686828438482" fill="#ffbd11" stroke="none" /><path d="M 102.16513564639614 79.11191278185805 l 1.4118091225528988 -13.620390083337037 a34.69336448871458,34.69336448871458 0 0,0 0.5934767472199797,0.06668402754685145 l -1.6460525732826037 13.594070102319584" fill="#ffa40f" stroke="none" /><path d="M 102.88285421437855 79.19881850522331 l 2.972689195672724 -21.44938414795267 a42.65439819945391,42.65439819945391 0 0,0 0.7264064722510862,0.10705343142407883 l -3.341464648352466 21.395036232367623" fill="#f4ff19" stroke="none" /><path d="M 103.59715602781102 79.31037775812273 l 3.2900017634152943 -18.922975020795626 a40.206850216548546,40.206850216548546 0 0,0 0.6808453381947405,0.12442013370120769 l -3.6152422227129355 18.86353940574368" fill="#ffeb16" stroke="none" /><path d="M 104.66035177308747 79.52364482259891 l 4.086284425926993 -17.954054830013604 a39.41319649731432,39.41319649731432 0 0,0 0.6602204261355625,0.15625284399983877 l -4.394728539025079 17.881056073872895" fill="#ffe115" stroke="none" /><path d="M 105.01212808612495 79.60689891045804 l 4.177901336515496 -16.998840179993145 a38.504725848827434,38.504725848827434 0 0,0 0.6422792004030573,0.16373126912568745 l -4.469889425603578 16.92440591469859" fill="#ffd614" stroke="none" /><path d="M 105.36241919743992 79.69619591428918 l 4.614014801150704 -17.470109874263215 a39.06914141856405,39.06914141856405 0 0,0 0.6487377180414585,0.1773245245500031 l -4.914050408415873 17.38809880888692" fill="#ffdd14" stroke="none" /><path d="M 106.0581310904928 79.89281104454417 l 7.86798459164564 -26.11416797023536 a48.273704374581015,48.273704374581015 0 0,0 0.7935613744544741,0.24656338190183982 l -8.316331338810832 25.974864453451" fill="#b2ff20" stroke="none" /><path d="M 107.08798089147638 80.2323363322302 l 5.985224863710391 -16.69218835283235 a38.73279641442965,38.73279641442965 0 0,0 0.625659481715577,0.23043566727341638 l -6.2716666711985445 16.58668941775261" fill="#ffd914" stroke="none" /><path d="M 107.76421540070413 80.48803036053334 l 6.944498494902511 -17.451968653725288 a39.78289831831907,39.78289831831907 0 0,0 0.6340941800793527,0.25866293721105044 l -7.243876544570251 17.32984483033066" fill="#ffe615" stroke="none" /><path d="M 109.08828744355905 81.06846463323043 l 6.96846111771643 -14.515789572159996 a37.101788635190644,37.101788635190644 0 0,0 0.5733617360678657,0.2813461138058212 l -7.217294120794727 14.393688298219343" fill="#ffc412" stroke="none" /><path d="M 109.41281617654863 81.2277094730956 l 8.434685916277243 -16.821573007877735 a39.81779065048834,39.81779065048834 0 0,0 0.610045549961006,0.31248902498773856 l -8.722991953827004 16.673891457577493" fill="#ffe615" stroke="none" /><line stroke="#e1ed5e" stroke-width="0.3" x1="143.23703022742887" x2="145.7803849466894" y1="26.81831364943548" y2="22.513508569990506" /><path d="M 143.74570117128098 25.957352633546492 a86.0,86.0 0 0,1 28.547481713284135,27.462654790039103" fill="none" id="id26" stroke="none" /><text fill="#e1ed5e" style="font-size:6.75px; font-family:Arial;" text-anchor="middle"><textPath startOffset="19.985693538727396" xlink:href="#id26">February</textPath></text><path d="M 110.68208982089419 81.91981866633111 l 19.090414275641322 -32.311856352614264 a58.52998771872419,58.52998771872419 0 0,0 0.8630049743587053,0.5199508408225546 l -19.643781316217666 31.97845890233309" fill="#43ff2d" stroke="none" /><path d="M 110.99172775467656 82.1063720568725 l 10.049700850269762 -16.360085690618593 a40.20023153465333,40.20023153465333 0 0,0 0.5865038577342075,0.3672686619071935 l -10.329823860376234 16.184672687388456" fill="#ffeb16" stroke="none" /><path d="M 113.34407831869373 83.78471172551755 l 10.792505728909626 -13.11470057494419 a37.9845091503696,37.9845091503696 0 0,0 0.5012914487301131,0.41981717194117435 l -11.016654714598856 12.926982245609196" fill="#ffcf13" stroke="none" /><path d="M 113.6212207817346 84.01681056812373 l 11.77757324385494 -13.81984678324544 a39.157626403986484,39.157626403986484 0 0,0 0.5092471714858056,0.44161412890753304 l -12.01371421398751 13.615067660918237" fill="#ffde14" stroke="none" /><path d="M 114.16331599549186 84.49514656593476 l 11.094310072234231 -12.145153838043123 a37.449573785621666,37.449573785621666 0 0,0 0.47220723303218054,0.4388651601000408 l -11.301725189061258 11.952384091868442" fill="#ffc812" stroke="none" /><path d="M 114.68862486808459 84.99185889309783 l 11.863493533793596 -12.121555732753466 a37.960972619770686,37.960972619770686 0 0,0 0.4630591512387493,0.46107062808361643 l -12.070388485199668 11.915549254019732" fill="#ffcf13" stroke="none" /><path d="M 115.9244219780498 86.31012108654704 l 13.698543157814367 -11.77633934717889 a39.064668639817796,39.064668639817796 0 0,0 0.43397012291962594,0.5136837443138185 l -13.89922389422111 11.538796653235964" fill="#ffdd14" stroke="none" /><path d="M 116.38621287248628 86.86637796730983 l 19.328721212159166 -15.492055470729511 a45.77101625701965,45.77101625701965 0 0,0 0.4874524291880847,0.6190150834996531 l -19.592527721941213 15.15704799327682" fill="#cfff1d" stroke="none" /><path d="M 116.82858285166822 87.43820079747576 l 14.228199906270271 -10.62072735484223 a38.75504216043103,38.75504216043103 0 0,0 0.3944476887283235,0.5380262041362047 l -14.408910207512221 10.374238707034532" fill="#ffd914" stroke="none" /><path d="M 117.45458315368197 88.32363383020206 l 15.869133303710768 -10.615768341186383 a40.09250976913924,40.09250976913924 0 0,0 0.3787851826258329,0.5769158200967864 l -16.049515121694526 10.341034457111922" fill="#ffea16" stroke="none" /><line stroke="#e1ed5e" stroke-width="0.3" x1="172.23445277983987" x2="176.4835382374775" y1="55.19839476539836" y2="52.563006222186495" /><path d="M 173.08426987136738 54.67131705675599 a86.0,86.0 0 0,1 12.851231095245387,41.99856678651699" fill="none" id="id27" stroke="none" /><text fill="#e1ed5e" style="font-size:6.75px; font-family:Arial;" text-anchor="middle"><textPath startOffset="22.20632615414155" xlink:href="#id27">March</textPath></text><path d="M 118.03404312379186 89.2402003453031 l 20.135834473587373 -12.013808735441497 a44.44746106254321,44.44746106254321 0 0,0 0.3863549529201948,0.660405853338671 l -20.339649100977894 11.66542346974893" fill="#dfff1b" stroke="none" /><path d="M 118.21658344932153 89.55222093294921 l 14.50009628446164 -8.316257702904307 a37.71564938731886,37.71564938731886 0 0,0 0.3181447186979651,0.5659439550219934 l -14.641098644452036 8.065430237947519" fill="#ffcc13" stroke="none" /><path d="M 118.56541770881063 90.18545643968196 l 16.22613120583562 -8.577887879114783 a39.35395037520961,39.35395037520961 0 0,0 0.31144072953546365,0.6016043598692867 l -16.3713813685312 8.297310796985151" fill="#ffe115" stroke="none" /><path d="M 119.196687751892 91.48605970444005 l 29.16986328335023 -12.93715236888264 a52.91004286090869,52.91004286090869 0 0,0 0.36207927151116787,0.8357288798534726 l -29.388233264704077 12.433124344442563" fill="#7eff26" stroke="none" /><path d="M 119.47837535516314 92.15188598940014 l 15.564864307664662 -6.271304840302762 a37.78077070089506,37.78077070089506 0 0,0 0.2378505512904189,0.6053037094343018 l -15.67050840883678 6.002452125972676" fill="#ffcc13" stroke="none" /><path d="M 119.7369772167798 92.82701384747503 l 17.052809715838336 -6.197482350507 a39.14406532972796,39.14406532972796 0 0,0 0.22469983238467867,0.6352566845563311 l -17.156962629032822 5.903028039524055" fill="#ffde14" stroke="none" /><path d="M 120.08093135843002 93.85539295169968 l 28.63447284807228 -8.761923465903676 a50.94502192534416,50.94502192534416 0 0,0 0.24937370597335287,0.840764166232286 l -28.781052451157336 8.26772991292486" fill="#94ff23" stroke="none" /><path d="M 120.18372546131832 94.20196356495316 l 8.842098514053998 -2.540007266993916 a30.199692551852905,30.199692551852905 0 0,0 0.13922522684989672,0.5008672169539635 l -8.884510511470257 2.3874287466210005" fill="#ff6709" stroke="none" /><path d="M 120.45610955862082 95.25157060432595 l 18.05845086584773 -4.191866429244341 a39.53859195933883,39.53859195933883 0 0,0 0.14818614843981287,0.6642894470719527 l -18.12793140128958 3.8803988126224245" fill="#ffe315" stroke="none" /><path d="M 120.67395015179393 96.31383870115 l 30.94547303004286 -5.517571834139884 a52.43351555263909,52.43351555263909 0 0,0 0.15077916181782425,0.8899071481677675 l -31.03586405338091 4.984078897656278" fill="#83ff25" stroke="none" /><path d="M 120.73433829027371 96.67025291283417 l 8.691140375875857 -1.3957184910162834 a29.802496869601505,29.802496869601505 0 0,0 0.07698141980807598,0.5072113730537033 l -8.713877689123233 1.2459080055704979" fill="#ff6109" stroke="none" /><path d="M 120.83666639777658 97.38593545837742 l 16.250393361843223 -2.0386935349287034 a37.37777627591726,37.37777627591726 0 0,0 0.07459473377307245,0.6390821247314695 l -16.283078448619882 1.7586676718723813" fill="#ffc712" stroke="none" /><path d="M 120.96714384426684 98.82574320788733 l 27.183408953801 -1.5223963184430234 a48.22600618709981,48.22600618709981 0 0,0 0.039284426436683444,0.829232152671059 l -27.20558698847118 1.0542530591489647" fill="#b2ff20" stroke="none" /><line stroke="#e1ed5e" stroke-width="0.3" x1="184.98032266829074" x2="189.97916517819016" y1="98.17113171792111" y2="98.06355123074" /><path d="M 185.9800911702706 98.14961562048488 a86.0,86.0 0 0,1 -9.607161424134198,41.387399972396054" fill="none" id="id28" stroke="none" /><text fill="#e1ed5e" style="font-size:6.75px; font-family:Arial;" text-anchor="middle"><textPath startOffset="21.466115282336823" xlink:href="#id28">April</textPath></text><path d="M 120.99513854157772 99.54816195383933 l 17.30714927783965 -0.3724685359338632 a38.31115677635918,38.31115677635918 0 0,0 0.008514185523207233,0.6594330517340499 l -17.310996470480575 0.07449922613935055" fill="#ffd313" stroke="none" /><path d="M 120.99980553446 99.90962569577887 l 15.147843863871511 -0.06518992984964826 a36.14798413820082,36.14798413820082 0 0,0 -0.0026778817572762426,0.6222454118096734 l -15.146721684824731 -0.1955649601637099" fill="#ffb711" stroke="none" /><path d="M 120.95626037817324 101.35467743843564 l 29.58849523384359 1.9126917783621489 a50.65025193893298,50.65025193893298 0 0,0 -0.06373114098785297,0.8695607841519947 l -29.5511875341914 -2.421725699010914" fill="#97ff23" stroke="none" /><path d="M 120.89721153311464 102.0752229133903 l 16.217924008862795 1.6105405956905907 a37.29769616134795,37.29769616134795 0 0,0 -0.06894336782364663,0.6383299612196166 l -16.187798339538098 -1.8894668787949986" fill="#ffc612" stroke="none" /><path d="M 120.81339534386255 102.79330883721812 l 12.600508312332586 1.6910797417134456 a33.71347947738919,33.71347947738919 0 0,0 -0.08214200814252158,0.574501013632346 l -12.569532253173461 -1.907726227326201" fill="#ff970d" stroke="none" /><path d="M 120.64145759157962 103.86396538481128 l 61.924372774738885 11.591896154433844 a84.0,84.0 0 0,0 -0.2782802680973435,1.4189450917282203 l -61.715662573665874 -12.656104973230008" fill="#4dd2ff" stroke="none" /><path d="M 119.9155931802556 106.66101706037122 l 11.21914131213314 3.7523809111005004 a32.83002511762354,32.83002511762354 0 0,0 -0.18386247496174127,0.5343904163556014 l -11.152888006228167 -3.944944030545402" fill="#ff8b0c" stroke="none" /><path d="M 119.79798401119884 107.00284435728193 l 14.224674589283634 5.031481090468087 a36.08831233553804,36.08831233553804 0 0,0 -0.21219195403355962,0.5838611246823744 l -14.135958374244847 -5.275590012156592" fill="#ffb610" stroke="none" /><path d="M 119.54520255179757 107.68017299344265 l 15.597216090845086 6.128834811322052 a37.758155206614774,37.758155206614774 0 0,0 -0.24290609804177532,0.602873014755576 l -15.489407378545916 -6.396407193920441" fill="#ffcc13" stroke="none" /><path d="M 118.97047184881838 109.00673069616215 l 14.45566104361073 6.863205464386692 a37.00217877209701,37.00217877209701 0 0,0 -0.2781273055874125,0.5730246280968186 l -14.335380481408603 -7.111019048448786" fill="#ffc212" stroke="none" /><path d="M 118.81262510543309 109.33194174019688 l 5.28161966852241 2.619930326804565 a26.895722283167096,26.895722283167096 0 0,0 -0.20930165297972628,0.4129720177819631 l -5.235739345756414 -2.710456556289222" fill="#ff3805" stroke="none" /><line stroke="#e1ed5e" stroke-width="0.3" x1="174.80103733775053" x2="179.2010983576182" y1="140.37084112569926" y2="142.7455964860345" /><path d="M 175.68104954172406 140.8457921977663 a86.0,86.0 0 0,1 -30.038265399797805,32.042727171017184" fill="none" id="id29" stroke="none" /><text fill="#e1ed5e" style="font-size:6.75px; font-family:Arial;" text-anchor="middle"><textPath startOffset="22.206326154141568" xlink:href="#id29">May</textPath></text><path d="M 118.30583269289576 110.29060199501025 l 14.070230333146807 7.909563184892736 a37.141021386629006,37.141021386629006 0 0,0 -0.31808278844033366,0.5546041529237494 l -13.931995548554093 -8.150587183674801" fill="#ffc412" stroke="none" /><path d="M 117.55443506779139 111.5257021239791 l 13.55618368678227 8.900573245929877 a37.21697629818655,37.21697629818655 0 0,0 -0.3562141267589664,0.5324917877372608 l -13.40096645461258 -9.132601947872946" fill="#ffc512" stroke="none" /><path d="M 117.14729908036423 112.12312394758627 l 8.760952103816546 6.193984706026287 a31.729386203499953,31.729386203499953 0 0,0 -0.31913750198561636,0.4432540777033048 l -8.653034809455328 -6.343872389180723" fill="#ff7c0b" stroke="none" /><path d="M 116.93607887273984 112.41649034213515 l 12.917661912325148 9.470434424789891 a37.01733802713114,37.01733802713114 0 0,0 -0.3811705850145923,0.5106402886338074 l -12.752730060615464 -9.691387592933014" fill="#ffc312" stroke="none" /><path d="M 116.27256486870786 113.27417163493432 l 12.033290780121009 9.81602890737671 a36.52915034731136,36.52915034731136 0 0,0 -0.4016536636040167,0.4838177122049169 l -11.862541116623449 -10.021707876695398" fill="#ffbc11" stroke="none" /><path d="M 116.0416608686014 113.55231037782055 l 12.941492089775727 10.933226864061076 a37.94159576813101,37.94159576813101 0 0,0 -0.4257724400760816,0.4952695378286079 l -12.751377140128866 -11.154373501051213" fill="#ffcf13" stroke="none" /><path d="M 115.56566222782051 114.09645910891815 l 10.354380957252543 9.377057373196546 a34.96933820866736,34.96933820866736 0 0,0 -0.4078983335345483,0.4426930801524741 l -10.191436215722273 -9.553901708150354" fill="#ffa80f" stroke="none" /><path d="M 115.32070863581623 114.36230785411682 l 9.068551315773991 8.501259888430951 a33.43020686302007,33.43020686302007 0 0,0 -0.39717226658902316,0.41643353364479424 l -8.920872497806004 -8.65610053865825" fill="#ff930d" stroke="none" /><path d="M 114.29624159901734 115.38237550388516 l 5.705869631622819 6.139363876997574 a29.381451966530513,29.381451966530513 0 0,0 -0.37342489367546144,0.34111478655376215 l -5.599345188480494 -6.2366714301379185" fill="#ff5b08" stroke="none" /><path d="M 113.48314897796784 116.09983520530334 l 11.713954215152844 13.987291305213603 a39.24447975173864,39.24447975173864 0 0,0 -0.5216336470682513,0.4292689788992854 l -11.471450439539902 -14.186855402970066" fill="#ffdf14" stroke="none" /><path d="M 112.63410532772338 116.77436683061366 l 8.147463052570599 10.817428732590585 a34.54244876592411,34.54244876592411 0 0,0 -0.478026417615441,0.3536325157542822 l -7.960051664536594 -10.956071197084636" fill="#ffa20f" stroke="none" /><path d="M 111.7513745106137 117.40417183066458 l 8.314918447006304 12.3146674696612 a35.85896711311717,35.85896711311717 0 0,0 -0.5145340032492262,0.34100508067194435 l -8.101709745017114 -12.455970571424462" fill="#ffb310" stroke="none" /><line stroke="#e1ed5e" stroke-width="0.3" x1="143.8653032363475" x2="146.44561519142675" y1="172.8068346515853" y2="177.08958963109032" /><path d="M 144.38136562736335 173.6633856474863 a86.0,86.0 0 0,1 -40.68145358897372,12.25698825130547" fill="none" id="id30" stroke="none" /><text fill="#e1ed5e" style="font-size:6.75px; font-family:Arial;" text-anchor="middle"><textPath startOffset="21.466115282336833" xlink:href="#id30">June</textPath></text><path d="M 109.89434966115114 118.52300852407294 l 7.658362022363874 14.337062048419508 a37.25428734352313,37.25428734352313 0 0,0 -0.5682327217153568,0.29727250366450736 l -7.410438398122022 -14.466763971028731" fill="#ffc612" stroke="none" /><path d="M 109.2508944713604 118.85261126421891 l 7.546509212543395 15.379205224573875 a38.130958952567795,38.130958952567795 0 0,0 -0.591733165697379,0.2840678791000022 l -7.280663378845783 -15.506827380173437" fill="#ffd113" stroke="none" /><path d="M 108.59647513512805 119.15986991738527 l 9.749369215571908 21.72944643131756 a44.816360811699184,44.816360811699184 0 0,0 -0.7065605000872404,0.30973535933918395 l -9.373888040826914 -21.894046343951196" fill="#daff1b" stroke="none" /><path d="M 107.93186726928326 119.44442032107085 l 5.82555205486463 14.28093523396812 a36.42342918746443,36.42342918746443 0 0,0 -0.5825648667786111,0.23181458325984355 l -5.578866112044153 -14.379096661634033" fill="#ffbb11" stroke="none" /><path d="M 107.59598834532513 119.57807347666477 l 6.290984688441559 16.21452730989019 a38.392164449354226,38.392164449354226 0 0,0 -0.6181682899902557,0.2337383527163778 l -6.010946177691029 -16.3204139127132" fill="#ffd413" stroke="none" /><path d="M 106.91757812671514 119.82793768551818 l 5.475152939652788 15.693496960571107 a37.621165619896914,37.621165619896914 0 0,0 -0.6132792225653393,0.20805760973837387 l -5.204203984150222 -15.785417557207605" fill="#ffca12" stroke="none" /><path d="M 105.88484417918355 120.15858648285463 l 4.228552045616889 14.48494293363705 a36.08954022471237,36.08954022471237 0 0,0 -0.5978298191244066,0.16895267844521564 l -3.9785910583878765 -14.555584405420785" fill="#ffb610" stroke="none" /><path d="M 105.18746579009965 120.34920634021253 l 4.14486419065534 16.25932585980161 a37.77931990797572,37.77931990797572 0 0,0 -0.6315383884919185,0.15521677063866013 l -3.8643725174202097 -16.3282638887543" fill="#ffcc13" stroke="none" /><path d="M 104.83641907484287 120.43548508189849 l 1.4268690810741795 6.02899818417017 a27.19554472821016,27.19554472821016 0 0,0 -0.4564705496656788,0.10389121096339066 l -1.3228783820156387 -6.0526661287112455" fill="#ff3c05" stroke="none" /><path d="M 103.7750983002368 120.6578951692458 l 5.5572590224124125 30.410141718995664 a51.91374851440027,51.91374851440027 0 0,0 -0.8804349965783331,0.15307490963403184 l -5.03297505436203 -30.5012952071507" fill="#89ff24" stroke="none" /><path d="M 101.26447882468166 120.96189622390904 l 1.289619748022906 21.378669850928897 a42.41753122303098,42.41753122303098 0 0,0 -0.7292016609503786,0.03769139663295679 l -0.9214300186590477 -21.397701054324056" fill="#f7ff18" stroke="none" /><line stroke="#e1ed5e" stroke-width="0.3" x1="102.19456741930631" x2="102.32365962044197" y1="184.97166512339345" y2="189.96999836594603" /><path d="M 102.22038585953345 185.97133177190398 a86.0,86.0 0 0,1 -42.740103519485714,-10.115201625700543" fill="none" id="id31" stroke="none" /><text fill="#e1ed5e" style="font-size:6.75px; font-family:Arial;" text-anchor="middle"><textPath startOffset="22.20632615414155" xlink:href="#id31">July</textPath></text><path d="M 99.81925306533755 120.99922214144158 l -0.218156094785326 25.34542732058964 a46.34636617239212,46.34636617239212 0 0,0 -0.7976878553189225,-0.013732919835052197 l 0.6544036399969164 -25.33791692347543" fill="#c8ff1d" stroke="none" /><path d="M 98.73552117531835 120.96189622390904 l -1.423316794200348 23.595032476155623 a44.63792267200084,44.63792267200084 0 0,0 -0.7665760569997138,-0.052867573057462314 l 1.8292556119789918 -23.567036558581876" fill="#dcff1b" stroke="none" /><path d="M 98.37488393609728 120.93702456842531 l -1.275939409041323 16.438441135561515 a37.48788550247926,37.48788550247926 0 0,0 -0.6429273799796374,-0.055474479641971275 l 1.5587111067625021 -16.41404240364088" fill="#ffc912" stroke="none" /><path d="M 97.65516085044442 120.86867818915974 l -1.845778405786103 16.427120626227595 a37.53049273288302,37.53049273288302 0 0,0 -0.6413649829143254,-0.07766036754212279 l 2.128270811751818 -16.392914729960122" fill="#ffc912" stroke="none" /><path d="M 97.2962882734958 120.8252237178851 l -1.9271110262519058 14.843490101952927 a35.968064514635024,35.968064514635024 0 0,0 -0.6132921682399197,-0.08499670618708485 l 2.1823317856786564 -14.808118830273237" fill="#ffb510" stroke="none" /><path d="M 95.86986931433489 120.58985236759428 l -3.2082454006488854 15.993997329829353 a37.31259602691654,37.31259602691654 0 0,0 -0.6286435747885243,-0.13173837328392773 l 3.4830804368667967 -15.936402975818885" fill="#ffc612" stroke="none" /><path d="M 95.51606077576429 120.51570834832081 l -3.4544566252856086 15.805438272496655 a37.17853978459372,37.17853978459372 0 0,0 -0.624032673765005,-0.14202780487295402 l 3.7260094484434765 -15.743633734046014" fill="#ffc512" stroke="none" /><path d="M 95.16358092515715 120.4354850818985 l -3.0853671477990248 13.036706154971776 a34.39683536540613,34.39683536540613 0 0,0 -0.5749950509644949,-0.14131979396698643 l 3.3093154835067304 -12.98166510269076" fill="#ffa00e" stroke="none" /><path d="M 94.46302465271185 120.25689768951611 l -3.9387643826392873 14.409879422943712 a35.93849021306117,35.93849021306117 0 0,0 -0.5953276481191121,-0.16824553992560878 l 4.186223198863013 -14.339945089679581" fill="#ffb410" stroke="none" /><path d="M 94.11515582081647 120.15858648285463 l -6.944891471055685 23.789787982583263 a45.78276679067543,45.78276679067543 0 0,0 -0.7545981583627999,-0.2273542350516301 l 7.353364603858731 -23.666718378425905" fill="#cfff1d" stroke="none" /><path d="M 93.42475214034765 119.94407469862007 l -3.1301600330627406 9.494417069980853 a30.997092443872226,30.997092443872226 0 0,0 -0.5052972825942991,-0.17142427291781334 l 3.293127048594265 -9.439129810164918" fill="#ff720a" stroke="none" /><path d="M 93.08242187328487 119.8279376855182 l -5.3885134469249305 15.44516113675463 a37.35815025325316,37.35815025325316 0 0,0 -0.6053451324875082,-0.21705522736181623 l 5.653578140042165 -15.350118368352856" fill="#ffc712" stroke="none" /><path d="M 92.7421414339146 119.70592522655815 l -4.9457121308028045 13.428180303360143 a35.309999816223595,35.309999816223595 0 0,0 -0.568541068705435,-0.21497358405898315 l 5.176123420268523 -13.341058469194527" fill="#ffac0f" stroke="none" /><path d="M 92.06813273071674 119.44442032107085 l -6.232067155119866 15.277478696922387 a37.499697462706436,37.499697462706436 0 0,0 -0.5955818744772949,-0.2489532718346304 l 6.494120489094624 -15.167940382067783" fill="#ffc912" stroke="none" /><path d="M 91.7346041902142 119.30500536409082 l -10.053015404103055 23.48024471758803 a46.541828648570835,46.541828648570835 0 0,0 -0.733763677579226,-0.32166043292397095 l 10.455699756340024 -23.303719731369604" fill="#c6ff1e" stroke="none" /><path d="M 90.7491055286396 118.85261126421891 l -7.5048390153658175 15.294284568401196 a38.03636548990987,38.03636548990987 0 0,0 -0.5853001368578418,-0.29348163925204795 l 7.76699305990642 -15.162835088239845" fill="#ffd013" stroke="none" /><path d="M 90.42595943632237 118.69057910512821 l -6.444693514773892 12.58142297862987 a35.13599231276547,35.13599231276547 0 0,0 -0.5359227612637093,-0.28036945941924163 l 6.660307178564097 -12.468624100265911" fill="#ffaa0f" stroke="none" /><line stroke="#e1ed5e" stroke-width="0.3" x1="58.666819895761336" x2="56.23545636021788" y1="174.27360380694188" y2="178.64263932499728" /><path d="M 58.180547188652646 175.14741091055294 a86.0,86.0 0 0,1 -31.652253787137756,-30.449443065178592" fill="none" id="id32" stroke="none" /><text fill="#e1ed5e" style="font-size:6.75px; font-family:Arial;" text-anchor="middle"><textPath startOffset="22.20632615414155" xlink:href="#id32">August</textPath></text><path d="M 89.7882731507175 118.34994917583269 l -0.9977360390513701 1.7928804674966083 a23.051803493113503,23.051803493113503 0 0,0 -0.345064897750012,-0.1959368545830942 l 1.0284497037225893 -1.7754404471188812" fill="#ff0000" stroke="none" /><path d="M 88.54995079064634 117.60387380957326 l -10.091488301932783 15.515154858276572 a39.50832694827788,39.50832694827788 0 0,0 -0.5668980247604724,-0.3757090988067755 l 10.357061025433218 -15.339147738378477" fill="#ffe215" stroke="none" /><path d="M 88.24862548938628 117.40417183066458 l -8.264976189464159 12.24070134501001 a35.76971905048093,35.76971905048093 0 0,0 -0.5073221218171043,-0.348940781395887 l 8.474455195904154 -12.096619774249021" fill="#ffb210" stroke="none" /><path d="M 87.65650970185807 116.9893568818739 l -7.695030358913592 10.591300663485477 a34.09156759020667,34.09156759020667 0 0,0 -0.471786758271687,-0.34901656494096384 l 7.876202087603843 -10.457274149804746" fill="#ff9c0e" stroke="none" /><path d="M 87.36589467227662 116.77436683061367 l -20.853200263103265 27.68690158360239 a55.66151295764763,55.66151295764763 0 0,0 -0.7603661426731733,-0.5830163345261298 l 21.326695134269922 -27.32384590724889" fill="#61ff29" stroke="none" /><path d="M 86.79598089348748 116.32954008644616 l -9.358487915633539 11.573733901330517 a35.8839716637014,35.8839716637014 0 0,0 -0.4769661141807144,-0.3925106402829917 l 9.556324158358942 -11.410928142190343" fill="#ffb410" stroke="none" /><path d="M 86.51685102203217 116.09983520530335 l -11.160580543279199 13.32652393264527 a38.38260044384583,38.38260044384583 0 0,0 -0.5028751657547991,-0.42856112589997925 l 11.388321185611053 -13.132438416522337" fill="#ffd413" stroke="none" /><path d="M 86.24171649860922 115.8653595955263 l -11.115876277954055 12.81826867074618 a37.966753288187306,37.966753288187306 0 0,0 -0.49005613400343456,-0.43241756040834584 l 11.334874764864077 -12.625027968565545" fill="#ffcf13" stroke="none" /><path d="M 85.97065885151581 115.62618273729859 l -8.928218164467085 9.94444194348393 a34.364318357463745,34.364318357463745 0 0,0 -0.43675485961292915,-0.3989652088986369 l 9.098072573546869 -9.789283967998717" fill="#ffa00e" stroke="none" /><path d="M 85.70375840098266 115.38237550388516 l -8.284851437063889 8.91427966687266 a33.169763568510234,33.169763568510234 0 0,0 -0.41488134624650563,-0.39229620846403024 l 8.437068617701213 -8.770348821662699" fill="#ff900d" stroke="none" /><path d="M 85.44109423537348 115.13401014063109 l -27.00538108763901 28.072144832817404 a59.95299633151842,59.95299633151842 0 0,0 -0.7375647360696008,-0.7218623310432376 l 27.484595776084404 -27.603132398851596" fill="#35ff2f" stroke="none" /><path d="M 84.9287848128048 114.62390073753433 l -8.647635072090825 8.390972813932184 a33.04948202638621,33.04948202638621 0 0,0 -0.3926490117096312,-0.41169091898748594 l 8.790790635179414 -8.240874778362198" fill="#ff8e0d" stroke="none" /><path d="M 84.67929136418377 114.36230785411682 l -14.314029075364049 13.418602043808463 a40.62015059015776,40.62015059015776 0 0,0 -0.47381199022921683,-0.5142293363892325 l 14.542887473588996 -13.170221452617886" fill="#fff016" stroke="none" /><path d="M 84.19399662182784 113.82643327865904 l -14.223382177131738 12.442022183834428 a39.89731506272192,39.89731506272192 0 0,0 -0.44771910202595316,-0.5207984638409383 l 14.43544378872847 -12.19534662083196" fill="#ffe715" stroke="none" /><path d="M 83.95833913139862 113.55231037782056 l -9.996491074073642 8.445232126190088 a34.08632031776951,34.08632031776951 0 0,0 -0.3747937004896764,-0.45146315632390827 l 10.140380774456855 -8.27190771275242" fill="#ff9c0e" stroke="none" /><path d="M 83.72743513129214 113.27417163493432 l -29.383870222718656 23.969579459785283 a58.92034505044136,58.92034505044136 0 0,0 -0.634325458640563,-0.7914185416521173 l 29.792113593414083 -23.460233084554908" fill="#3fff2d" stroke="none" /><path d="M 83.28015986056508 112.70617746262583 l -11.874827483844365 9.024228945342808 a35.914698650292216,35.914698650292216 0 0,0 -0.36981661634128227,-0.49542979215686167 l 12.028405366880731 -8.818486273676637" fill="#ffb410" stroke="none" /><path d="M 83.06392112726016 112.41649034213515 l -8.279268726561531 6.069850108501672 a31.265932543432065,31.265932543432065 0 0,0 -0.3144760363520939,-0.43677970964164714 l 8.382524555289232 -5.926436793408887" fill="#ff760a" stroke="none" /><path d="M 82.85270091963577 112.12312394758628 l -15.415714204911524 10.89889510708524 a39.879358013522534,39.879358013522534 0 0,0 -0.3914616516125725,-0.5639297057375189 l 15.601036763686231 -10.631924139160708" fill="#ffe715" stroke="none" /><path d="M 82.6465618267979 111.8261652097733 l -11.09920251564038 7.563976736863201 a34.431531579049555,34.431531579049555 0 0,0 -0.32955385349244437,-0.4926382965171883 l 11.227759474543555 -7.371801526140192" fill="#ffa10e" stroke="none" /><path d="M 82.44556493220864 111.52570212397912 l -10.201922050960771 6.698268226652877 a33.20434393034165,33.20434393034165 0 0,0 -0.3095832883960385,-0.4804801385338186 l 10.315710202733854 -6.521666488197609" fill="#ff900d" stroke="none" /><path d="M 82.24976979558568 111.22182372390057 l -36.11093071073832 22.82959118136483 a63.72223718748815,63.72223718748815 0 0,0 -0.5781590201753349,-0.9321764303623404 l 36.498554370581616 -22.204618419637228" fill="#33ff56" stroke="none" /><line stroke="#e1ed5e" stroke-width="0.3" x1="26.63291911575756" x2="22.317208475507996" y1="142.92168965132927" y2="145.44649492493687" /><path d="M 25.769776987707644 143.4266507060508 a86.0,86.0 0 0,1 -11.730757126820373,-40.83630448921669" fill="none" id="id33" stroke="none" /><text fill="#e1ed5e" style="font-size:6.75px; font-family:Arial;" text-anchor="middle"><textPath startOffset="21.46611528233685" xlink:href="#id33">September</textPath></text><path d="M 81.87401531095188 110.60418214915194 l -10.07315020457332 5.893060234658734 a32.67032621537254,32.67032621537254 0 0,0 -0.2797949026135911,-0.4878459966893294 l 10.173097103339288 -5.718794392111098" fill="#ff890c" stroke="none" /><path d="M 81.69416730710424 110.29060199501025 l -16.798211592444062 9.443094593172765 a40.27049423860558,40.27049423860558 0 0,0 -0.3344821046790286,-0.6071821768872933 l 16.95827010657461 -9.152541897887648" fill="#ffec16" stroke="none" /><path d="M 81.51974371655577 109.97397251340807 l -13.948136038715798 7.527943516024652 a36.8499347801491,36.8499347801491 0 0,0 -0.2964620977706059,-0.5607945643233897 l 14.07565064471129 -7.286733936615136" fill="#ffc011" stroke="none" /><path d="M 81.35079622478065 109.6543875284942 l -11.929496669577302 6.175705153751289 a34.43325072108483,34.43325072108483 0 0,0 -0.2679584588772702,-0.5287074605904424 l 12.03403379824084 -5.969443481458161" fill="#ffa10e" stroke="none" /><path d="M 80.87730276802145 108.67885076344099 l -30.23838925121092 13.723716087458278 a54.206935536976445,54.206935536976445 0 0,0 -0.3783099843971764,-0.852989143896527 l 30.470140320339375 -13.201178607069057" fill="#70ff27" stroke="none" /><path d="M 80.45479744820244 107.68017299344265 l -17.96152377960272 7.05787568522772 a40.29844412571549,40.29844412571549 0 0,0 -0.2481342547112554,-0.6478002395301105 l 18.080352313907486 -6.747651878864452" fill="#ffec16" stroke="none" /><path d="M 80.32549172779594 107.34259656027581 l -11.613216665496497 4.334093821408616 a33.39561093986649,33.39561093986649 0 0,0 -0.19635941618962036,-0.5402967803402979 l 11.686100342691342 -4.1335492440622" fill="#ff930d" stroke="none" /><path d="M 79.86692584326677 105.97154293290107 l -11.623965014712383 3.4477102500852244 a33.12449044833638,33.12449044833638 0 0,0 -0.15743181172094697,-0.5480407897139947 l 11.681589463319433 -3.247111984866634" fill="#ff8f0d" stroke="none" /><path d="M 79.76711848015287 105.62410040840567 l -27.618919897835998 7.677185205912117 a49.66607592624001,49.66607592624001 0 0,0 -0.2218700058664781,-0.825660829497261 l 27.746977980044253 -7.200633443239317" fill="#a2ff22" stroke="none" /><path d="M 79.67330655649465 105.27499134158121 l -17.996548670765115 4.67029419617497 a39.59267091996315,39.59267091996315 0 0,0 -0.16551374017199147,-0.6611451169300728 l 18.074273725232164 -4.359821239847506" fill="#ffe415" stroke="none" /><path d="M 79.4281124754447 104.21870165774334 l -47.76998663338678 9.7962484755031 a69.76410675022919,69.76410675022919 0 0,0 -0.231118742024105,-1.1784694863337921 l 47.93153530838655 -8.972515262101354" fill="#3bff9c" stroke="none" /><path d="M 79.29508885075956 103.50808413554451 l -13.034396623736733 2.208449950957805 a34.220164391215604,34.220164391215604 0 0,0 -0.09340189468441462,-0.5816136873589302 l 13.070480272782437 -1.983757033905661" fill="#ff9e0e" stroke="none" /><path d="M 79.18660465613746 102.79330883721812 l -18.015779525994382 2.417848473443468 a39.1773018671576,39.1773018671576 0 0,0 -0.08394854551441577,-0.6691525054605804 l 18.054729580755644 -2.1073782136954793" fill="#ffde14" stroke="none" /><path d="M 79.10278846688536 102.07522291339032 l -13.41469823607916 1.3321628635291365 a34.48068198052426,34.48068198052426 0 0,0 -0.05356886525030369,-0.5911279642155628 l 13.435641697606538 -1.1010535107650075" fill="#ffa10e" stroke="none" /><path d="M 79.07016306316243 101.71520430193888 l -44.6672908328502 3.6604933723882054 a65.81702892959017,65.81702892959017 0 0,0 -0.0828148763242271,-1.1299431907184339 l 44.72368226783876 -2.891077045173011" fill="#36ff6f" stroke="none" /><path d="M 79.0235259727143 100.99374915477108 l -9.490547841837133 0.4496095904331788 a30.50119187902281,30.50119187902281 0 0,0 -0.020331030085837733,-0.5246535476140449 l 9.496881004774172 -0.28617879580513705" fill="#ff6b09" stroke="none" /><path d="M 79.0095281055655 100.63252640178507 l -18.625442885266267 0.5612586715115534 a39.6338974444066,39.6338974444066 0 0,0 -0.014679522374830369,-0.6820997226827682 l 18.632344470326107 -0.24056913303865637" fill="#ffe415" stroke="none" /><line stroke="#e1ed5e" stroke-width="0.3" x1="15.007084014347285" x2="10.007500721073583" y1="101.09737516637583" y2="101.16192664675087" /><path d="M 14.007167355692545 101.11028546245083 a86.0,86.0 0 0,1 10.666146001902534,-42.60595125391555" fill="none" id="id34" stroke="none" /><text fill="#e1ed5e" style="font-size:6.75px; font-family:Arial;" text-anchor="middle"><textPath startOffset="22.20632615414155" xlink:href="#id34">October</textPath></text><path d="M 79.01574976396665 99.18683210126434 l -47.93992218689979 -1.8577364143004538 a68.97590357534733,68.97590357534733 0 0,0 0.05618708709563342,-1.1860206043666761 l 47.90084149157066 2.682668125290139" fill="#3aff93" stroke="none" /><path d="M 79.16333360222342 97.38593545837743 l -11.694811477546855 -1.4671728874863563 a32.78648428400669,32.78648428400669 0 0,0 0.07507168291440443,-0.5593712355783288 l 11.667823795574616 1.6682624651293447" fill="#ff8a0c" stroke="none" /><path d="M 79.21141760316559 97.0276538004421 l -12.324335969088942 -1.7621304079577096 a33.44967311432829,33.44967311432829 0 0,0 0.08640226823019674,-0.5692829933931098 l 12.292177807419444 1.9740125137429114" fill="#ff930d" stroke="none" /><path d="M 79.26566170972629 96.67025291283419 l -25.154099464140327 -4.03952073359823 a46.476390003472524,46.476390003472524 0 0,0 0.13364869883665814,-0.7888021859530377 l 25.080838903783448 4.471908707867096" fill="#c7ff1e" stroke="none" /><path d="M 79.46518482838121 95.60439243477599 l -24.031203597913724 -5.144031706816713 a45.575593758139746,45.575593758139746 0 0,0 0.17081214497526181,-0.7657173530283009 l 23.939097065936426 5.556927229394973" fill="#d1ff1c" stroke="none" /><path d="M 79.54389044137918 95.25157060432595 l -18.591219310715065 -4.315536736027058 a40.0855257401808,40.0855257401808 0 0,0 0.1618065603365789,-0.670792654371282 l 18.514179950117672 4.634914622057736" fill="#ffea16" stroke="none" /><path d="M 79.62865764111835 94.90015583598534 l -12.727868592308878 -3.1863460550272382 a34.12064937743062,34.12064937743062 0 0,0 0.14753714868751494,-0.5685208180836623 l 12.671135111751056 3.4049632986597644" fill="#ff9c0e" stroke="none" /><path d="M 79.81627453868168 94.20196356495316 l -38.37612801275781 -11.02403958478429 a60.92814358342328,60.92814358342328 0 0,0 0.298240660014624,-1.0055192421953294 l 38.18068145563148 11.682988213726158" fill="#30ff34" stroke="none" /><path d="M 80.02781315780177 93.51064311812611 l -11.599673199178332 -3.7689622922780055 a33.196618182445064,33.196618182445064 0 0,0 0.1812578132583018,-0.5419377907123839 l 11.533078092148257 3.968073185912712" fill="#ff900d" stroke="none" /><path d="M 80.2630227832202 92.82701384747504 l -15.917319551290785 -5.7848125106845405 a37.93591206524397,37.93591206524397 0 0,0 0.22832977219298012,-0.6118102710565516 l 15.815385190596176 6.057945918770434" fill="#ffce13" stroke="none" /><path d="M 80.38941819471856 92.48833698450439 l -11.494827254253211 -4.402993731273733 a33.30924073217996,33.30924073217996 0 0,0 0.20969983206369963,-0.5336631995480247 l 11.41733387230782 4.60020593571752" fill="#ff910d" stroke="none" /><path d="M 80.65960295795068 91.81776055985345 l -29.7256894746984 -12.575890157612509 a53.27645624913817,53.27645624913817 0 0,0 0.3645867480791011,-0.8415164814873214 l 29.50481201677662 13.085705783686429" fill="#7aff26" stroke="none" /><path d="M 81.10775173730289 90.83032412892265 l -16.21254738415661 -7.86903720986648 a39.02133289448332,39.02133289448332 0 0,0 0.298494590986208,-0.6017468810413565 l 16.074692780216992 8.146943679406798" fill="#ffdc14" stroke="none" /><path d="M 81.26839172434947 90.50648371742162 l -9.568977348900285 -4.849729982208571 a31.7277774214466,31.7277774214466 0 0,0 0.2510884435352355,-0.4850229530636664 l 9.484079472204934 5.013725657532572" fill="#ff7c0b" stroke="none" /><line stroke="#e1ed5e" stroke-width="0.3" x1="26.266209847984243" x2="21.928928074336255" y1="57.711370442889674" y2="55.22380399835377" /><path d="M 25.398753493254645 57.213857153982495 a86.0,86.0 0 0,1 29.58750427330803,-30.492523968695096" fill="none" id="id35" stroke="none" /><text fill="#e1ed5e" style="font-size:6.75px; font-family:Arial;" text-anchor="middle"><textPath startOffset="21.46611528233685" xlink:href="#id35">November</textPath></text><path d="M 81.96595687620814 89.24020034530311 l -54.002028597194375 -32.219675014886576 a83.88343621874607,83.88343621874607 0 0,0 0.7504939262365782,-1.2336146856417949 l 53.43941887267158 33.14445747373544" fill="#4dd3ff" stroke="none" /><path d="M 83.39014120810768 87.1503855733568 l -11.926328628729475 -9.226371296992276 a36.078568959633245,36.078568959633245 0 0,0 0.384229748849095,-0.4879327618964438 l 11.76574479928641 9.430296452841768" fill="#ffb610" stroke="none" /><path d="M 83.84228863543731 86.58626213691792 l -9.629452764397076 -7.994136807632556 a33.51529399738177,33.51529399738177 0 0,0 0.3723220178784696,-0.4407118327583804 l 9.490420133031483 8.158707590020052" fill="#ff940d" stroke="none" /><path d="M 85.57189188830299 84.74124197986013 l -7.308884582063811 -7.729669085611351 a31.638025099001503,31.638025099001503 0 0,0 0.39892855326266974,-0.3707606134533079 l 7.174748145006286 7.8543342851393065" fill="#ff7b0b" stroke="none" /><path d="M 86.10567301691215 84.25364557470407 l -9.949269132013152 -11.27544487876438 a36.037407139373585,36.037407139373585 0 0,0 0.46866854145018877,-0.4064247408091044 l 9.75370679191619 11.445034612993165" fill="#ffb610" stroke="none" /><path d="M 86.37877921826538 84.01681056812374 l -9.166790375722224 -10.756344780339893 a35.132551037444685,35.132551037444685 0 0,0 0.4636534155917706,-0.3882964015997013 l 8.980279423171343 10.912542339333406" fill="#ffaa0f" stroke="none" /><line stroke="#e1ed5e" stroke-width="0.3" x1="56.762969772571076" x2="54.21961505331055" y1="26.818313649435495" y2="22.513508569990535" /><path d="M 56.25429882871897 25.957352633546506 a86.0,86.0 0 0,1 42.265352541879196,-11.944610805530505" fill="none" id="id36" stroke="none" /><text fill="#e1ed5e" style="font-size:6.75px; font-family:Arial;" text-anchor="middle"><textPath startOffset="22.20632615414155" xlink:href="#id36">December</textPath></text><path d="M 93.59665428221793 80.00007090966166 l -3.399367722919452 -10.617436010299098 a32.14834733709094,32.14834733709094 0 0,0 0.5284799878066612,-0.16420130472029063 l 3.216102362402062 10.674377449901915" fill="#ff820b" stroke="none" /><path d="M 96.04723909329186 79.375362276772 l -2.784769891863995 -14.530317294116202 a35.79476475035425,35.79476475035425 0 0,0 0.606132999247626,-0.11076693130787647 l 2.5342417715134755 14.576099706774814" fill="#ffb310" stroke="none" /><path d="M 98.19473922651362 79.07773832637324 l -1.270155665379482 -14.720604129666766 a35.775299704461425,35.775299704461425 0 0,0 0.613988999618604,-0.04765736330292831 l 1.0165764763985439 14.740286755158156" fill="#ffb210" stroke="none" /><path d="M 99.63851952072746 79.00311137660856 l -0.2598329906429111 -15.092611297271631 a36.0948477618543,36.0948477618543 0 0,0 0.6213134699154431,-0.00534784119122509 l 3.6971713990342905e-15 15.094847761854297" fill="#ffb710" stroke="none" /></svg>