<?xml version="1.0" encoding="utf-8" ?>
<svg baseProfile="full" height="200mm" version="1.1" viewBox="0,0,200,200" width="200mm" xmlns="http://www.w3.org/2000/svg" xmlns:ev="http://www.w3.org/2001/xml-events" xmlns:xlink="http://www.w3.org/1999/xlink"><defs /><rect fill="#1a1a1a" height="200" width="200" x="0" y="0" /><text alignment-baseline="middle" fill="#e1ed5e" style="dominant-baseline: central; font-size:9.0px; font-family:Arial;" text-anchor="middle" x="100.0" y="100.0">2012</text><line stroke="#e1ed5e" stroke-width="0.3" x1="100.0" x2="100.0" y1="15.0" y2="10.0" /><path d="M 100.0 14.0 a86.0,86.0 0 0,1 42.35913384403234,11.155469271406648" fill="none" id="id1" stroke="none" /><text fill="#e1ed5e" style="font-size:6.75px; font-family:Arial;" text-anchor="middle"><textPath startOffset="22.145653131862478" xlink:href="#id1">January</textPath></text><line stroke="#e1ed5e" stroke-width="0.3" x1="143.13028292997686" x2="145.6673583964461" y1="26.7553504044142" y2="22.446841604673864" /><path d="M 143.63769802327073 25.89364864446614 a86.0,86.0 0 0,1 29.32050498858742,28.57503671076993" fill="none" id="id2" stroke="none" /><text fill="#e1ed5e" style="font-size:6.75px; font-family:Arial;" text-anchor="middle"><textPath startOffset="20.669276256404974" xlink:href="#id2">February</textPath></text><line stroke="#e1ed5e" stroke-width="0.3" x1="172.87174338648825" x2="177.1583165268699" y1="56.24261187166439" y2="53.66864786411523" /><path d="M 173.72905801456457 55.72781907015455 a86.0,86.0 0 0,1 12.242430191666344,42.057860355516425" fill="none" id="id3" stroke="none" /><text fill="#e1ed5e" style="font-size:6.75px; font-family:Arial;" text-anchor="middle"><textPath startOffset="22.145653131862474" xlink:href="#id3">March</textPath></text><line stroke="#e1ed5e" stroke-width="0.3" x1="184.99686870605535" x2="189.99668451229388" y1="99.2704041080226" y2="99.22748670261217" /><path d="M 185.99683186730306 99.26182062694052 a86.0,86.0 0 0,1 -10.086455211305974,41.156179273409016" fill="none" id="id4" stroke="none" /><text fill="#e1ed5e" style="font-size:6.75px; font-family:Arial;" text-anchor="middle"><textPath startOffset="21.40746469413373" xlink:href="#id4">April</textPath></text><line stroke="#e1ed5e" stroke-width="0.3" x1="174.33088141563837" x2="178.70328620479359" y1="141.23008692659167" y2="143.65538615756765" /><path d="M 175.20536237346943 141.71514677278685 a86.0,86.0 0 0,1 -30.301960400862466,31.631185727798858" fill="none" id="id5" stroke="none" /><text fill="#e1ed5e" style="font-size:6.75px; font-family:Arial;" text-anchor="middle"><textPath startOffset="22.145653131862474" xlink:href="#id5">May</textPath></text><line stroke="#e1ed5e" stroke-width="0.3" x1="143.1302829299769" x2="145.66735839644613" y1="173.24464959558577" y2="177.55315839532614" /><path d="M 143.63769802327073 174.10635135553383 a86.0,86.0 0 0,1 -40.68552437913181,11.842963189579606" fill="none" id="id6" stroke="none" /><text fill="#e1ed5e" style="font-size:6.75px; font-family:Arial;" text-anchor="middle"><textPath startOffset="21.407464694133747" xlink:href="#id6">June</textPath></text><line stroke="#e1ed5e" stroke-width="0.3" x1="101.45913802915013" x2="101.54496967792366" y1="184.9874750549273" y2="189.98673829345242" /><path d="M 101.47630435890484 185.9873277026323 a86.0,86.0 0 0,1 -42.54439059252881,-10.42667462771756" fill="none" id="id7" stroke="none" /><text fill="#e1ed5e" style="font-size:6.75px; font-family:Arial;" text-anchor="middle"><textPath startOffset="22.145653131862474" xlink:href="#id7">July</textPath></text><path d="M 100.0 121.0 l 2.396639642671824e-15 19.57004782391509 a40.57004782391509,40.57004782391509 0 0,0 -0.6964388191095695,-0.005978089654021945 l 0.33594589426071503 -19.567164132455503" fill="#fff517" stroke="none" /><path d="M 99.27912038922189 120.98762331915562 l -0.30780532671729216 8.961416242303239 a29.96670090874965,29.96670090874965 0 0,0 -0.5139635098624314,-0.02207180456236883 l 0.46159459718056234 -8.95481186931504" fill="#ff6a09" stroke="none" /><path d="M 98.91894614982273 120.97215588758144 l -0.6658105437191402 12.916546675434798 a33.93369559324841,33.93369559324841 0 0,0 -0.5814872386785123,-0.03498082831870484 l 0.8874421345300987 -12.9032138692914" fill="#ffa00e" stroke="none" /><path d="M 97.12497278360702 120.80226474461374 l -2.6100886748771446 18.885301437192012 a40.06481505979873,40.06481505979873 0 0,0 -0.6804816038238737,-0.10000736209111533 l 2.9338953843087032 -18.837713001802012" fill="#ffee16" stroke="none" /><path d="M 94.30408787586889 120.21278271476187 l -3.819050375783923 13.552462492427523 a35.08028356892822,35.08028356892822 0 0,0 -0.5782232819142161,-0.16831237024882664 l 4.051133670079746 -13.48490642787618" fill="#ffaf10" stroke="none" /><path d="M 92.25597844496254 119.51999308798841 l -4.502221602156691 11.348539506262462 a33.20898637398397,33.20898637398397 0 0,0 -0.5280948975228278,-0.21477159741293791 l 4.6963709608699595 -11.269580652270234" fill="#ff960d" stroke="none" /><path d="M 91.92203290615298 119.3841803445677 l -5.200412639391014 12.479097190790533 a34.51932536471898,34.51932536471898 0 0,0 -0.5450189295104989,-0.23263617217918472 l 5.413866644071944 -12.387986368951944" fill="#ffa70f" stroke="none" /><path d="M 90.28995756902619 118.62028667847754 l -6.149368382083479 11.79222469725877 a34.29929677874765,34.29929677874765 0 0,0 -0.5197342783644502,-0.2767292290794223 l 6.350891476234491 -11.684925000456776" fill="#ffa40f" stroke="none" /><path d="M 89.97174638481275 118.45085714620012 l -6.698992580308453 12.325391824508403 a35.0282495422161,35.0282495422161 0 0,0 -0.525850440328665,-0.2916803749965469 l 6.909587208793221 -12.208578534078708" fill="#ffae10" stroke="none" /><line stroke="#e1ed5e" stroke-width="0.3" x1="58.13341422392154" x2="55.67067388415222" y1="173.97424548756322" y2="178.32567169271397" /><path d="M 57.64086615596768 174.84453072859336 a86.0,86.0 0 0,1 -31.369924170532247,-30.572349798747897" fill="none" id="id8" stroke="none" /><text fill="#e1ed5e" style="font-size:6.75px; font-family:Arial;" text-anchor="middle"><textPath startOffset="22.145653131862474" xlink:href="#id8">August</textPath></text><path d="M 89.34428304082925 118.09573695890944 l -0.7711899197915797 1.3096490820263793 a22.51984032399482,22.51984032399482 0 0,0 -0.33143547484304636,-0.1990174797285761 l 0.7935581511920533 -1.2962176017618845" fill="#ff0000" stroke="none" /><path d="M 88.1277618465304 117.32195027204791 l -16.562467080757923 24.165134446151264 a50.29622908501632,50.29622908501632 0 0,0 -0.7079910577609361,-0.49423274367361764 l 16.974853229692624 -23.87725688667252" fill="#98ff23" stroke="none" /><path d="M 87.83215693770417 117.11559508785305 l -7.93012498205391 11.154713904018196 a34.686289654668734,34.686289654668734 0 0,0 -0.48233596470632095,-0.34917404175844724 l 8.120441957134185 -11.016939090886684" fill="#ffaa0f" stroke="none" /><path d="M 87.2517909369889 116.68781488649013 l -2.9323540491321936 3.8385455801435957 a25.830438120947406,25.830438120947406 0 0,0 -0.35005170547317765,-0.2722023234447541 l 2.9978156992405993 -3.7876422050780483" fill="#ff3004" stroke="none" /><path d="M 85.60350026404147 115.28858382429668 l -10.477656196440389 11.126907788657352 a36.28363033798218,36.28363033798218 0 0,0 -0.44979177569851253,-0.43089034641757684 l 10.667120458004215 -10.945405311934193" fill="#ffbe11" stroke="none" /><path d="M 84.3458050057657 113.99807769240083 l -9.166522888503566 8.19676129048497 a33.29683038504852,33.29683038504852 0 0,0 -0.3773465350899479,-0.4293510883843228 l 9.305880487552106 -8.038197924289348" fill="#ff970d" stroke="none" /><path d="M 84.1078160697243 113.72728997021213 l -8.971434822060544 7.7493117240272795 a32.854892448378735,32.854892448378735 0 0,0 -0.36501071540932783,-0.4299817049457984 l 9.103140100976983 -7.5941632366319265" fill="#ff910d" stroke="none" /><path d="M 83.8745106332314 113.45245675266167 l -27.715776274150294 23.121486313637888 a57.09386906152479,57.09386906152479 0 0,0 -0.62138025599927,-0.7579828773027614 l 28.108603349388193 -22.642301154636634" fill="#4fff2b" stroke="none" /><path d="M 82.78059297857968 112.02048342749411 l -28.420168025645175 19.839484503380266 a55.65993502541183,55.65993502541183 0 0,0 -0.5401936193510045,-0.788158634515016 l 28.756551381811505 -19.3486911337952" fill="#5eff2a" stroke="none" /><path d="M 82.37810715431573 111.42229804090323 l -12.74461265885143 8.260903949425666 a36.18774788722122,36.18774788722122 0 0,0 -0.33341376171808984,-0.5241818119746894 l 12.88454411219541 -8.040908462772306" fill="#ffbd11" stroke="none" /><line stroke="#e1ed5e" stroke-width="0.3" x1="26.387840678322732" x2="22.057713659400548" y1="142.50000000000003" y2="145.00000000000006" /><path d="M 25.521815274538298 143.00000000000003 a86.0,86.0 0 0,1 -11.493303480769221,-40.785679425670985" fill="none" id="id9" stroke="none" /><text fill="#e1ed5e" style="font-size:6.75px; font-family:Arial;" text-anchor="middle"><textPath startOffset="21.40746469413373" xlink:href="#id9">September</textPath></text><path d="M 81.4637452351635 109.86951160357371 l -28.502397358690295 15.17592118958687 a53.290791863087335,53.290791863087335 0 0,0 -0.42300690483390907,-0.8111715155700884 l 28.758712332499154 -14.684403430912278" fill="#77ff27" stroke="none" /><path d="M 81.1358732173502 109.22738970284198 l -18.021437820702225 8.815188303871016 a41.0618983637676,41.0618983637676 0 0,0 -0.3042896710925805,-0.6358483804462169 l 18.17010674975472 -8.504527421359695" fill="#fffb17" stroke="none" /><path d="M 80.41425534168474 107.57618678355246 l -33.41777666070134 12.926713907965937 a56.83082094235235,56.83082094235235 0 0,0 -0.34414936369062765,-0.9128970745934439 l 33.63475670820641 -12.351148553178348" fill="#52ff2b" stroke="none" /><path d="M 80.28708602549918 107.23885506374661 l -13.848838898742516 5.085485470024824 a35.75305057637767,35.75305057637767 0 0,0 -0.2066182923028329,-0.5779481368297698 l 13.934097361089293 -4.847002376814132" fill="#ffb811" stroke="none" /><path d="M 80.16572619554312 106.89939002012753 l -31.327800722390766 10.897435307565344 a54.16903969644583,54.16903969644583 0 0,0 -0.29796732306498286,-0.8808874453180437 l 31.510253467028118 -10.358046187773137" fill="#6eff28" stroke="none" /><path d="M 79.56144815229197 104.8234425847677 l -33.9960397956372 8.022972825353202 a55.92991289343425,55.92991289343425 0 0,0 -0.2125047410915183,-0.9363350990053549 l 34.12875539828639 -7.438203392408822" fill="#5bff2a" stroke="none" /><path d="M 79.48165901384964 104.47187691870673 l -32.81196934212181 7.151216000230677 a54.58221586480405,54.58221586480405 0 0,0 -0.1916675021975816,-0.9171983824322808 l 32.92989455514376 -6.586901166512987" fill="#69ff28" stroke="none" /><path d="M 79.22317932658666 103.0534771498775 l -32.38456363925268 4.759415631273589 a53.7324303903028,53.7324303903028 0 0,0 -0.12628524183698975,-0.913737101009627 l 32.46149339764489 -4.202790222063876" fill="#72ff27" stroke="none" /><path d="M 79.13060592940153 102.33845913500099 l -32.93144232057176 3.690036800435509 a54.13753558884114,54.13753558884114 0 0,0 -0.0955594724389047,-0.9244512112812043 l 32.98993418549233 -3.1241810668713734" fill="#6eff28" stroke="none" /><path d="M 79.0935383218832 101.97986365728391 l -5.336592273077496 0.5053808366945054 a26.360468904785147,26.360468904785147 0 0,0 -0.038795552277893386,-0.45086312437653137 l 5.344481448053131 -0.413696664942312" fill="#ff3805" stroke="none" /><path d="M 79.03789590574601 101.26102812881392 l -13.477520628594242 0.8107741733801377 a34.50188568513315,34.50188568513315 0 0,0 -0.03049048376509998,-0.5915072394447397 l 13.489452701815914 -0.5792951405586672" fill="#ffa70f" stroke="none" /><line stroke="#e1ed5e" stroke-width="0.3" x1="15.003131293944662" x2="10.003315487706104" y1="100.72959589197737" y2="100.7725132973878" /><path d="M 14.003168132696942 100.73817937305945 a86.0,86.0 0 0,1 10.791469493833604,-42.45332614584628" fill="none" id="id10" stroke="none" /><text fill="#e1ed5e" style="font-size:6.75px; font-family:Arial;" text-anchor="middle"><textPath startOffset="22.145653131862435" xlink:href="#id10">October</textPath></text><path d="M 79.13060592940154 97.66154086499901 l -29.658475216193672 -3.3232940096338766 a50.844085431187914,50.844085431187914 0 0,0 0.104636918970054,-0.8665437936603404 l 29.59705621096395 3.831931480217653" fill="#92ff23" stroke="none" /><path d="M 79.17382384314186 97.30363454192245 l -19.77229369315523 -2.5599192736892413 a40.93732139922993,40.93732139922993 0 0,0 0.09621339469494415,-0.6961521953636477 l 19.725435781905077 2.8989597772529563" fill="#fff917" stroke="none" /><path d="M 79.22317932658666 96.9465228501225 l -31.06703663803276 -4.565784533628322 a52.400750848927,52.400750848927 0 0,0 0.13843406990156576,-0.8888460346692095 l 30.984081075992925 5.098418750228981" fill="#81ff25" stroke="none" /><path d="M 79.56144815229197 95.17655741523228 l -32.227869820199196 -7.605689525627082 a54.11317119075036,54.11317119075036 0 0,0 0.22112309847263245,-0.9022577002107165 l 32.092559195210264 8.157803050445917" fill="#6eff28" stroke="none" /><path d="M 79.64726062577567 94.8264132398404 l -35.54762285836885 -9.036066722699472 a57.67811326524177,57.67811326524177 0 0,0 0.2521646440516995,-0.9575102264408566 l 35.38726873351242 9.644957453513113" fill="#4aff2c" stroke="none" /><path d="M 79.94057633289273 93.78553927170692 l -16.60764017509002 -5.145089378961337 a38.38636410819596,38.38636410819596 0 0,0 0.20040475901332183,-0.6277650532738961 l 16.516870700299442 5.429423465926625" fill="#ffd914" stroke="none" /><path d="M 80.41425534168474 92.42381321644754 l -31.863227440299543 -12.325380873993703 a55.16402020549203,55.16402020549203 0 0,0 0.34921799715777185,-0.8802574789176069 l 31.64695076817564 12.870539370124893" fill="#63ff29" stroke="none" /><path d="M 80.5471966667186 92.08871423366112 l -13.773082264763648 -5.601392653439149 a35.86853707430388,35.86853707430388 0 0,0 0.2368590041186238,-0.5683753843918616 l 13.674897416108545 5.837000547272274" fill="#ffb911" stroke="none" /><path d="M 81.63589988554816 89.8137432299009 l -28.06145313580366 -15.565215022894199 a53.08926722132863,53.08926722132863 0 0,0 0.44889916828441245,-0.7931618176710165 l 27.79012060249788 16.04463361066432" fill="#79ff26" stroke="none" /><line stroke="#e1ed5e" stroke-width="0.3" x1="26.387840678322718" x2="22.05771365940052" y1="57.49999999999999" y2="54.99999999999999" /><path d="M 25.521815274538284 56.99999999999999 a86.0,86.0 0 0,1 29.574782752854787,-30.34633250058573" fill="none" id="id11" stroke="none" /><text fill="#e1ed5e" style="font-size:6.75px; font-family:Arial;" text-anchor="middle"><textPath startOffset="21.40746469413373" xlink:href="#id11">November</textPath></text><path d="M 81.81346652052679 89.5 l -12.167762043133925 -7.025060691038684 a35.050121382077364,35.050121382077364 0 0,0 0.30531374590115723,-0.5184894885005141 l 12.045374587102987 7.232901347832771" fill="#ffae10" stroke="none" /><path d="M 82.576782715395 88.27688183743585 l -27.98624203506471 -18.830392627490063 a54.73149017981054,54.73149017981054 0 0,0 0.5311828294303467,-0.775011622730055 l 27.658869468819052 19.308038985290153" fill="#68ff28" stroke="none" /><path d="M 83.2033758604659 87.39550010848427 l -13.406222844217403 -10.060279552713803 a37.761146608378795,37.761146608378795 0 0,0 0.39352153657513456,-0.515132323587878 l 13.231549330287962 10.288932789542564" fill="#ffd113" stroke="none" /><path d="M 84.10781606972428 86.27271002978789 l -24.06997355805409 -20.791069877896533 a52.806166285061764,52.806166285061764 0 0,0 0.5984420633622615,-0.6809172136118854 l 23.70952043073324 21.201199369319717" fill="#7cff26" stroke="none" /><path d="M 84.34580500576568 86.00192230759919 l -24.755365960959857 -22.136400891451927 a54.20916121024624,54.20916121024624 0 0,0 0.626250816430461,-0.688359350252859 l 24.37171744368753 22.558097817262446" fill="#6dff28" stroke="none" /><path d="M 85.34317274990677 84.96080404539775 l -24.357317480236723 -24.992753497276066 a55.89866247019577,55.89866247019577 0 0,0 0.6929504687771757,-0.6638308739147709 l 23.924694525594244 25.407196501496404" fill="#5cff2a" stroke="none" /><path d="M 86.13680546590413 84.22622945171909 l -20.790715147161833 -23.656017338530926 a52.49382467486762,52.49382467486762 0 0,0 0.6819710741445333,-0.5890703711429194 l 20.381564593254453 24.009431842138557" fill="#80ff26" stroke="none" /><path d="M 87.25179093698888 83.31218511350988 l -22.540281912064163 -29.50595257566181 a58.130385751733456,58.130385751733456 0 0,0 0.7981772849989205,-0.598967114975188 l 22.030451638154492 29.888538717901" fill="#45ff2d" stroke="none" /><path d="M 87.83215693770416 82.88440491214696 l -11.160985893411455 -15.69932438763941 a40.26230495920099,40.26230495920099 0 0,0 0.5667492850761267,-0.39563501695076575 l 10.889841517161562 15.888604220395301" fill="#fff116" stroke="none" /><path d="M 88.12776184653039 82.6780497279521 l -9.576757567924101 -13.972775496468598 a37.93967947127409,37.93967947127409 0 0,0 0.5403761408699301,-0.3635891837982239 l 9.33548513895718 14.135114354323932" fill="#ffd413" stroke="none" /><line stroke="#e1ed5e" stroke-width="0.3" x1="56.869717070023135" x2="54.33264160355391" y1="26.7553504044142" y2="22.446841604673864" /><path d="M 56.362301976729285 25.89364864446614 a86.0,86.0 0 0,1 42.16139366436587,-11.88097634709845" fill="none" id="id12" stroke="none" /><text fill="#e1ed5e" style="font-size:6.75px; font-family:Arial;" text-anchor="middle"><textPath startOffset="22.145653131862474" xlink:href="#id12">December</textPath></text><path d="M 89.65649057296885 81.72400993836675 l -31.030528281093464 -54.827970184899776 a84.0,84.0 0 0,0 1.2610232473755896,-0.6994683382674158 l 30.08476084556177 55.352571438600336" fill="#4dd2ff" stroke="none" /><path d="M 90.93487009805054 81.0573650232925 l -6.612369288276261 -13.817308644641935 a36.318010503516305,36.318010503516305 0 0,0 0.5646781104347934,-0.26429786795276033 l 6.3742024639699455 13.92878274416524" fill="#ffbf11" stroke="none" /><path d="M 92.25597844496254 80.48000691201159 l -5.481610872785243 -13.817240252670285 a35.86486414201789,35.86486414201789 0 0,0 0.5742267679260773,-0.22212324962975355 l 5.243611842365636 13.909303390438078" fill="#ffb911" stroke="none" /><path d="M 92.592206182469 80.34994680014964 l -5.121204275831432 -13.584602777312345 a35.517856792659046,35.517856792659046 0 0,0 0.5723632404109988,-0.21017970993588286 l 4.887251883766306 13.670513336256949" fill="#ffb410" stroke="none" /><path d="M 93.27111125876988 80.10723608172694 l -5.013238913396598 -14.8207500532795 a36.645676608717764,36.645676608717764 0 0,0 0.5976338572380543,-0.19645411939088958 l 4.758082318510782 14.904625094072419" fill="#ffc312" stroke="none" /><path d="M 94.6519064749342 79.69241777938228 l -3.49041440845781 -13.253672033140738 a34.70557605884652,34.70557605884652 0 0,0 0.5774259319297627,-0.14677941389000476 l 3.2623831833026697 13.311636678866005" fill="#ffaa0f" stroke="none" /><path d="M 95.35216902796891 79.52079915486377 l -1.7908366788667536 -7.890756838629638 a29.091423823824513,29.091423823824513 0 0,0 0.4879568011815692,-0.10634791370329234 l 1.655117461066066 7.920336210466645" fill="#ff5e08" stroke="none" /><path d="M 95.70440661134978 79.44403061299748 l -3.3802274846104146 -16.17561216998471 a37.52502244844082,37.52502244844082 0 0,0 0.6316774912406106,-0.12635318940803536 l 3.102053507838827 16.231254756055613" fill="#ffce13" stroke="none" /></svg>