<?xml version="1.0" encoding="utf-8" ?>
<svg baseProfile="full" height="200mm" version="1.1" viewBox="0,0,200,200" width="200mm" xmlns="http://www.w3.org/2000/svg" xmlns:ev="http://www.w3.org/2001/xml-events" xmlns:xlink="http://www.w3.org/1999/xlink"><defs /><rect fill="#1a1a1a" height="200" width="200" x="0" y="0" /><text alignment-baseline="middle" fill="#e1ed5e" style="dominant-baseline: central; font-size:9.0px; font-family:Arial;" text-anchor="middle" x="100.0" y="100.0">2016</text><line stroke="#e1ed5e" stroke-width="0.3" x1="100.0" x2="100.0" y1="15.0" y2="10.0" /><path d="M 100.0 14.0 a86.0,86.0 0 0,1 42.35913384403234,11.155469271406648" fill="none" id="id49" stroke="none" /><text fill="#e1ed5e" style="font-size:6.75px; font-family:Arial;" text-anchor="middle"><textPath startOffset="22.145653131862478" xlink:href="#id49">January</textPath></text><path d="M 100.0 79.0 l 0.0 -15.460851529286593 a36.46085152928659,36.46085152928659 0 0,0 0.6258990004891601,0.0053725901495135136 l -0.2654060756403054 15.458573337331515" fill="#ffaa0f" stroke="none" /><path d="M 102.15924093988457 79.11130261209362 l 0.766324972783375 -7.413498957704672 a28.45300078893057,28.45300078893057 0 0,0 0.4854137463999063,0.05439162276029409 l -0.8934746207840779 7.399251574437407" fill="#ff3805" stroke="none" /><path d="M 104.29559338865022 79.4440306129975 l 1.4455433430829006 -6.917448189232461 a28.066872363885366,28.066872363885366 0 0,0 0.47077177592924724,0.10260251743440503 l -1.5640775356312817 6.8916142136643375" fill="#ff3204" stroke="none" /><path d="M 106.38641147887787 79.99465700312896 l 2.1577883236881226 -6.759241190893164 a28.095307740085108,28.095307740085108 0 0,0 0.45819067046516865,0.15061637420502064 l -2.2735017318010335 6.721203895286122" fill="#ff3304" stroke="none" /><path d="M 106.72888874123014 80.10723608172694 l 2.71530622387332 -8.02732037258425 a29.474122978427403,29.474122978427403 0 0,0 0.4778937499138011,0.1662362535348127 l -2.8527057458321394 7.979525686480845" fill="#ff4706" stroke="none" /><path d="M 108.4095320186766 80.7573450057729 l 2.8697611911804555 -6.566575214300443 a28.166270950743517,28.166270950743517 0 0,0 0.4413877267345932,0.1974271159431536 l -2.9820623207706802 6.516344347447437" fill="#ff3404" stroke="none" /><path d="M 108.73861861582097 80.90454125486305 l 2.902505120228301 -6.342497506473606 a27.975084988197306,27.975084988197306 0 0,0 0.43496099900239305,0.2035837100014718 l -3.010954833102199 6.2917375649016005" fill="#ff3104" stroke="none" /><line stroke="#e1ed5e" stroke-width="0.3" x1="143.13028292997686" x2="145.6673583964461" y1="26.7553504044142" y2="22.446841604673864" /><path d="M 143.63769802327073 25.89364864446614 a86.0,86.0 0 0,1 29.32050498858742,28.57503671076993" fill="none" id="id50" stroke="none" /><text fill="#e1ed5e" style="font-size:6.75px; font-family:Arial;" text-anchor="middle"><textPath startOffset="20.669276256404974" xlink:href="#id50">February</textPath></text><path d="M 111.27062007382361 82.28071324371311 l 4.089845617162101 -6.4299166154797875 a28.62041106858699,28.62041106858699 0 0,0 0.4122897885218163,0.2672412597759311 l -4.199621037940926 6.358761513999961" fill="#ff3b05" stroke="none" /><path d="M 112.7482090630111 83.31218511350987 l 8.771738995464235 -11.482487921667252 a35.449599782547,35.449599782547 0 0,0 0.48040969356067287,0.373569483444833 l -8.967558633660133 11.330217386601628" fill="#ff9c0e" stroke="none" /><path d="M 114.91283532996326 85.21462403516908 l 4.9905096964512845 -4.947856023724248 a28.02755051649425,28.02755051649425 0 0,0 0.33581436387439695,0.34457512096589776 l -5.074710861476493 4.861458210690609" fill="#ff3204" stroke="none" /><path d="M 115.16444852881244 85.47280134310134 l 5.709710958510279 -5.469773939365653 a28.906910027153213,28.906910027153213 0 0,0 0.3401987703772251,0.3612793049163084 l -5.802765562623764 5.37095317450485" fill="#ff3f05" stroke="none" /><path d="M 115.41159269507618 85.73525988315684 l 3.224111520022219 -2.9841894897424015 a25.39320862288931,25.39320862288931 0 0,0 0.293354799757848,0.32244831313092853 l -3.274864020621944 2.9284036010538013" fill="#ff0a01" stroke="none" /><path d="M 115.8921839302757 86.27271002978787 l 6.384700587435088 -5.51495230115831 a29.43677073738793,29.43677073738793 0 0,0 0.327036125991779,0.3852477340976761 l -6.478431276933979 5.404537784611081" fill="#ff4706" stroke="none" /><path d="M 116.57777611688842 87.10902102172516 l 5.5340984668453315 -4.303348440514257 a28.010353317858975,28.010353317858975 0 0,0 0.29190525891527,0.3821133542047843 l -5.607155703114908 4.207714173068591" fill="#ff3204" stroke="none" /><path d="M 116.7966241395341 87.39550010848427 l 6.2068485132543705 -4.6577348377898105 a28.760119991704308,28.760119991704308 0 0,0 0.29293959917868523,0.3974288269648898 l -6.285890132016881 4.5504997015560456" fill="#ff3d05" stroke="none" /><path d="M 117.01052211995028 87.68569379921539 l 5.359279905706167 -3.879705355850106 a27.616191862084857,27.616191862084857 0 0,0 0.27469550076615706,0.3863936228876286 l -5.425090505002284 3.7871345062529733" fill="#ff2c04" stroke="none" /><path d="M 117.42321728460499 88.27688183743584 l 8.011388891663888 -5.390419983237839 a30.656033324775002,30.656033324775002 0 0,0 0.2900287914887926,0.4391405559238422 l -8.102742122073405 5.252099548974939" fill="#ff5808" stroke="none" /><path d="M 117.62189284568427 88.57770195909679 l 52.86567853705281 -34.26689412270966 a84.0,84.0 0 0,0 0.7739292334964403,1.2167453012853122 l -53.44612546217514 33.354335146745676" fill="#4dd2ff" stroke="none" /><line stroke="#e1ed5e" stroke-width="0.3" x1="172.87174338648825" x2="177.1583165268699" y1="56.24261187166439" y2="53.66864786411523" /><path d="M 173.72905801456457 55.72781907015455 a86.0,86.0 0 0,1 12.242430191666344,42.057860355516425" fill="none" id="id51" stroke="none" /><text fill="#e1ed5e" style="font-size:6.75px; font-family:Arial;" text-anchor="middle"><textPath startOffset="22.145653131862474" xlink:href="#id51">March</textPath></text><path d="M 118.00360718960297 89.18935116829356 l 7.439624763862573 -4.467280912917923 a29.677823193750726,29.677823193750726 0 0,0 0.25851686134559754,0.43901814774900266 l -7.515215335337939 4.338911596875364" fill="#ff4a06" stroke="none" /><path d="M 118.18653347947321 89.5 l 16.9648233397142 -9.794645321938441 a40.58929064387688,40.58929064387688 0 0,0 0.3432049407525031,0.6064102450474086 l -17.13046164548808 9.501978306791916" fill="#ffe115" stroke="none" /><path d="M 118.53625476483649 90.13048839642627 l 6.65888241854055 -3.5454798248290436 a28.543947391930715,28.543947391930715 0 0,0 0.22657360523040596,0.43448476287896254 l -6.7187640927459 3.430648818845583" fill="#ff3a05" stroke="none" /><path d="M 118.70294669586156 90.45014215332178 l 25.067639860080757 -12.799715526562826 a49.14639027860665,49.14639027860665 0 0,0 0.377210450020746,0.7546735833044851 l -25.28367022331324 12.367510087094592" fill="#b3ff20" stroke="none" /><path d="M 119.31412917781788 91.75594674310238 l 6.8621970273859985 -2.9290638595328176 a28.461177061019697,28.461177061019697 0 0,0 0.18794427106831066,0.4509978318544282 l -6.911467142990793 2.8108335182371116" fill="#ff3805" stroke="none" /><path d="M 119.58574465831526 92.42381321644754 l 6.747418992758597 -2.610046617468039 a28.234639342026373,28.234639342026373 0 0,0 0.17097998942244697,0.45354473558778335 l -6.791229665995485 2.493833601686098" fill="#ff3505" stroke="none" /><path d="M 119.71291397450082 92.76114493625339 l 8.38995052905822 -3.080906047194098 a29.937743112871473,29.937743112871473 0 0,0 0.17301140064029483,0.48394367960322965 l -8.441602099742457 2.9364274112099515" fill="#ff4e07" stroke="none" /><path d="M 120.05942366710727 93.78553927170692 l 5.149627918670736 -1.5953678927663764 a26.3910913935884,26.3910913935884 0 0,0 0.13035148183159942,0.43389768849555066 l -5.176255720505962 1.5067326006801023" fill="#ff1902" stroke="none" /><path d="M 120.16314734710363 94.1308016681162 l 7.351865381093349 -2.1400208652021586 a28.656997707014117,28.656997707014117 0 0,0 0.13343449754319453,0.47351195852682954 l -7.387518370711126 2.013500982772316" fill="#ff3b05" stroke="none" /><path d="M 120.26092885502905 94.47779374421319 l 3.583814814955751 -0.9767846643327907 a24.71454397044537,24.71454397044537 0 0,0 0.10805024350480534,0.41028437398252177 l -3.6000545392652867 0.9151197859774702" fill="#ff0000" stroke="none" /><path d="M 120.51834098615036 95.52812308129327 l 15.224822149694068 -3.318179126109049 a36.58221814129044,36.58221814129044 0 0,0 0.1284598337552921,0.6147268075023822 l -15.279539694273726 3.0563358673212626" fill="#ffab0f" stroke="none" /><path d="M 120.65975698304385 96.23510406497455 l 7.292166123916645 -1.3288755826119687 a28.412259918058716,28.412259918058716 0 0,0 0.08332258154817722,0.4805825082554975 l -7.313903522957056 1.2035000414358785" fill="#ff3805" stroke="none" /><path d="M 120.7213421655516 96.59031103205396 l 7.376991520881656 -1.2138811474865727 a28.476196314930686,28.476196314930686 0 0,0 0.0752293752919136,0.4830265552866025 l -7.396742388311835 1.087066410268529" fill="#ff3905" stroke="none" /><path d="M 120.82617615685814 97.30363454192243 l 11.26617278500018 -1.4586316236552421 a32.360204902861824,32.360204902861824 0 0,0 0.06659716876721389,0.5515200928946772 l -11.289552040027056 1.2650178538371522" fill="#ff710a" stroke="none" /><path d="M 120.86939407059847 97.66154086499901 l 11.352154289767048 -1.2720325664963155 a32.423198933263116,32.423198933263116 0 0,0 0.05723097202605051,0.5536577385994779 l -11.372317654274765 1.0769703056139062" fill="#ff720a" stroke="none" /><path d="M 120.96210409425399 98.7389718711861 l 7.360371624822327 -0.44278167953420916 a28.373677920225482,28.373677920225482 0 0,0 0.025074779212882085,0.4864440179488112 l -7.3668879934917815 0.3163658682086673" fill="#ff3705" stroke="none" /><path d="M 120.98066250479742 99.09900007780936 l 7.396789709708084 -0.31764997656216165 a28.40360719631001,28.40360719631001 0 0,0 0.016738263308233962,0.4873162731719989 l -7.4011526600131665 0.19062743882604277" fill="#ff3705" stroke="none" /><line stroke="#e1ed5e" stroke-width="0.3" x1="184.99686870605535" x2="189.99668451229388" y1="99.2704041080226" y2="99.22748670261217" /><path d="M 185.99683186730306 99.26182062694052 a86.0,86.0 0 0,1 -10.086455211305974,41.156179273409016" fill="none" id="id52" stroke="none" /><text fill="#e1ed5e" style="font-size:6.75px; font-family:Arial;" text-anchor="middle"><textPath startOffset="21.40746469413373" xlink:href="#id52">April</textPath></text><path d="M 120.99922638620191 99.81974689727618 l 6.043451994197753 -0.05187576690122443 a27.043674635630577,27.043674635630577 0 0,0 0.0,0.4642577392501019 l -6.043451994197753 -0.0518757669012237" fill="#ff2303" stroke="none" /><path d="M 120.99922638620191 100.18025310272382 l 13.1868355236215 0.11319312314302149 a34.187321328085275,34.187321328085275 0 0,0 -0.010074789357007608,0.5868059717840329 l -13.182949302665824 -0.3395460108961255" fill="#ff8a0c" stroke="none" /><path d="M 120.98066250479742 100.90099992219065 l 7.879698504708808 0.33838815804815403 a28.88696107956781,28.88696107956781 0 0,0 -0.02552838490793458,0.49524384725109427 l -7.872728530344301 -0.47360379867597896" fill="#ff3f05" stroke="none" /><path d="M 120.96210409425399 101.26102812881392 l 7.343868330378509 0.4417888823217651 a28.3571447906426,28.3571447906426 0 0,0 -0.03340206832329425,0.48565874267438164 l -7.335202300890149 -0.5677910491504903" fill="#ff3705" stroke="none" /><path d="M 120.86939407059847 102.33845913500097 l 6.430527077693161 0.7205539718514457 a27.47077093732237,27.47077093732237 0 0,0 -0.056534733749987465,0.4681886961074447 l -6.417210257683509 -0.8308363448822988" fill="#ff2a04" stroke="none" /><path d="M 120.82617615685814 102.69636545807757 l 12.031872644688645 1.5577668003371585 a33.13229560892083,33.13229560892083 0 0,0 -0.07786954606733207,0.5634252446722195 l -12.003358582066102 -1.764080353209463" fill="#ff7c0b" stroke="none" /><path d="M 120.77682067341334 103.0534771498775 l 26.634928420604474 3.9144172536951007 a47.9210340515878,47.9210340515878 0 0,0 -0.12659940306539827,0.812858983963855 l -26.56380752540081 -4.3710644195904065" fill="#c2ff1e" stroke="none" /><path d="M 120.7213421655516 103.40968896794604 l 4.418433127027093 0.7270514896413101 a25.477851624004536,25.477851624004536 0 0,0 -0.07471705438905207,0.43094811443152015 l -4.405301255145806 -0.8027926369934183" fill="#ff0c01" stroke="none" /><path d="M 120.65975698304385 103.76489593502545 l 8.447502862282896 1.539416422633979 a29.586623756200858,29.586623756200858 0 0,0 -0.09534459659213622,0.4988832181616726 l -8.4198319734086 -1.684202205828966" fill="#ff4906" stroke="none" /><path d="M 120.592083275326 104.11899336999214 l 7.668520986095236 1.533918966674913 a28.820429752290348,28.820429752290348 0 0,0 -0.10120402214092783,0.4842978822127522 l -7.641059253129943 -1.6653333001730743" fill="#ff3e05" stroke="none" /><path d="M 120.51834098615036 104.47187691870673 l 9.582644469214493 2.088492761231418 a30.807592825820368,30.807592825820368 0 0,0 -0.11705291852640459,0.5157567567402429 l -9.545380689130425 -2.2526838519106773" fill="#ff5b08" stroke="none" /><path d="M 120.43855184770803 104.8234425847677 l 22.568049866985174 5.325998318994627 a44.18799544791794,44.18799544791794 0 0,0 -0.18056577084154748,0.736769963253918 l -22.47329656962733 -5.712624106856644" fill="#efff19" stroke="none" /><path d="M 120.26092885502905 105.52220625578681 l 14.904161849379733 4.062195587912288 a36.447830702948565,36.447830702948565 0 0,0 -0.16971065936879723,0.6022432592784663 l -14.832232697936355 -4.3174467710937625" fill="#ffaa0f" stroke="none" /><path d="M 120.05942366710727 106.21446072829308 l 6.787675886708652 2.102839340469234 a28.105946610750124,28.105946610750124 0 0,0 -0.14673349738185193,0.4596405906451571 l -6.750577673549546 -2.2190489648057743" fill="#ff3304" stroke="none" /><path d="M 119.94978838288452 106.5578916946017 l 7.7390323032596395 2.543973634795139 a29.146436205202185,29.146436205202185 0 0,0 -0.16032563290056612,0.47397424567248814 l -7.694221248786708 -2.6764495549417875" fill="#ff4206" stroke="none" /><path d="M 119.71291397450082 107.23885506374661 l 13.500507694259767 4.9575734268488345 a35.38197629970808,35.38197629970808 0 0,0 -0.21426198720607356,0.5683553769195255 l -13.413415023239253 -5.188597083962519" fill="#ff9b0e" stroke="none" /><path d="M 119.16976305983485 108.57439118712176 l 5.8616040985159215 2.6218209566719977 a27.421241915438408,27.421241915438408 0 0,0 -0.19588629906111713,0.4280469152970047 l -5.815733334599748 -2.722056854183691" fill="#ff2904" stroke="none" /><path d="M 119.0197475246899 108.90220220490707 l 6.1875567693642655 2.8960889961193277 a27.831777971183563,27.831777971183563 0 0,0 -0.2062477114366934,0.43097839245375014 l -6.1369297999676595 -3.0018798906381816" fill="#ff2f04" stroke="none" /><path d="M 118.70294669586154 109.54985784667822 l 6.780226307536187 3.4620318636531233 a28.612958255918347,28.612958255918347 0 0,0 -0.22712139352467609,0.4355352191618253 l -6.719796845036561 -3.5779133259194515" fill="#ff3b05" stroke="none" /><line stroke="#e1ed5e" stroke-width="0.3" x1="174.33088141563837" x2="178.70328620479359" y1="141.23008692659167" y2="143.65538615756765" /><path d="M 175.20536237346943 141.71514677278685 a86.0,86.0 0 0,1 -30.301960400862466,31.631185727798858" fill="none" id="id53" stroke="none" /><text fill="#e1ed5e" style="font-size:6.75px; font-family:Arial;" text-anchor="middle"><textPath startOffset="22.145653131862474" xlink:href="#id53">May</textPath></text><path d="M 118.36410011445183 110.18625677009912 l 36.2686069896291 20.11758491772965 a62.47443882550114,62.47443882550114 0 0,0 -0.5282559940200948,0.9333777249217856 l -35.917917630587624 -20.73721941275056" fill="#31ff40" stroke="none" /><path d="M 117.81537515405839 111.11811171558189 l 6.3958045831255435 3.99145509153208 a28.539100079800445,28.539100079800445 0 0,0 -0.26294337915997806,0.41339066577391037 l -6.326343512339676 -4.1006594319846625" fill="#ff3905" stroke="none" /><path d="M 117.62189284568427 111.42229804090321 l 6.24973892835657 4.05100526615714 a28.447810439253164,28.447810439253164 0 0,0 -0.2691373666902586,0.4075082760630222 l -6.179277122745585 -4.157693420559223" fill="#ff3805" stroke="none" /><path d="M 116.79662413953412 112.60449989151573 l 6.243427346651473 4.685184276305276 a28.805852723172123,28.805852723172123 0 0,0 -0.30019542424234974,0.39296544673581607 l -6.162079945054819 -4.791670636281969" fill="#ff3d05" stroke="none" /><path d="M 116.35404254752997 113.17365903436017 l 4.516465992736107 3.6381452998955783 a26.79953155752204,26.79953155752204 0 0,0 -0.2916722943041162,0.3557927737993514 l -4.453346879193363 -3.7151403553934226" fill="#ff2003" stroke="none" /><path d="M 116.1254893667686 113.45245675266167 l 5.793851875159993 4.833437299741082 a28.54525252604731,28.54525252604731 0 0,0 -0.31713155239948143,0.37358017131064297 l -5.710025759253396 -4.932184253501282" fill="#ff3a05" stroke="none" /><path d="M 115.6541949942343 113.99807769240083 l 9.156750873351283 8.188023094278567 a33.283721290759516,33.283721290759516 0 0,0 -0.3845098718893492,0.42264370542174623 l -9.014843300620054 -8.344004375257983" fill="#ff7e0b" stroke="none" /><path d="M 114.91283532996324 114.78537596483092 l 4.9612185122453125 4.918815190015703 a27.986303171189668,27.986303171189668 0 0,0 -0.34117713035794967,0.33826110403090154 l -4.876049461757399 -5.003256304275267" fill="#ff3104" stroke="none" /><path d="M 114.65682725009322 115.03919595460226 l 5.170205404422894 5.305086215174229 a28.407763743151865,28.407763743151865 0 0,0 -0.35215821511334483,0.3373596039374772 l -5.078374703444236 -5.393057949417287" fill="#ff3705" stroke="none" /><path d="M 114.39649973595853 115.28858382429668 l 4.911210407608499 5.215535260139506 a28.16392320712335,28.16392320712335 0 0,0 -0.35482550493354714,0.32842119012928317 l -4.820955131360984 -5.299074196401169" fill="#ff3404" stroke="none" /><path d="M 113.31354834802062 116.24036423190432 l 4.752034149558883 5.796708992517224 a28.495576275544387,28.495576275544387 0 0,0 -0.3809576708401061,0.3068725330502178 l -4.651825708363524 -5.877429819360845" fill="#ff3905" stroke="none" /><path d="M 112.7482090630111 116.68781488649013 l 4.939805360439733 6.466363786697973 a29.137293015551798,29.137293015551798 0 0,0 -0.40007863582216974,0.300226466933263 l -4.828073735706797 -6.550209280895251" fill="#ff4206" stroke="none" /><path d="M 111.27062007382361 117.71928675628689 l 4.103184671417142 6.450887824326731 a28.645265081722115,28.645265081722115 0 0,0 -0.41717855249133534,0.26035027114693 l -3.9918419901360918 -6.520373892315209" fill="#ff3b05" stroke="none" /><path d="M 110.96478420261333 117.91015095944535 l 3.799587750519086 6.206341040367855 a28.277055461053532,28.277055461053532 0 0,0 -0.4161672182866809,0.2498964571257498 l -3.692487775674968 -6.270651498029528" fill="#ff3605" stroke="none" /><line stroke="#e1ed5e" stroke-width="0.3" x1="143.1302829299769" x2="145.66735839644613" y1="173.24464959558577" y2="177.55315839532614" /><path d="M 143.63769802327073 174.10635135553383 a86.0,86.0 0 0,1 -40.68552437913181,11.842963189579606" fill="none" id="id54" stroke="none" /><text fill="#e1ed5e" style="font-size:6.75px; font-family:Arial;" text-anchor="middle"><textPath startOffset="21.407464694133747" xlink:href="#id54">June</textPath></text><path d="M 110.34350942703117 118.27599006163325 l 3.7407188784320833 6.609491829429421 a28.594627046192095,28.594627046192095 0 0,0 -0.42926773161052323,0.238107574564009 l -3.6267069586654657 -6.672732319426574" fill="#ff3a05" stroke="none" /><path d="M 109.06512990194946 118.94263497670748 l 3.2680177846000054 6.828900265152681 a28.570589083543254,28.570589083543254 0 0,0 -0.4442199898626863,0.2079173852379455 l -3.150309080865813 -6.88399388196116" fill="#ff3a05" stroke="none" /><path d="M 106.72888874123015 119.89276391827305 l 2.106209562576458 6.226634322844069 a27.573210304859288,27.573210304859288 0 0,0 -0.44967607521292824,0.1478174576242575 l -1.9990107497157958 -6.261872701870345" fill="#ff2b04" stroke="none" /><path d="M 106.38641147887787 120.00534299687104 l 2.5454598009378686 7.97361657183049 a29.370061339844558,29.370061339844558 0 0,0 -0.4816121778814498,0.14920468381251314 l -2.4082069901847944 -8.016137843449648" fill="#ff4606" stroke="none" /><path d="M 104.9986988182912 120.39639698878246 l 1.8651749936662143 7.610550466685409 a28.83577412659166,28.83577412659166 0 0,0 -0.48178790300193014,0.1137006332680092 l -1.734254936924405 -7.641447243599644" fill="#ff3e05" stroke="none" /><path d="M 104.29559338865022 120.5559693870025 l 1.7727151677078485 8.483083807596577 a29.66632736241418,29.66632736241418 0 0,0 -0.49938814209535703,0.09989161459968418 l -1.626830540081533 -8.512264818859123" fill="#ff4a06" stroke="none" /><path d="M 103.58742460773223 120.69131181640829 l 1.136151414717621 6.553019439601946 a27.65078219557413,27.65078219557413 0 0,0 -0.46838120405453726,0.07707194888721991 l -1.0234927076100115 -6.5715573869848365" fill="#ff2c04" stroke="none" /><path d="M 103.2317021107853 120.74984581791261 l 1.3448065979183312 8.634623057796675 a29.7387195936269,29.7387195936269 0 0,0 -0.505097841448549,0.07423198869349609 l -1.1963836508620969 -8.656436119789054" fill="#ff4b07" stroke="none" /><path d="M 102.51750503828377 120.84855314841334 l 0.7738594703598471 6.408666537644367 a27.45522000171863,27.45522000171863 0 0,0 -0.468391411441306,0.05248423462299032 l -0.6637321573177418 -6.421006532774328" fill="#ff2904" stroke="none" /><path d="M 101.08105385017728 120.97215588758144 l 0.5140505966586582 9.972444245457062 a30.985684365363987,30.985684365363987 0 0,0 -0.5314402523122734,0.022822331080955622 l -0.3427845837455552 -9.979799144963847" fill="#ff5d08" stroke="none" /><line stroke="#e1ed5e" stroke-width="0.3" x1="101.45913802915013" x2="101.54496967792366" y1="184.9874750549273" y2="189.98673829345242" /><path d="M 101.47630435890484 185.9873277026323 a86.0,86.0 0 0,1 -42.54439059252881,-10.42667462771756" fill="none" id="id55" stroke="none" /><text fill="#e1ed5e" style="font-size:6.75px; font-family:Arial;" text-anchor="middle"><textPath startOffset="22.145653131862474" xlink:href="#id55">July</textPath></text><path d="M 100.0 121.0 l 1.4878960005503396e-15 12.149592858824853 a33.14959285882485,33.14959285882485 0 0,0 -0.5690568422488759,-0.00488466858517143 l 0.20856391740002228 -12.147802588434116" fill="#ff7c0b" stroke="none" /><path d="M 97.48249496171623 120.84855314841334 l -1.5423326788485157 12.772727100251979 a33.8655100042616,33.8655100042616 0 0,0 -0.5765557571191768,-0.07464668580746453 l 1.7613662578584866 -12.744368818244117" fill="#ff860c" stroke="none" /><path d="M 96.41257539226777 120.69131181640829 l -0.8249120919308661 4.757873734399393 a25.828855188541212,25.828855188541212 0 0,0 -0.4362189432150061,-0.07949362267132055 l 0.9064657686969294 -4.743011937796706" fill="#ff1101" stroke="none" /><path d="M 96.05791012581884 120.62667999033965 l -1.3940211751099536 7.294107845454153 a28.426123100095417,28.426123100095417 0 0,0 -0.4785111627911117,-0.0957156340449294 l 1.5190288234320233 -7.269102814746362" fill="#ff3805" stroke="none" /><path d="M 95.70440661134978 120.55596938700252 l -1.4196577181418768 6.7935761031879585 a27.94032451017143,27.94032451017143 0 0,0 -0.4686491611590426,-0.10213990342459901 l 1.536069295920056 -6.768204741629641" fill="#ff3104" stroke="none" /><path d="M 94.6519064749342 120.30758222061772 l -1.3329370110544885 5.061378941865153 a26.2339543242748,26.2339543242748 0 0,0 -0.43450748766725994,-0.11842694793268276 l 1.4196258996564435 -5.037751499788326" fill="#ff1702" stroke="none" /><path d="M 94.30408787586889 120.21278271476187 l -1.6233308696340312 5.760628574845407 a26.984984936458254,26.984984936458254 0 0,0 -0.4447896357994375,-0.12947178054760905 l 1.7219805178150753 -5.731913099995283" fill="#ff2203" stroke="none" /><path d="M 93.95794788825049 120.11202640906438 l -7.372417830153594 24.54038120763124 a46.62387274551267,46.62387274551267 0 0,0 -0.7645413005580111,-0.23685684924570813 l 7.7925997635832385 -24.41020777057888" fill="#d1ff1c" stroke="none" /><path d="M 93.61358852112213 120.00534299687104 l -3.7435071278398286 11.726482759740046 a33.30951841180914,33.30951841180914 0 0,0 -0.5432263179023084,-0.17856928054018434 l 3.9442561833898804 -11.660492557797841" fill="#ff7e0b" stroke="none" /><path d="M 93.27111125876986 119.89276391827306 l -3.6876420031510366 10.901858331273347 a32.50865841957949,32.50865841957949 0 0,0 -0.5270957404965152,-0.18335125991939447 l 3.874243515692574 -10.836948638785362" fill="#ff730a" stroke="none" /><path d="M 92.93061703081489 119.77432235084164 l -2.2079833818890853 6.176122488920576 a27.55893890906516,27.55893890906516 0 0,0 -0.44410685217757395,-0.16308218764048055 l 2.313679385720778 -6.137309452271376" fill="#ff2b04" stroke="none" /><path d="M 91.92203290615298 119.3841803445677 l -4.755691967045567 11.411929472037654 a33.36320105636818,33.36320105636818 0 0,0 -0.5267651071585004,-0.22484470085648825 l 4.950892149374498 -11.328610121521763" fill="#ff7f0b" stroke="none" /><path d="M 91.26138138417905 119.09545874513695 l -5.790265750128418 12.652775640623304 a34.91473711102947,34.91473711102947 0 0,0 -0.5428597961410025,-0.2540857951919957 l 6.0066142601409105 -12.551513613860783" fill="#ff950d" stroke="none" /><path d="M 90.28995756902619 118.62028667847754 l -3.537449466513051 6.783525782234359 a28.650475198729275,28.650475198729275 0 0,0 -0.4341381733935896,-0.23115412440222471 l 3.6533764556932025 -6.721801190109561" fill="#ff3b05" stroke="none" /><line stroke="#e1ed5e" stroke-width="0.3" x1="58.13341422392154" x2="55.67067388415222" y1="173.97424548756322" y2="178.32567169271397" /><path d="M 57.64086615596768 174.84453072859336 a86.0,86.0 0 0,1 -31.369924170532247,-30.572349798747897" fill="none" id="id56" stroke="none" /><text fill="#e1ed5e" style="font-size:6.75px; font-family:Arial;" text-anchor="middle"><textPath startOffset="22.145653131862474" xlink:href="#id56">August</textPath></text><path d="M 89.65649057296885 118.27599006163327 l -2.979426522665721 5.264361182414891 a27.049006617857238,27.049006617857238 0 0,0 -0.4021382668089964,-0.2321746365936254 l 3.069357257335117 -5.212439648545094" fill="#ff2303" stroke="none" /><path d="M 89.34428304082925 118.09573695890944 l -7.282245367422582 12.366844684787035 a35.351653042384804,35.351653042384804 0 0,0 -0.5202875217594339,-0.3124177077418292 l 7.493465645739443 -12.240012976509286" fill="#ff9b0e" stroke="none" /><path d="M 88.72937992617639 117.7192867562869 l -6.296386383901312 9.89896519747364 a32.73175150930892,32.73175150930892 0 0,0 -0.47151548156948847,-0.3056306384649111 l 6.46538749772781 -9.789420717304834" fill="#ff760a" stroke="none" /><path d="M 87.83215693770417 117.11559508785305 l -4.404491255762801 6.195468540781933 a28.601537585377685,28.601537585377685 0 0,0 -0.3977234336873035,-0.28792109443300573 l 4.5101956998240595 -6.118946674975862" fill="#ff3a05" stroke="none" /><path d="M 87.54013794807813 116.9041958592261 l -8.132227591767533 11.032928567763491 a34.70615330374197,34.70615330374197 0 0,0 -0.4765435986447014,-0.3576072005613291 l 8.320424179323002 -10.891702339938147" fill="#ff920d" stroke="none" /><path d="M 87.2517909369889 116.68781488649013 l -4.303658331675677 5.633626905451859 a28.089374242176284,28.089374242176284 0 0,0 -0.38066459860679713,-0.2960070943058853 l 4.399732874917702 -5.558918759525181" fill="#ff3304" stroke="none" /><path d="M 86.96720088162412 116.46651593811092 l -7.757829861026516 9.80176460110015 a33.50034053328207,33.50034053328207 0 0,0 -0.44786641893120654,-0.36076948429064315 l 7.924947050312984 -9.667146823016097" fill="#ff810b" stroke="none" /><path d="M 86.68645165197938 116.24036423190432 l -6.2173965641111275 7.584212873675206 a30.8069518683759,30.8069518683759 0 0,0 -0.4061026173050325,-0.33878524689594575 l 6.346673515578053 -7.476365442867389" fill="#ff5b08" stroke="none" /><path d="M 85.34317274990678 115.03919595460226 l -10.097930808203229 10.361366588367057 a35.46810713900713,35.46810713900713 0 0,0 -0.43238676215628497,-0.42869117101102866 l 10.274309490489477 -10.186495407127369" fill="#ff9c0e" stroke="none" /><path d="M 84.83555147118756 114.52719865689866 l -7.134552215856866 6.834739632690481 a30.880055726940924,30.880055726940924 0 0,0 -0.3634202679434696,-0.38593973061550957 l 7.250828317536588 -6.7112584421304815" fill="#ff5c08" stroke="none" /><path d="M 83.8745106332314 113.45245675266167 l -9.407192040687807 7.847814178720663 a33.250855050734586,33.250855050734586 0 0,0 -0.3618851754705075,-0.4414410723675652 l 9.540524035396945 -7.685170824654603" fill="#ff7d0b" stroke="none" /><path d="M 83.64595745247003 113.17365903436017 l -7.292495318398016 5.874318019843543 a30.36419244607433,30.36419244607433 0 0,0 -0.3234994836498448,-0.40873102969722497 l 7.392261232689423 -5.748267046231637" fill="#ff5407" stroke="none" /><path d="M 83.4222238831116 112.89097897827486 l -4.076400671820599 3.1698338182967367 a26.163805657926826,26.163805657926826 0 0,0 -0.27266176824399013,-0.35692300719172515 l 4.130214417418884 -3.099389897864141" fill="#ff1602" stroke="none" /><path d="M 83.20337586046588 112.60449989151573 l -6.035711055961646 4.529310099344699 a28.546155175126174,28.546155175126174 0 0,0 -0.29076023526695605,-0.3944721012596731 l 6.112573310812432 -4.425031688816147" fill="#ff3a05" stroke="none" /><path d="M 82.78059297857968 112.02048342749411 l -6.306172785598801 4.402198366407638 a28.690719450027352,28.690719450027352 0 0,0 -0.2784506229556071,-0.4062677804899154 l 6.380813145369733 -4.293295850847671" fill="#ff3c05" stroke="none" /><path d="M 82.37810715431573 111.42229804090323 l -11.29406058137929 7.320673617881237 a34.45912577530234,34.45912577530234 0 0,0 -0.3174871999790139,-0.4991426115892704 l 11.418065472984193 -7.125717331613294" fill="#ff8e0d" stroke="none" /><path d="M 82.18462484594161 111.11811171558189 l -7.976240479802677 4.9777639795921464 a30.402050118360776,30.402050118360776 0 0,0 -0.27250665611942165,-0.44511914310080747 l 8.060515100377504 -4.840107720366782" fill="#ff5507" stroke="none" /><path d="M 81.99639281039703 110.81064883170644 l -4.950092205055004 2.972388141434294 a26.773950476223842,26.773950476223842 0 0,0 -0.23322187741832875,-0.396061735028812 l 5.000387792603103 -2.8869752381119236" fill="#ff1f03" stroke="none" /><line stroke="#e1ed5e" stroke-width="0.3" x1="26.387840678322732" x2="22.057713659400548" y1="142.50000000000003" y2="145.00000000000006" /><path d="M 25.521815274538298 143.00000000000003 a86.0,86.0 0 0,1 -11.493303480769221,-40.785679425670985" fill="none" id="id57" stroke="none" /><text fill="#e1ed5e" style="font-size:6.75px; font-family:Arial;" text-anchor="middle"><textPath startOffset="21.40746469413373" xlink:href="#id57">September</textPath></text><path d="M 81.81346652052679 110.50000000000001 l -5.922755831074937 3.419504673415545 a27.839009346831084,27.839009346831084 0 0,0 -0.23539424813596155,-0.41591908141502515 l 5.980583444232277 -3.3173288219013983" fill="#ff2f04" stroke="none" /><path d="M 81.1358732173502 109.22738970284198 l -12.180485988021646 5.958086068678026 a34.559610190052176,34.559610190052176 0 0,0 -0.25610438963771937,-0.5351596746337324 l 12.280969635619277 -5.748113891979189" fill="#ff900d" stroke="none" /><path d="M 80.9802524753101 108.90220220490708 l -4.6087893006844745 2.15714610413444 a26.088636176097292,26.088636176097292 0 0,0 -0.18636670081709422,-0.40724487511986385 l 4.645140466356624 -2.077712246799887" fill="#ff1502" stroke="none" /><path d="M 80.68587082218212 108.24405325689762 l -5.055476584829177 2.157882336843694 a26.496753558184874,26.496753558184874 0 0,0 -0.17497213915267426,-0.4198694375957134 l 5.091774568518336 -2.0707803898066994" fill="#ff1b02" stroke="none" /><path d="M 80.41425534168474 107.57618678355246 l -13.305399006432365 5.1468141682133 a35.26616061883829,35.26616061883829 0 0,0 -0.2135606443041873,-0.5664949815477257 l 13.39179033455099 -4.9176509064714296" fill="#ff990e" stroke="none" /><path d="M 80.16572619554312 106.89939002012753 l -12.149093528777023 4.2260853849463835 a33.86313613594403,33.86313613594403 0 0,0 -0.18627075690386236,-0.5506763946418284 l 12.219849707253253 -4.016907315830393" fill="#ff860c" stroke="none" /><path d="M 79.56144815229197 104.8234425847677 l -6.85602238637582 1.618002615203593 a28.044357701401317,28.044357701401317 0 0,0 -0.10655405424587781,-0.4694968235497787 l 6.882787302179364 -1.500071457714788" fill="#ff3204" stroke="none" /><path d="M 79.48165901384964 104.47187691870673 l -6.528526078909066 1.4228618729533018 a27.681780352009483,27.681780352009483 0 0,0 -0.09720561198163069,-0.4651640421597592 l 6.551989401715064 -1.3105813795081336" fill="#ff2d04" stroke="none" /><path d="M 79.407916724674 104.11899336999214 l -13.811346117922351 2.7626560328917575 a35.0849405375075,35.0849405375075 0 0,0 -0.11306323863015177,-0.5915946404900042 l 13.856735648834661 -2.525158827368439" fill="#ff970d" stroke="none" /><path d="M 79.2786578344484 103.40968896794605 l -12.900835888057424 2.12282763603604 a34.07432460140518,34.07432460140518 0 0,0 -0.09001869929915626,-0.5779846245583076 l 12.935376079494848 -1.9010548295462824" fill="#ff890c" stroke="none" /><path d="M 79.22317932658666 103.0534771498775 l -6.7305753538151505 0.9891627969192488 a27.802873483476894,27.802873483476894 0 0,0 -0.06534401247291734,-0.47279672317063864 l 6.74656388284328 -0.8734777655485244" fill="#ff2f04" stroke="none" /><path d="M 79.17382384314188 102.69636545807758 l -24.8029149147431 3.2112339073693814 a46.009930257316284,46.009930257316284 0 0,0 -0.09468824747903302,-0.7841545220669957 l 24.854385248481794 -2.7849857083789864" fill="#d9ff1c" stroke="none" /><path d="M 79.06263194458094 101.62068470465958 l -6.898695776362286 0.5340026834918334 a27.919332502544975,27.919332502544975 0 0,0 -0.03288636633468501,-0.4781605489410321 l 6.906846103862036 -0.41549871039645797" fill="#ff3004" stroke="none" /><line stroke="#e1ed5e" stroke-width="0.3" x1="15.003131293944662" x2="10.003315487706104" y1="100.72959589197737" y2="100.7725132973878" /><path d="M 14.003168132696942 100.73817937305945 a86.0,86.0 0 0,1 10.791469493833604,-42.45332614584628" fill="none" id="id58" stroke="none" /><text fill="#e1ed5e" style="font-size:6.75px; font-family:Arial;" text-anchor="middle"><textPath startOffset="22.145653131862435" xlink:href="#id58">October</textPath></text><path d="M 79.00077361379809 99.81974689727619 l -7.118903528688198 -0.06110722487761342 a28.119165789873243,28.119165789873243 0 0,0 0.008286541946622893,-0.4826495252065394 l 7.116805555142909 0.18330366605320522" fill="#ff3304" stroke="none" /><path d="M 79.01933749520258 99.09900007780938 l -18.576850139662735 -0.7977698762637139 a39.593972084709634,39.593972084709634 0 0,0 0.0349905328091969,-0.6788069887024065 l 18.560418017396966 1.1165486583428323" fill="#ffd413" stroke="none" /><path d="M 79.03789590574601 98.7389718711861 l -34.48400606205038 -2.0744721733518574 a55.54634725822021,55.54634725822021 0 0,0 0.06542840966277093,-0.9513147169345847 l 34.44331369122255 2.666130314440767" fill="#6aff28" stroke="none" /><path d="M 79.17382384314186 97.30363454192245 l -7.434941592658298 -0.9626020418859422 a28.49699667715568,28.49699667715568 0 0,0 0.0669753832250311,-0.48460050926648257 l 7.417321692878058 1.0900908593524918" fill="#ff3905" stroke="none" /><path d="M 79.22317932658666 96.9465228501225 l -13.489174936188762 -1.9824441903692749 a34.63407222465218,34.63407222465218 0 0,0 0.09149745943805601,-0.5874793254409916 l 13.45315598461244 2.2137116977417164" fill="#ff910d" stroke="none" /><path d="M 79.2786578344484 96.59031103205396 l -9.042062084304698 -1.4878678750641718 a30.16365852430505,30.16365852430505 0 0,0 0.08845878168196421,-0.5102067457351099 l 9.0151884851305 1.6428676537198743" fill="#ff5107" stroke="none" /><path d="M 79.407916724674 95.88100663000787 l -13.677228372534211 -2.7358287276275988 a34.94816600063848,34.94816600063848 0 0,0 0.12272179825605309,-0.5872682304462818 l 13.628248863453791 2.9702134093592893" fill="#ff950d" stroke="none" /><path d="M 79.56144815229197 95.17655741523228 l -17.6599920855337 -4.167710046520557 a39.145113047125975,39.145113047125975 0 0,0 0.15995899882728606,-0.6526873013575208 l 17.585845560190116 4.470253172486196" fill="#ffce13" stroke="none" /><path d="M 79.73907114497095 94.47779374421319 l -7.880232185573781 -2.1477923240141457 a29.167684565753444,29.167684565753444 0 0,0 0.13581238950153862,-0.48195025821013465 l 7.84220130399766 2.2827505061272935" fill="#ff4306" stroke="none" /><line stroke="#e1ed5e" stroke-width="0.3" x1="26.387840678322718" x2="22.05771365940052" y1="57.49999999999999" y2="54.99999999999999" /><path d="M 25.521815274538284 56.99999999999999 a86.0,86.0 0 0,1 29.574782752854787,-30.34633250058573" fill="none" id="id59" stroke="none" /><text fill="#e1ed5e" style="font-size:6.75px; font-family:Arial;" text-anchor="middle"><textPath startOffset="21.40746469413373" xlink:href="#id59">November</textPath></text><line stroke="#e1ed5e" stroke-width="0.3" x1="56.869717070023135" x2="54.33264160355391" y1="26.7553504044142" y2="22.446841604673864" /><path d="M 56.362301976729285 25.89364864446614 a86.0,86.0 0 0,1 42.16139366436587,-11.88097634709845" fill="none" id="id60" stroke="none" /><text fill="#e1ed5e" style="font-size:6.75px; font-family:Arial;" text-anchor="middle"><textPath startOffset="22.145653131862474" xlink:href="#id60">December</textPath></text></svg>