<?xml version="1.0" encoding="utf-8" ?>
<svg baseProfile="full" height="200mm" version="1.1" viewBox="0,0,200,200" width="200mm" xmlns="http://www.w3.org/2000/svg" xmlns:ev="http://www.w3.org/2001/xml-events" xmlns:xlink="http://www.w3.org/1999/xlink"><defs /><rect fill="#1a1a1a" height="200" width="200" x="0" y="0" /><text alignment-baseline="middle" fill="#e1ed5e" style="dominant-baseline: central; font-size:9.0px; font-family:Arial;" text-anchor="middle" x="100.0" y="100.0">2019</text><line stroke="#e1ed5e" stroke-width="0.3" x1="100.0" x2="100.0" y1="15.0" y2="10.0" /><path d="M 100.0 14.0 a86.0,86.0 0 0,1 42.46469731375804,11.215312516191453" fill="none" id="id85" stroke="none" /><text fill="#e1ed5e" style="font-size:6.75px; font-family:Arial;" text-anchor="middle"><textPath startOffset="22.20632615414155" xlink:href="#id85">January</textPath></text><path d="M 100.0 79.0 l 0.0 -63.0 a84.0,84.0 0 0,0 1.4459219170901134,0.012445506434235476 l -1.084441437817585 62.990665870174325" fill="#4dd2ff" stroke="none" /><path d="M 104.66035177308747 79.52364482259891 l 7.251643700124474 -31.861807703271126 a53.67661436675749,53.67661436675749 0 0,0 0.8991505475367805,0.2127998842128924 l -7.799017934623778 31.732261906917362" fill="#7fff26" stroke="none" /><path d="M 108.09893153111575 80.62456947434976 l 12.681161756307821 -30.337701664706596 a53.88142341484604,53.88142341484604 0 0,0 0.8526510549585979,0.3650606836905252 l -13.201496569056735 30.11492145305328" fill="#7dff26" stroke="none" /><path d="M 109.73455568895987 81.39251694778311 l 15.198387399316713 -29.05152993007635 a53.7869237779001,53.7869237779001 0 0,0 0.8166774799327434,0.43624082644785844 l -15.696209925777767 28.785610377126737" fill="#7eff26" stroke="none" /><line stroke="#e1ed5e" stroke-width="0.3" x1="143.23703022742887" x2="145.7803849466894" y1="26.81831364943548" y2="22.513508569990506" /><path d="M 143.74570117128098 25.957352633546492 a86.0,86.0 0 0,1 28.547481713284135,27.462654790039103" fill="none" id="id86" stroke="none" /><text fill="#e1ed5e" style="font-size:6.75px; font-family:Arial;" text-anchor="middle"><textPath startOffset="19.985693538727396" xlink:href="#id86">February</textPath></text><path d="M 110.99172775467656 82.1063720568725 l 18.608425922099308 -30.292985551395898 a56.55191259152365,56.55191259152365 0 0,0 0.8250677578457475,0.5166573542711455 l -19.127112832317316 29.968183855801808" fill="#60ff29" stroke="none" /><path d="M 112.48926042617603 83.11751280151076 l 20.461375277718375 -27.658876058470625 a55.404669785851226,55.404669785851226 0 0,0 0.7618243571624405,0.5737903115394886 l -20.9344457886392 27.30256915742529" fill="#6cff28" stroke="none" /><path d="M 113.34407831869373 83.78471172551755 l 21.234851334525413 -25.803898001163322 a54.41796018990142,54.41796018990142 0 0,0 0.7181679771757132,0.6014450274793016 l -21.67587684866024 25.434551816290202" fill="#77ff27" stroke="none" /><path d="M 113.89432698308785 84.25364557470407 l 20.941835359395462 -23.73325187226529 a52.65166208356853,52.65166208356853 0 0,0 0.674415170728036,0.6054965991964666 l -21.347261517719488 23.369256264299523" fill="#8bff24" stroke="none" /><path d="M 114.94478906791727 85.2469230424477 l 31.149613049698747 -30.750025071061444 a64.77056585214395,64.77056585214395 0 0,0 0.7764317183407484,0.8001811360250124 l -31.674309031742606 30.209279739486316" fill="#34ff5c" stroke="none" /><path d="M 116.82858285166822 87.43820079747576 l 32.54390253185838 -24.29259626167513 a61.61078459148322,61.61078459148322 0 0,0 0.6270727685509212,0.8553265515849051 l -32.95723791292293 23.72880726641873" fill="#30ff35" stroke="none" /><path d="M 117.04232023915458 87.72973835380427 l 27.631368386174188 -19.894246498304124 a55.04810659387321,55.04810659387321 0 0,0 0.5470402452300952,0.7737496320677165 l -27.969721251208163 19.415670365904614" fill="#70ff27" stroke="none" /><line stroke="#e1ed5e" stroke-width="0.3" x1="172.23445277983987" x2="176.4835382374775" y1="55.19839476539836" y2="52.563006222186495" /><path d="M 173.08426987136738 54.67131705675599 a86.0,86.0 0 0,1 12.851231095245387,41.99856678651699" fill="none" id="id87" stroke="none" /><text fill="#e1ed5e" style="font-size:6.75px; font-family:Arial;" text-anchor="middle"><textPath startOffset="22.20632615414155" xlink:href="#id87">March</textPath></text><path d="M 118.3937258080291 89.86733742301442 l 28.58746891059161 -15.74815126768102 a53.63813179493896,53.63813179493896 0 0,0 0.43853489534493173,0.8125385591661887 l -28.854311905155008 15.253731725182373" fill="#80ff26" stroke="none" /><path d="M 119.34039704204932 91.81776055985345 l 57.82802997136482 -24.464998652765047 a83.79026365169096,83.79026365169096 0 0,0 0.5505352016200519,1.3331646587834394 l -58.24058685987107 23.465959423528304" fill="#4dd4ff" stroke="none" /><path d="M 119.7369772167798 92.82701384747503 l 27.665366735119452 -10.054391324261449 a50.43574869932881,50.43574869932881 0 0,0 0.2895178153692735,0.8185058509372403 l -27.834337631298535 9.576687846897594" fill="#a4ff21" stroke="none" /><path d="M 120.18372546131832 94.20196356495316 l 35.02445636554479 -10.061228513750963 a57.440922915149486,57.440922915149486 0 0,0 0.26481148805067706,0.9526678177395177 l -35.19245462416184 9.456849392592494" fill="#56ff2a" stroke="none" /><path d="M 120.37134235888165 94.90015583598534 l 32.784353789379374 -8.207367604858053 a54.796075754271634,54.796075754271634 0 0,0 0.22118618563741013,0.9169595365314761 l -32.920772775277605 7.641822836667171" fill="#73ff27" stroke="none" /><path d="M 120.53481517161879 95.60439243477599 l 34.89123764378899 -7.468690945854647 a56.6816452641978,56.6816452641978 0 0,0 0.1960124279896393,0.9558262112743954 l -35.01462936769362 6.8669890784168395" fill="#5eff29" stroke="none" /><path d="M 120.73433829027371 96.67025291283417 l 62.01471849982598 -9.959002568365955 a83.80929105450386,83.80929105450386 0 0,0 0.21648381498748753,1.4263578577461908 l -62.17695820825277 8.890045598227683" fill="#4dd4ff" stroke="none" /><path d="M 120.91429891909075 98.10471618934814 l 35.4528431829517 -3.2127875759150175 a56.598119244742676,56.598119244742676 0 0,0 0.0795756516927055,0.9710245083855208 l -35.502893318463904 2.602049150321728" fill="#5fff29" stroke="none" /><path d="M 120.94382443527127 98.46500227214037 l 29.370913385120385 -2.1526290697603407 a50.449692103453664,50.449692103453664 0 0,0 0.05602176208865453,0.866631863692673 l -29.403615738213453 1.6467381418146325" fill="#a4ff21" stroke="none" /><path d="M 120.96714384426684 98.82574320788733 l 44.718941547591996 -2.5044670479860227 a65.7890174968306,65.7890174968306 0 0,0 0.053591081296863775,1.131223024966222 l -44.75542623712235 1.7343329163968007" fill="#35ff68" stroke="none" /><line stroke="#e1ed5e" stroke-width="0.3" x1="184.98032266829074" x2="189.97916517819016" y1="98.17113171792111" y2="98.06355123074" /><path d="M 185.9800911702706 98.14961562048488 a86.0,86.0 0 0,1 -9.607161424134198,41.387399972396054" fill="none" id="id88" stroke="none" /><text fill="#e1ed5e" style="font-size:6.75px; font-family:Arial;" text-anchor="middle"><textPath startOffset="21.466115282336823" xlink:href="#id88">April</textPath></text><path d="M 120.99980553446 99.90962569577887 l 30.67737405503299 -0.1320224766370079 a51.67765813824042,51.67765813824042 0 0,0 -0.0038283368017998707,0.8895706478859109 l -30.675101420941687 -0.39605764945258765" fill="#96ff23" stroke="none" /><path d="M 120.9904718944345 100.63252640178507 l 30.812202018411124 0.9284941935463491 a51.82618845544852,51.82618845544852 0 0,0 -0.034545528610851195,0.8914665938403832 l -30.791654356949067 -1.4587380344007383" fill="#94ff23" stroke="none" /><path d="M 120.9764740272857 100.99374915477107 l 39.437527047487244 1.868331594658029 a60.481757845477006,60.481757845477006 0 0,0 -0.05821700146637591,1.0395036691516457 l -39.39952369513334 -2.546906980145098" fill="#37ff2e" stroke="none" /><path d="M 120.81339534386255 102.79330883721812 l 24.763534236003206 3.323446169131581 a45.98555427235542,45.98555427235542 0 0,0 -0.11204259637488799,0.783625658088239 l -24.702657588611718 -3.7492172992002293" fill="#daff1c" stroke="none" /><path d="M 120.70491114924044 103.5080841355445 l 34.137329629996565 5.783971910897932 a55.62385890297466,55.62385890297466 0 0,0 -0.16807293991508257,0.942642304544277 l -34.032710247742294 -6.370732966175428" fill="#6aff28" stroke="none" /><path d="M 120.5718875245553 104.21870165774334 l 38.871730661304284 7.97147244677743 a60.680673098811155,60.680673098811155 0 0,0 -0.2186410219461606,1.0214180651883225 l -38.72875560063368 -8.639404331381922" fill="#35ff2f" stroke="none" /><path d="M 120.49622156327973 104.57218783832717 l 30.70518895244304 6.849549858175569 a52.459894498628934,52.459894498628934 0 0,0 -0.20419248036480162,0.8796558611978496 l -30.582735906147686 -7.377074376721984" fill="#8dff24" stroke="none" /><path d="M 120.32669344350535 105.2749913415812 l 27.78083657393753 7.209420105473459 a49.70105606079731,49.70105606079731 0 0,0 -0.22202627032897942,0.8262423476940339 l -27.652622227266775 -7.686553386343041" fill="#adff20" stroke="none" /><path d="M 120.23288151984713 105.62410040840565 l 29.59975033727026 8.227793347044965 a51.72200845306843,51.72200845306843 0 0,0 -0.24582082279312556,0.8557345328051165 l -29.453736877591034 -8.736085355354662" fill="#95ff23" stroke="none" /><path d="M 119.9155931802556 106.66101706037122 l 59.63785964774402 19.946621572461197 a83.88514940364688,83.88514940364688 0 0,0 -0.4697934627412309,1.3654397081713714 l -59.28567535405956 -20.97023398372187" fill="#4dd3ff" stroke="none" /><path d="M 119.26925614724726 108.34839909993367 l 31.486108043239973 13.641346300030884 a55.314156387531185,55.314156387531185 0 0,0 -0.38603727424577633,0.8704121425601574 l -31.246629684262924 -14.18130677908373" fill="#6dff28" stroke="none" /><line stroke="#e1ed5e" stroke-width="0.3" x1="174.80103733775053" x2="179.2010983576182" y1="140.37084112569926" y2="142.7455964860345" /><path d="M 175.68104954172406 140.8457921977663 a86.0,86.0 0 0,1 -30.038265399797805,32.042727171017184" fill="none" id="id89" stroke="none" /><text fill="#e1ed5e" style="font-size:6.75px; font-family:Arial;" text-anchor="middle"><textPath startOffset="22.206326154141568" xlink:href="#id89">May</textPath></text><path d="M 118.48025628344425 109.97397251340804 l 35.59917020707071 19.2132154283784 a61.453041499116836,61.453041499116836 0 0,0 -0.5104219118286355,0.9265640320354065 l -35.26317188579056 -19.823149978811614" fill="#30ff33" stroke="none" /><path d="M 117.94076556474637 110.91462005526583 l 32.91733374035276 20.025911921747575 a59.53035178753703,59.53035178753703 0 0,0 -0.5401255727872046,0.8708544030593915 l -32.56774352789759 -20.58956265617224" fill="#40ff2d" stroke="none" /><path d="M 117.35343817320211 111.8261652097733 l 25.150849790528543 17.140010055661406 a51.43591940280273,51.43591940280273 0 0,0 -0.5049025602369158,0.7273497954336423 l -24.85208632312949 -17.57040111328207" fill="#99ff23" stroke="none" /><path d="M 117.14729908036423 112.12312394758627 l 25.657935435277686 18.14013566003714 a52.42282884409724,52.42282884409724 0 0,0 -0.5272743234623075,0.7323379185735834 l -25.341881319439775 -18.57910718406185" fill="#8dff24" stroke="none" /><path d="M 116.71984013943494 112.70617746262583 l 23.610063280632904 17.942375731212344 a50.65407113695332,50.65407113695332 0 0,0 -0.5335397721735752,0.6896720774194136 l -23.29771669124126 -18.34612580274501" fill="#a2ff22" stroke="none" /><path d="M 116.498646956653 112.99209946851258 l 28.833549886337714 22.705398154032256 a57.700254827195096,57.700254827195096 0 0,0 -0.621190194585679,0.7750302801044734 l -28.43844177969718 -23.19835626771498" fill="#54ff2b" stroke="none" /><path d="M 115.80600337817218 113.82643327865902 l 20.34480726373875 17.796789831623503 a48.03029616762744,48.03029616762744 0 0,0 -0.5496979348885042,0.6175914571550323 l -20.03545047920191 -18.1443554585194" fill="#c1ff1e" stroke="none" /><path d="M 114.81725581225074 114.88116024355365 l 20.616424660390805 20.705339970358818 a50.218967624912906,50.218967624912906 0 0,0 -0.6178129846445094,0.6046600378711389 l -20.2569617233705 -21.05715011115253" fill="#a7ff21" stroke="none" /><path d="M 114.0293411484842 115.62618273729858 l 19.128105911827085 21.305296894067308 a49.63215170954548,49.63215170954548 0 0,0 -0.6406273458367943,0.5652791482366768 l -18.7585362130837 -21.631399184076276" fill="#aeff20" stroke="none" /><path d="M 113.75828350139079 115.86535959552629 l 23.60247802892623 27.217188920156335 a57.025717783569924,57.025717783569924 0 0,0 -0.7471306516778244,0.6367209500131763 l -23.13048190067136 -27.61943426039246" fill="#5bff2a" stroke="none" /><path d="M 112.92097659922987 116.55440617244103 l 27.681941229742947 35.46621226650312 a65.99046657659375,65.99046657659375 0 0,0 -0.90146519305405,0.6912050695860193 l -27.0673473081954 -35.937456677916515" fill="#36ff6b" stroke="none" /><path d="M 111.7513745106137 117.40417183066458 l 20.660509775960474 30.59889393578375 a57.92084742115085,57.92084742115085 0 0,0 -0.8310960380197548,0.5508051357176967 l -20.130739039200755 -30.949997092592763" fill="#51ff2b" stroke="none" /><line stroke="#e1ed5e" stroke-width="0.3" x1="143.8653032363475" x2="146.44561519142675" y1="172.8068346515853" y2="177.08958963109032" /><path d="M 144.38136562736335 173.6633856474863 a86.0,86.0 0 0,1 -40.68145358897372,12.25698825130547" fill="none" id="id90" stroke="none" /><text fill="#e1ed5e" style="font-size:6.75px; font-family:Arial;" text-anchor="middle"><textPath startOffset="21.466115282336833" xlink:href="#id90">June</textPath></text><path d="M 110.8373102113329 117.98757091392108 l 18.09428063424787 30.03255878977849 a56.062195868662,56.062195868662 0 0,0 -0.8308741226203579,0.4908950769846203 l -17.57463864059913 -30.339572439056862" fill="#65ff29" stroke="none" /><path d="M 109.57404056367764 118.69057910512821 l 15.565635542803102 30.387456633315402 a55.14215181404065,55.14215181404065 0 0,0 -0.8485224228891055,0.42546675787314525 l -15.040259212231236 -30.650891232097848" fill="#6fff27" stroke="none" /><path d="M 107.59598834532513 119.57807347666477 l 11.704954608390361 30.168616767971596 a53.35971878859913,53.35971878859913 0 0,0 -0.8591671397277544,0.3248634962352612 l -11.183917247902333 -30.36562851431349" fill="#83ff25" stroke="none" /><path d="M 106.57524785965236 119.94407469862006 l 8.24247358130536 25.00111209733891 a47.324778761505726,47.324778761505726 0 0,0 -0.775852913137144,0.2484036021590454 l -7.810899323077276 -25.139288546157665" fill="#c9ff1d" stroke="none" /><path d="M 104.83641907484287 120.43548508189849 l 1.9437333668921557 8.212922331095454 a29.439798138473236,29.439798138473236 0 0,0 -0.49413979284539733,0.11246460807056805 l -1.8020734246538963 -8.245163672743706" fill="#ff4606" stroke="none" /><path d="M 102.70371172650421 120.8252237178851 l 3.4719092017737756 26.742231853470564 a47.96666679458433,47.96666679458433 0 0,0 -0.8197105390575364,0.09925553068409182 l -3.0110712396648585 -26.798032912880004" fill="#c2ff1e" stroke="none" /><path d="M 101.26447882468166 120.96189622390904 l 2.2879373167798525 37.928278168851215 a58.99722281982289,58.99722281982289 0 0,0 -1.0142238746868857,0.05242378944339653 l -1.6347253736794871 -37.96204176505681" fill="#46ff2c" stroke="none" /><line stroke="#e1ed5e" stroke-width="0.3" x1="102.19456741930631" x2="102.32365962044197" y1="184.97166512339345" y2="189.96999836594603" /><path d="M 102.22038585953345 185.97133177190398 a86.0,86.0 0 0,1 -42.740103519485714,-10.115201625700543" fill="none" id="id91" stroke="none" /><text fill="#e1ed5e" style="font-size:6.75px; font-family:Arial;" text-anchor="middle"><textPath startOffset="22.20632615414155" xlink:href="#id91">July</textPath></text><path d="M 99.81925306533755 120.99922214144158 l -0.29151094821849216 33.86781175423268 a54.869066294379486,54.869066294379486 0 0,0 -0.9443758255590611,-0.016258286270860536 l 0.874446463670221 -33.85777599068266" fill="#72ff27" stroke="none" /><path d="M 95.86986931433489 120.58985236759428 l -9.00290812486687 44.88200574703432 a66.77605044760432,66.77605044760432 0 0,0 -1.1250446104944967,-0.23576403673298252 l 9.774144196790752 -44.7203857295748" fill="#37ff74" stroke="none" /><path d="M 95.16358092515715 120.4354850818985 l -8.149008078355864 34.43227942833358 a56.383445271651446,56.383445271651446 0 0,0 -0.9425344408321046,-0.23165203380751642 l 8.740495803931179 -34.28690613621204" fill="#62ff29" stroke="none" /><path d="M 94.46302465271185 120.25689768951611 l -9.07664081552546 33.206682860641024 a55.42483398799845,55.42483398799845 0 0,0 -0.918122488447653,-0.25947058611296475 l 9.646894472077728 -33.04552348118954" fill="#6cff28" stroke="none" /><path d="M 92.7421414339146 119.70592522655815 l -10.785872056931037 29.28488979522022 a52.20800868922397,52.20800868922397 0 0,0 -0.8406229739348824,-0.31785167949358967 l 11.288365251626203 -29.094889865619997" fill="#90ff24" stroke="none" /><path d="M 92.06813273071674 119.44442032107085 l -12.129310850725776 29.734160996336133 a53.1129337163326,53.1129337163326 0 0,0 -0.843556155438878,-0.35260654138788217 l 12.639338465662117 -29.520969411928277" fill="#86ff25" stroke="none" /><path d="M 90.10565033884886 118.52300852407294 l -16.033750135904427 30.016453896542426 a55.03040769582216,55.03040769582216 0 0,0 -0.8316855264867792,-0.45350126139206426 l 16.548058474259847 -29.736011983390597" fill="#70ff27" stroke="none" /><line stroke="#e1ed5e" stroke-width="0.3" x1="58.666819895761336" x2="56.23545636021788" y1="174.27360380694188" y2="178.64263932499728" /><path d="M 58.180547188652646 175.14741091055294 a86.0,86.0 0 0,1 -31.652253787137756,-30.449443065178592" fill="none" id="id92" stroke="none" /><text fill="#e1ed5e" style="font-size:6.75px; font-family:Arial;" text-anchor="middle"><textPath startOffset="22.20632615414155" xlink:href="#id92">August</textPath></text><path d="M 89.7882731507175 118.34994917583269 l -16.49226966855735 29.635762362113937 a54.915680291040985,54.915680291040985 0 0,0 -0.8220386578499758,-0.4667750038183274 l 16.999957093328533 -29.34748419250098" fill="#72ff27" stroke="none" /><path d="M 88.24862548938628 117.40417183066458 l -18.713714409322975 27.715626021081626 a54.4418754368555,54.4418754368555 0 0,0 -0.7721494184326471,-0.5310914108322717 l 19.18802071237851 -27.38939382088425" fill="#77ff27" stroke="none" /><path d="M 87.95078237400918 117.19931262002967 l -17.76244918085575 25.354502328843648 a51.957315601418365,51.957315601418365 0 0,0 -0.7280770523727667,-0.5194636452232693 l 18.196253561077405 -25.04499442177616" fill="#93ff23" stroke="none" /><path d="M 86.24171649860922 115.8653595955263 l -19.915468478574738 22.96551520355117 a51.398038971052785,51.398038971052785 0 0,0 -0.6634205480337656,-0.585391499055327 l 20.30783137951509 -22.619300562723552" fill="#99ff23" stroke="none" /><path d="M 85.70375840098266 115.38237550388516 l -21.987226682835427 23.657670778847592 a53.29742286750956,53.29742286750956 0 0,0 -0.6666344336482948,-0.6303444662378451 l 22.391196950874537 -23.27569167586382" fill="#84ff25" stroke="none" /><path d="M 84.43433777217949 114.09645910891817 l -22.982731331505285 20.81344999551487 a52.00654189315462,52.00654189315462 0 0,0 -0.5952053383053652,-0.6687195073145527 l 23.337595519458986 -20.414756318459453" fill="#92ff23" stroke="none" /><line stroke="#e1ed5e" stroke-width="0.3" x1="26.63291911575756" x2="22.317208475507996" y1="142.92168965132927" y2="145.44649492493687" /><path d="M 25.769776987707644 143.4266507060508 a86.0,86.0 0 0,1 -11.730757126820373,-40.83630448921669" fill="none" id="id93" stroke="none" /><text fill="#e1ed5e" style="font-size:6.75px; font-family:Arial;" text-anchor="middle"><textPath startOffset="21.46611528233685" xlink:href="#id93">September</textPath></text><path d="M 80.45479744820244 107.68017299344265 l -29.69846098476755 11.669836492998877 a52.90899040454099,52.90899040454099 0 0,0 -0.3257826247732994,-0.8505156315820773 l 29.894937889134358 -11.156897294583644" fill="#88ff25" stroke="none" /><path d="M 80.20201598880116 107.00284435728193 l -27.067420853458863 9.574153372515113 a49.71079386674465,49.71079386674465 0 0,0 -0.27840215046763306,-0.8091669664168802 l 27.228213834869724 -9.106813703008935" fill="#adff20" stroke="none" /><path d="M 79.67330655649465 105.27499134158121 l -32.30346557170334 8.383090032198382 a54.373493770208825,54.373493770208825 0 0,0 -0.22730369310821216,-0.9079652638053134 l 32.44298057910662 -7.825796928995677" fill="#78ff26" stroke="none" /><path d="M 79.50377843672027 104.57218783832718 l -33.31111431834985 7.430865796276756 a55.129871133838876,55.129871133838876 0 0,0 -0.19864069973045828,-0.9279832182466565 l 33.43408905680475 -6.856368758613936" fill="#6fff27" stroke="none" /><path d="M 79.18660465613746 102.79330883721812 l -29.953714543096673 4.020006066209354 a51.222267679670914,51.222267679670914 0 0,0 -0.10975832088281627,-0.874881809611231 l 30.018474373226336 -3.5038065023107148" fill="#9bff22" stroke="none" /><line stroke="#e1ed5e" stroke-width="0.3" x1="15.007084014347285" x2="10.007500721073583" y1="101.09737516637583" y2="101.16192664675087" /><path d="M 14.007167355692545 101.11028546245083 a86.0,86.0 0 0,1 10.666146001902534,-42.60595125391555" fill="none" id="id94" stroke="none" /><text fill="#e1ed5e" style="font-size:6.75px; font-family:Arial;" text-anchor="middle"><textPath startOffset="22.20632615414155" xlink:href="#id94">October</textPath></text><path d="M 79.00175016825051 100.2711162175752 l -3.7872197408508077 0.048898203397557606 a24.7875353991462,24.7875353991462 0 0,0 -0.001836287428904369,-0.42668852883248704 l 3.7875003255692152 0.016299803638604803" fill="#ff0000" stroke="none" /><path d="M 79.16333360222342 97.38593545837743 l -33.5709527992979 -4.211644783567375 a54.83410740119558,54.83410740119558 0 0,0 0.12555444152104417,-0.9355264243383278 l 33.49348235871902 4.788889549970362" fill="#73ff27" stroke="none" /><path d="M 79.21141760316559 97.0276538004421 l -32.02854371391087 -4.579432996831652 a53.354270491024366,53.354270491024366 0 0,0 0.1378168920944485,-0.9080411252935485 l 31.944970928377117 5.130073234517292" fill="#83ff25" stroke="none" /><path d="M 80.2630227832202 92.82701384747504 l -30.093143875234677 -10.936715482423702 a53.018885893157815,53.018885893157815 0 0,0 0.3191116142690921,-0.8550604739282853 l 29.900427672463955 11.45309909338133" fill="#87ff25" stroke="none" /><path d="M 80.95270993114464 91.15688171328213 l -29.98965318705491 -13.92334812732284 a54.06416370263214,54.06416370263214 0 0,0 0.3991526470900622,-0.8407172713879225 l 29.745542346123095 14.437507814351294" fill="#7bff26" stroke="none" /><line stroke="#e1ed5e" stroke-width="0.3" x1="26.266209847984243" x2="21.928928074336255" y1="57.711370442889674" y2="55.22380399835377" /><path d="M 25.398753493254645 57.213857153982495 a86.0,86.0 0 0,1 29.58750427330803,-30.492523968695096" fill="none" id="id95" stroke="none" /><text fill="#e1ed5e" style="font-size:6.75px; font-family:Arial;" text-anchor="middle"><textPath startOffset="21.46611528233685" xlink:href="#id95">November</textPath></text><path d="M 81.96595687620814 89.24020034530311 l -31.52021970634739 -18.806168244374057 a57.704171620840505,57.704171620840505 0 0,0 0.5162715343112739,-0.848614657947872 l 31.1918323737499 19.345950675529004" fill="#53ff2b" stroke="none" /><path d="M 83.39014120810768 87.1503855733568 l -33.37817138986919 -25.82181088954155 a63.20033463074349,63.20033463074349 0 0,0 0.6730712831076819,-0.8547321780877978 l 32.92874602616754 26.392535461582394" fill="#32ff49" stroke="none" /><path d="M 85.05521093208273 85.24692304244772 l -31.627121143188674 -31.22140767934687 a65.44154688223523,65.44154688223523 0 0,0 0.7982753091857642,-0.7948472613170627 l 31.085010033835598 31.761190791314046" fill="#35ff64" stroke="none" /><path d="M 86.93701828274178 83.55741782278169 l -23.545358529793415 -29.63691605008646 a58.85142931589754,58.85142931589754 0 0,0 0.798606735112714,-0.6233252240456019 l 23.031719239521276 30.037819663355283" fill="#47ff2c" stroke="none" /><path d="M 88.39885842347998 82.49532879139004 l -18.04297444688838 -27.224591065879665 a53.6607912579509,53.6607912579509 0 0,0 0.7743328177935898,-0.5036476041615591 l 17.571674603310502 27.53113759420076" fill="#80ff26" stroke="none" /><line stroke="#e1ed5e" stroke-width="0.3" x1="56.762969772571076" x2="54.21961505331055" y1="26.818313649435495" y2="22.513508569990535" /><path d="M 56.25429882871897 25.957352633546506 a86.0,86.0 0 0,1 42.265352541879196,-11.944610805530505" fill="none" id="id96" stroke="none" /><text fill="#e1ed5e" style="font-size:6.75px; font-family:Arial;" text-anchor="middle"><textPath startOffset="22.20632615414155" xlink:href="#id96">December</textPath></text><path d="M 89.94658935756843 81.56283822128135 l -18.775918070068638 -34.433552086368834 a60.219951665684206,60.219951665684206 0 0,0 0.9143538041156877,-0.48841613608106804 l 18.180419219424646 34.75164694895165" fill="#39ff2e" stroke="none" /><path d="M 90.58718382345135 81.22770947309562 l -13.512505979789111 -26.948437453937704 a51.146411047795205,51.146411047795205 0 0,0 0.7904038083002347,-0.38784771604687274 l 13.04663090447845 27.177040330119404" fill="#9cff22" stroke="none" /><path d="M 91.56875222667455 80.76684994638697 l -16.195151303738793 -36.94397122941146 a61.33782264761664,61.33782264761664 0 0,0 0.9706454632181184,-0.41557973143037147 l 15.556822082730365 37.217270488804616" fill="#30ff31" stroke="none" /><path d="M 93.94186890950719 79.89281104454417 l -11.826564982719391 -39.25286086573802 a61.995789118340824,61.995789118340824 0 0,0 1.0244354897152446,-0.2990608113186606 l 11.149139275280724 39.45062000597538" fill="#30ff39" stroke="none" /><path d="M 95.692805502759 79.44645832069477 l -6.667965627264912 -31.818927500012418 a53.51008940094494,53.51008940094494 0 0,0 0.9031320531481639,-0.1811597936362841 l 6.119267164649612 31.92899124972591" fill="#81ff25" stroke="none" /><path d="M 98.19473922651362 79.07773832637324 l -3.0821638537743774 -35.72106568577579 a56.853790144823215,56.853790144823215 0 0,0 0.9757458923871107,-0.07573666061398199 l 2.4668277720249328 35.768827608578235" fill="#5dff2a" stroke="none" /><path d="M 98.55514903715128 79.0497635885617 l -3.0951409448908187 -44.87932401992298 a65.98592693225267,65.98592693225267 0 0,0 1.1338203180786854,-0.06839513791548228 l 2.3221585779725107 44.925952427218775" fill="#36ff6b" stroke="none" /></svg>