<?xml version="1.0" encoding="utf-8" ?>
<svg baseProfile="full" height="200mm" version="1.1" viewBox="0,0,200,200" width="200mm" xmlns="http://www.w3.org/2000/svg" xmlns:ev="http://www.w3.org/2001/xml-events" xmlns:xlink="http://www.w3.org/1999/xlink"><defs /><rect fill="#1a1a1a" height="200" width="200" x="0" y="0" /><text alignment-baseline="middle" fill="#e1ed5e" style="dominant-baseline: central; font-size:9.0px; font-family:Arial;" text-anchor="middle" x="100.0" y="100.0">2013</text><line stroke="#e1ed5e" stroke-width="0.3" x1="100.0" x2="100.0" y1="15.0" y2="10.0" /><path d="M 100.0 14.0 a86.0,86.0 0 0,1 42.46469731375804,11.215312516191453" fill="none" id="id13" stroke="none" /><text fill="#e1ed5e" style="font-size:6.75px; font-family:Arial;" text-anchor="middle"><textPath startOffset="22.20632615414155" xlink:href="#id13">January</textPath></text><path d="M 100.0 79.0 l 0.0 -29.876617254272304 a50.876617254272304,50.876617254272304 0 0,0 0.8757573328018733,0.007537919849883114 l -0.5142768535293449 29.87219071103098" fill="#a0ff22" stroke="none" /><path d="M 101.80526077348638 79.07773832637324 l 1.2333708432899941 -14.294282523017284 a35.34739406599384,35.34739406599384 0 0,0 0.6057447117709804,0.05752275928632192 l -1.479240682151219 14.270934219215784" fill="#ff980e" stroke="none" /><path d="M 102.52436894288641 79.15227682838746 l 1.9065151884898461 -15.745123542307644 a36.86012974494449,36.86012974494449 0 0,0 0.6292292199453544,0.08169201174843803 l -2.1772591369430465 15.70997320739507" fill="#ffad10" stroke="none" /><path d="M 103.2404852339499 79.25152402106235 l 2.5077709899348664 -16.056986034130666 a37.25163732791949,37.25163732791949 0 0,0 0.632693859922655,0.10439990801742079 l -2.7837940559963963 16.01143986317362" fill="#ffb310" stroke="none" /><path d="M 105.01212808612495 79.60689891045804 l 3.0338618059233027 -12.344028212520792 a33.711386626523066,33.711386626523066 0 0,0 0.562323765970169,0.1433488486067337 l -3.245894460578497 12.28997636774519" fill="#ff820b" stroke="none" /><path d="M 109.41281617654863 81.2277094730956 l 6.473094786251145 -12.909506959080145 a35.44147935768114,35.44147935768114 0 0,0 0.5429963946511197,0.2781438434346937 l -6.69435166849102 12.79617059033295" fill="#ff9a0e" stroke="none" /><path d="M 110.36928655335952 81.73862282372117 l 8.377688369952695 -14.753968501281747 a37.96659214341096,37.96659214341096 0 0,0 0.5655273371245306,0.3275899359263655 l -8.630412439542555 14.607574407965332" fill="#ffbc11" stroke="none" /><line stroke="#e1ed5e" stroke-width="0.3" x1="143.23703022742887" x2="145.7803849466894" y1="26.81831364943548" y2="22.513508569990506" /><path d="M 143.74570117128098 25.957352633546492 a86.0,86.0 0 0,1 28.547481713284135,27.462654790039103" fill="none" id="id14" stroke="none" /><text fill="#e1ed5e" style="font-size:6.75px; font-family:Arial;" text-anchor="middle"><textPath startOffset="19.985693538727396" xlink:href="#id14">February</textPath></text><path d="M 113.34407831869373 83.78471172551755 l 19.860853795889486 -24.13426105469853 a52.255656610572686,52.255656610572686 0 0,0 0.6896314943272712,0.5775465437590444 l -20.273342827175874 23.788813353545667" fill="#90ff24" stroke="none" /><path d="M 113.6212207817346 84.01681056812373 l 13.404285700339555 -15.728637027512766 a41.66554857436824,41.66554857436824 0 0,0 0.5418628427830685,0.46989811765635753 l -13.673042341769388 15.495573916436738" fill="#ffed16" stroke="none" /><path d="M 115.68641384162765 86.03803664274999 l 14.753492233149132 -13.131600379180556 a40.751062290218385,40.751062290218385 0 0,0 0.4618611615675192,0.527987148446338 l -14.9773452582945 12.87569767453127" fill="#ffe115" stroke="none" /><path d="M 116.15771136456269 86.58626213691792 l 8.939876505440996 -7.4216674172875505 a32.61905930724874,32.61905930724874 0 0,0 0.3549287732740661,0.4351007087834565 l -9.066303770791471 7.266682538895993" fill="#ff720a" stroke="none" /><path d="M 116.60985879189232 87.15038557335679 l 15.313610701417478 -11.846819136655277 a40.36114140155971,40.36114140155971 0 0,0 0.42037870021608353,0.5531690932470097 l -15.515265341857674 11.581465267527234" fill="#ffdc14" stroke="none" /><path d="M 117.04232023915458 87.72973835380427 l 15.858658876673735 -11.418039976005305 a40.541461006290135,40.541461006290135 0 0,0 0.4028805374631298,0.5698459488994667 l -16.052852033940745 11.143367526774044" fill="#ffde14" stroke="none" /><path d="M 117.65298651832404 88.62581576622439 l 11.647894406230744 -7.504979215528847 a34.85633996133977,34.85633996133977 0 0,0 0.3206325226857217,0.5071636508219373 l -11.775354525162422 7.303367916992703" fill="#ff920d" stroke="none" /><line stroke="#e1ed5e" stroke-width="0.3" x1="172.23445277983987" x2="176.4835382374775" y1="55.19839476539836" y2="52.563006222186495" /><path d="M 173.08426987136738 54.67131705675599 a86.0,86.0 0 0,1 12.851231095245387,41.99856678651699" fill="none" id="id15" stroke="none" /><text fill="#e1ed5e" style="font-size:6.75px; font-family:Arial;" text-anchor="middle"><textPath startOffset="22.20632615414155" xlink:href="#id15">March</textPath></text><path d="M 118.73160827565052 90.50648371742162 l 19.88179511535186 -10.076451678729411 a43.289474095245,43.289474095245 0 0,0 0.33114383609113957,0.6675657668889614 l -20.052298964396407 9.7327263233415" fill="#fcff18" stroke="none" /><path d="M 118.89224826269711 90.83032412892265 l 13.68211856394964 -6.640850295662866 a36.2085916852081,36.2085916852081 0 0,0 0.2673259739676682,0.5630566777990272 l -13.794402731759064 6.404351202223298" fill="#ffa40f" stroke="none" /><path d="M 119.47837535516314 92.15188598940014 l 23.635698730208482 -9.523158629638841 a46.48208791976128,46.48208791976128 0 0,0 0.29263008752182545,0.7447116540535867 l -23.79612236761201 9.114897970689471" fill="#d4ff1c" stroke="none" /><path d="M 119.61058180528143 92.48833698450437 l 17.163247622713346 -6.574232915344097 a39.37927113309364,39.37927113309364 0 0,0 0.23701710377968763,0.6350880006394041 l -17.27386931499466 6.277821777675359" fill="#ffcf13" stroke="none" /><path d="M 119.7369772167798 92.82701384747503 l 20.288013541222586 -7.3732486284529415 a42.58629863561176,42.58629863561176 0 0,0 0.24445938572554327,0.6911196027010245 l -20.411926007757938 7.022931399325302" fill="#fff917" stroke="none" /><path d="M 120.28053869075195 94.5502522615342 l 16.264623169193186 -4.370598566680504 a37.841618053706284,37.841618053706284 0 0,0 0.16362655843997656,0.6305198771431897 l -16.337446059503463 4.089982263988463" fill="#ffba11" stroke="none" /><path d="M 120.53481517161879 95.60439243477599 l 16.49619847066694 -3.531116018775655 a37.869894615014296,37.869894615014296 0 0,0 0.1309589719317717,0.6386024562715563 l -16.554536738513708 3.246637906340687" fill="#ffbb11" stroke="none" /><path d="M 120.78858239683441 97.02765380044208 l 19.263663000835617 -2.754313613939214 a40.45957234097641,40.45957234097641 0 0,0 0.09264086259824068,0.6902820313180799 l -19.308219862491697 2.42231324055647" fill="#ffdd14" stroke="none" /><path d="M 120.83666639777658 97.38593545837742 l 21.389734756784215 -2.683449747431195 a42.5574037284774,42.5574037284774 0 0,0 0.08493170320686842,0.7276429661593842 l -21.432756812994672 2.314863042946958" fill="#fff817" stroke="none" /><path d="M 120.91429891909075 98.10471618934814 l 19.919341400673055 -1.805119331113795 a41.00096541760243,41.00096541760243 0 0,0 0.0576464127549408,0.7034322486194152 l -19.94746229724749 1.461973165286611" fill="#ffe415" stroke="none" /><line stroke="#e1ed5e" stroke-width="0.3" x1="184.98032266829074" x2="189.97916517819016" y1="98.17113171792111" y2="98.06355123074" /><path d="M 185.9800911702706 98.14961562048488 a86.0,86.0 0 0,1 -9.607161424134198,41.387399972396054" fill="none" id="id16" stroke="none" /><text fill="#e1ed5e" style="font-size:6.75px; font-family:Arial;" text-anchor="middle"><textPath startOffset="21.466115282336823" xlink:href="#id16">April</textPath></text><path d="M 120.99980553446 99.90962569577887 l 19.820198131962858 -0.0852977715799189 a40.82038167392597,40.82038167392597 0 0,0 -0.003024018019697531,0.7026752891062974 l -19.818729816653658 -0.25588699573006324" fill="#ffe215" stroke="none" /><path d="M 120.99824983174949 100.27111621757518 l 13.403506728353502 0.17305766316487262 a34.40462388774104,34.40462388774104 0 0,0 -0.012742714664035471,0.5921038789019193 l -13.398541951004459 -0.4037513578569067" fill="#ff8b0c" stroke="none" /><path d="M 120.95626037817324 101.35467743843564 l 14.94405755975961 0.9660300668899511 a35.9752485935808,35.9752485935808 0 0,0 -0.04526618432135004,0.6176211209139363 l -14.925214816773922 -1.2231243243006578" fill="#ffa10e" stroke="none" /><path d="M 120.89721153311464 102.0752229133903 l 19.702861986048795 1.9566165843716758 a40.79977572851584,40.79977572851584 0 0,0 -0.07541682824067758,0.6982661649097242 l -19.666262856307068 -2.2954790711661914" fill="#ffe215" stroke="none" /><path d="M 120.8583938346157 102.4346265915055 l 21.114656919256873 2.4645380470679794 a42.25800283665819,42.25800283665819 0 0,0 -0.09054982618533473,0.7217712074658189 l -21.06910558382469 -2.827627008821193" fill="#fff517" stroke="none" /><path d="M 120.81339534386255 102.79330883721812 l 14.970824532510342 2.009193395705819 a36.10504701364949,36.10504701364949 0 0,0 -0.08796899969255237,0.6152549789616509 l -14.934021481801189 -2.266593846647879" fill="#ffa30f" stroke="none" /><path d="M 120.5718875245553 104.21870165774334 l 30.941823987501383 6.345276970519331 a52.58574063570647,52.58574063570647 0 0,0 -0.1894738387898974,0.885158695737516 l -30.828016109987043 -6.876949485673016" fill="#8cff24" stroke="none" /><path d="M 120.41448212921028 104.9243191809786 l 3.7904723689092963 0.914326196131212 a24.899188783887826,24.899188783887826 0 0,0 -0.10408890754555591,0.4157834441951462 l -3.7741721470686795 -0.9794374797237542" fill="#ff0000" stroke="none" /><path d="M 120.32669344350535 105.2749913415812 l 31.955060809301365 8.292675321603951 a54.01354835996408,54.01354835996408 0 0,0 -0.24129118453593687,0.8979342601821171 l -31.807581548423652 -8.841500514961616" fill="#7cff26" stroke="none" /><path d="M 120.23288151984713 105.62410040840565 l 14.772279697172214 4.106226006239007 a36.3323624880773,36.3323624880773 0 0,0 -0.17267796645873296,0.6011146544638193 l -14.699409093827382 -4.359898136207408" fill="#ffa60f" stroke="none" /><path d="M 119.41010516605496 108.01547362559984 l 14.365722086967347 5.9323772599727365 a36.54242809327497,36.54242809327497 0 0,0 -0.24509357818039929,0.5793288193458896 l -14.261477527594637 -6.178780604984789" fill="#ffa90f" stroke="none" /><line stroke="#e1ed5e" stroke-width="0.3" x1="174.80103733775053" x2="179.2010983576182" y1="140.37084112569926" y2="142.7455964860345" /><path d="M 175.68104954172406 140.8457921977663 a86.0,86.0 0 0,1 -30.038265399797805,32.042727171017184" fill="none" id="id17" stroke="none" /><text fill="#e1ed5e" style="font-size:6.75px; font-family:Arial;" text-anchor="middle"><textPath startOffset="22.206326154141568" xlink:href="#id17">May</textPath></text><path d="M 117.55443506779139 111.5257021239791 l 14.706693134384748 9.65596236171065 a38.59330645671052,38.59330645671052 0 0,0 -0.3693873690348182,0.5521839975706763 l -14.538302659939209 -9.907683273487132" fill="#ffc512" stroke="none" /><path d="M 117.35343817320211 111.8261652097733 l 12.60289465114528 8.588725345273192 a36.25120180983795,36.25120180983795 0 0,0 -0.35584713596963435,0.5126243396977671 l -12.453186608013509 -8.804390947157978" fill="#ffa50f" stroke="none" /><path d="M 116.93607887273984 112.41649034213515 l 13.474620120387879 9.878761893228578 a37.707941941839124,37.707941941839124 0 0,0 -0.3882817905256335,0.5201669105124431 l -13.302577063167153 -10.109241683250335" fill="#ffb911" stroke="none" /><path d="M 116.498646956653 112.99209946851258 l 15.232949102105426 11.995407287234395 a40.38897971358912,40.38897971358912 0 0,0 -0.43482023160106553,0.5425050955893421 l -15.024210958449506 -12.255840216401987" fill="#ffdc14" stroke="none" /><path d="M 116.0416608686014 113.55231037782055 l 11.349484816553197 9.588267831004263 a35.85751276628234,35.85751276628234 0 0,0 -0.40238530816837426,0.46806501982599324 l -11.182756998814044 -9.782209949991783" fill="#ff9f0e" stroke="none" /><path d="M 115.80600337817218 113.82643327865902 l 15.300550031860109 13.384283748442554 a41.328450081997836,41.328450081997836 0 0,0 -0.47299653499802796,0.5314166212721247 l -15.067894647213741 -13.645674539455547" fill="#ffe915" stroke="none" /><path d="M 115.56566222782051 114.09645910891815 l 13.233306218406964 11.98424822878131 a38.85336380291334,38.85336380291334 0 0,0 -0.45320338214155326,0.49186276255960715 l -13.02505642826969 -12.210262246142252" fill="#ffc812" stroke="none" /><path d="M 114.29624159901734 115.38237550388516 l 10.251727922739338 11.030586422244038 a36.058942931708984,36.058942931708984 0 0,0 -0.4582927673438938,0.4186395769520122 l -10.06033560592858 -11.205418765782634" fill="#ffa20f" stroke="none" /><path d="M 114.0293411484842 115.62618273729858 l 11.818840736435751 13.164079705234595 a38.69118398635327,38.69118398635327 0 0,0 -0.4994067283142491,0.4406683727126812 l -11.590491655214914 -13.365571219719566" fill="#ffc612" stroke="none" /><path d="M 113.48314897796784 116.09983520530334 l 11.439892796213117 13.660042552843425 a38.81762918388252,38.81762918388252 0 0,0 -0.5159599925855701,0.42459994752046937 l -11.203062675082856 -13.854937619221074" fill="#ffc812" stroke="none" /><path d="M 112.34349029814194 116.9893568818739 l 11.820785947441221 16.269916063817803 a41.110722243094614,41.110722243094614 0 0,0 -0.5760839089779881,0.41102057307934303 l -11.53897471061435 -16.470980898741367" fill="#ffe615" stroke="none" /><path d="M 112.04921762599082 117.19931262002967 l 5.004204435420539 7.14310913545803 a29.72158644700301,29.72158644700301 0 0,0 -0.42154142387265076,0.2899400351595311 l -4.880506126925005 -7.228189959982655" fill="#ff4806" stroke="none" /><path d="M 111.7513745106137 117.40417183066458 l 8.338386253650944 12.349424062514505 a35.90090467021675,35.90090467021675 0 0,0 -0.5151357578695662,0.3414038908216292 l -8.124575797041413 -12.491125974427453" fill="#ffa00e" stroke="none" /><line stroke="#e1ed5e" stroke-width="0.3" x1="143.8653032363475" x2="146.44561519142675" y1="172.8068346515853" y2="177.08958963109032" /><path d="M 144.38136562736335 173.6633856474863 a86.0,86.0 0 0,1 -40.68145358897372,12.25698825130547" fill="none" id="id18" stroke="none" /><text fill="#e1ed5e" style="font-size:6.75px; font-family:Arial;" text-anchor="middle"><textPath startOffset="21.466115282336833" xlink:href="#id18">June</textPath></text><path d="M 110.21172684928248 118.3499491758327 l 14.666850462152686 26.35557771200573 a51.16178010351381,51.16178010351381 0 0,0 -0.7732181861451299,0.42162020569162106 l -14.211009464138908 -26.60413856945712" fill="#9dff22" stroke="none" /><path d="M 109.57404056367764 118.69057910512821 l 7.372787492073828 14.393261333015758 a37.17170266866686,37.17170266866686 0 0,0 -0.5719947839122856,0.2868100590705499 l -7.123938800478782 -14.51803923299561" fill="#ffb110" stroke="none" /><path d="M 105.53697534728816 120.25689768951611 l 3.1313031843502657 11.455801093878028 a32.87604472603649,32.87604472603649 0 0,0 -0.5471662778241152,0.14451158709025966 l -2.9336464637146533 -11.508004030271872" fill="#ff760a" stroke="none" /><path d="M 105.18746579009965 120.34920634021253 l 2.4030514897214377 9.426604933727619 a30.728079822803178,30.728079822803178 0 0,0 -0.5136662613306413,0.126246669597024 l -2.2404319436475855 -9.466572861638673" fill="#ff5708" stroke="none" /><path d="M 104.48393922423573 120.51570834832081 l 3.6046945475981516 16.492833271153653 a37.8821613572302,37.8821613572302 0 0,0 -0.6382396260808623,0.133749319132893 l -3.320263460087911 -16.552438571013088" fill="#ffbb11" stroke="none" /><line stroke="#e1ed5e" stroke-width="0.3" x1="102.19456741930631" x2="102.32365962044197" y1="184.97166512339345" y2="189.96999836594603" /><path d="M 102.22038585953345 185.97133177190398 a86.0,86.0 0 0,1 -42.740103519485714,-10.115201625700543" fill="none" id="id19" stroke="none" /><text fill="#e1ed5e" style="font-size:6.75px; font-family:Arial;" text-anchor="middle"><textPath startOffset="22.20632615414155" xlink:href="#id19">July</textPath></text><path d="M 100.18074693466247 120.99922214144158 l 0.09890841034555792 11.491202793463351 a32.49162845353682,32.49162845353682 0 0,0 -0.5593106900160189,0.0 l 0.09890841034555 -11.491202793463351" fill="#ff700a" stroke="none" /><path d="M 99.45781275523022 120.99299961872073 l -0.35982298360704834 13.93202040538071 a34.936666213821596,34.936666213821596 0 0,0 -0.6010431658757069,-0.020701141905660046 l 0.5995865011573984 -13.923762465048958" fill="#ff930d" stroke="none" /><path d="M 95.51606077576429 120.51570834832081 l -3.6152230947254878 16.541005334019435 a37.93147056474115,37.93147056474115 0 0,0 -0.6366704322842375,-0.144904117566922 l 3.899413676402588 -16.476324482874826" fill="#ffbc11" stroke="none" /><path d="M 94.46302465271185 120.25689768951611 l -3.498606125493274 12.799570504633387 a34.2691088594683,34.2691088594683 0 0,0 -0.5676740413828125,-0.16043035443751885 l 3.7184113349807006 -12.737451356857347" fill="#ff890c" stroke="none" /><path d="M 92.06813273071674 119.44442032107085 l -5.336176165725245 13.08126431659487 a35.12778298928294,35.12778298928294 0 0,0 -0.5579103900716862,-0.23320658829783805 l 5.560558015294394 -12.987472685277059" fill="#ff950d" stroke="none" /><line stroke="#e1ed5e" stroke-width="0.3" x1="58.666819895761336" x2="56.23545636021788" y1="174.27360380694188" y2="178.64263932499728" /><path d="M 58.180547188652646 175.14741091055294 a86.0,86.0 0 0,1 -31.652253787137756,-30.449443065178592" fill="none" id="id20" stroke="none" /><text fill="#e1ed5e" style="font-size:6.75px; font-family:Arial;" text-anchor="middle"><textPath startOffset="22.20632615414155" xlink:href="#id20">August</textPath></text><path d="M 88.54995079064634 117.60387380957326 l -8.110146652332494 12.46894189137317 a35.87444085042462,35.87444085042462 0 0,0 -0.514756033180458,-0.3411522300034401 l 8.323577384252914 -12.327491640278412" fill="#ffa00e" stroke="none" /><path d="M 88.24862548938628 117.40417183066458 l -8.146523669440503 12.065269270199956 a35.558041436236735,35.558041436236735 0 0,0 -0.5043198970512908,-0.34687582382621346 l 8.353000451114685 -11.923252657008641" fill="#ff9b0e" stroke="none" /><path d="M 87.95078237400918 117.19931262002967 l -8.736553339555481 12.470744306622379 a36.22651725825878,36.22651725825878 0 0,0 -0.5076416207769632,-0.3621888177033739 l 8.949922288181332 -12.318511227074787" fill="#ffa50f" stroke="none" /><path d="M 86.51685102203217 116.09983520530335 l -12.225194728682037 14.597748701445333 a40.040736679675604,40.040736679675604 0 0,0 -0.524599476374577,-0.4470750547090081 l 12.474659681633671 -14.385149256513373" fill="#ffd814" stroke="none" /><path d="M 86.24171649860922 115.8653595955263 l -7.096570929093802 8.18340817543482 a31.831873721449707,31.831873721449707 0 0,0 -0.41087013302432285,-0.36254512134274197 l 7.236383415024712 -8.06003991231979" fill="#ff6709" stroke="none" /><path d="M 85.97065885151581 115.62618273729859 l -9.969573620557988 11.104326109043447 a35.92308468486692,35.92308468486692 0 0,0 -0.45656607080625317,-0.41706228060445466 l 10.159239240831095 -10.931071061852416" fill="#ffa00e" stroke="none" /><path d="M 84.67929136418377 114.36230785411682 l -4.287133184426146 4.018947691648214 a26.876346780884564,26.876346780884564 0 0,0 -0.3134979849490524,-0.340240146058195 l 4.355677577370928 -3.944556290788675" fill="#ff1e03" stroke="none" /><path d="M 84.19399662182784 113.82643327865904 l -10.34305272055365 9.0476716293683 a34.74187401677909,34.74187401677909 0 0,0 -0.389865849695349,-0.4535020612401972 l 10.49726107981978 -8.868292468966574" fill="#ff900d" stroke="none" /><path d="M 83.06392112726016 112.41649034213515 l -15.20216845280155 11.145293972239616 a39.85002661523308,39.85002661523308 0 0,0 -0.4008157569289095,-0.5566980300374815 l 15.391764002106067 -10.881962336750997" fill="#ffd513" stroke="none" /><path d="M 82.6465618267979 111.8261652097733 l -12.27068956150527 8.362331460995142 a35.84918885927388,35.84918885927388 0 0,0 -0.3431226492503948,-0.51292180513694 l 12.412815316166395 -8.14987274165238" fill="#ff9f0e" stroke="none" /><line stroke="#e1ed5e" stroke-width="0.3" x1="26.63291911575756" x2="22.317208475507996" y1="142.92168965132927" y2="145.44649492493687" /><path d="M 25.769776987707644 143.4266507060508 a86.0,86.0 0 0,1 -11.730757126820373,-40.83630448921669" fill="none" id="id21" stroke="none" /><text fill="#e1ed5e" style="font-size:6.75px; font-family:Arial;" text-anchor="middle"><textPath startOffset="21.46611528233685" xlink:href="#id21">September</textPath></text><path d="M 81.69416730710424 110.29060199501025 l -15.126949532130372 8.50359662110163 a38.35326360204415,38.35326360204415 0 0,0 -0.3185578069867144,-0.5782749510508048 l 15.271083748568602 -8.241951151653003" fill="#ffc112" stroke="none" /><path d="M 81.51974371655577 109.97397251340807 l -12.98271028023673 7.00689392498447 a35.75287526879248,35.75287526879248 0 0,0 -0.2876361238290948,-0.5440991477811742 l 13.10139891229071 -6.78237976211717" fill="#ff9e0e" stroke="none" /><path d="M 81.35079622478065 109.6543875284942 l -17.453831951813218 9.035563102373633 a40.65394745029893,40.65394745029893 0 0,0 -0.3163677224174791,-0.624223530143298 l 17.606778344016963 -8.73378536052765" fill="#ffe015" stroke="none" /><path d="M 80.58989483394504 108.01547362559985 l -29.165020580349008 12.043801476186314 a52.553947129479205,52.553947129479205 0 0,0 -0.3380905175070524,-0.8391129378509601 l 29.36801371211345 -11.539989170492548" fill="#8dff24" stroke="none" /><path d="M 80.20201598880116 107.00284435728193 l -15.237407136609468 5.389699806094128 a37.162531987489096,37.162531987489096 0 0,0 -0.20812640509972788,-0.6049127550305209 l 15.327924372652424 -5.12661434797431" fill="#ffb110" stroke="none" /><path d="M 79.58551787078972 104.9243191809786 l -14.350320736319151 3.4615406458897526 a35.76190939134834,35.76190939134834 0 0,0 -0.13919801118531322,-0.5996613890359106 l 14.40777931343502 -3.2140105995052677" fill="#ff9e0e" stroke="none" /><path d="M 79.23777060512086 103.15116336523772 l -27.522238993000038 4.177156007410721 a48.83742573403761,48.83742573403761 0 0,0 -0.11899110636135252,-0.8322235207498222 l 27.59006415037799 -3.7027870146804984" fill="#b8ff1f" stroke="none" /><path d="M 79.10278846688536 102.07522291339032 l -16.735818937170016 1.661970779102809 a37.81813849295843,37.81813849295843 0 0,0 -0.05875390649439269,-0.6483444622815674 l 16.761947439941483 -1.3736449282726755" fill="#ffba11" stroke="none" /><path d="M 79.04373962182676 101.35467743843564 l -29.94700384702111 1.93586688312761 a51.00950882641513,51.00950882641513 0 0,0 -0.04909944346745303,-0.8767035462519218 l 29.975889641376096 -1.4200916205402505" fill="#9eff22" stroke="none" /><line stroke="#e1ed5e" stroke-width="0.3" x1="15.007084014347285" x2="10.007500721073583" y1="101.09737516637583" y2="101.16192664675087" /><path d="M 14.007167355692545 101.11028546245083 a86.0,86.0 0 0,1 10.666146001902534,-42.60595125391555" fill="none" id="id22" stroke="none" /><text fill="#e1ed5e" style="font-size:6.75px; font-family:Arial;" text-anchor="middle"><textPath startOffset="22.20632615414155" xlink:href="#id22">October</textPath></text><path d="M 79.03285615573316 98.82574320788736 l -28.815856084435342 -1.6138208894360668 a49.861011412320074,49.861011412320074 0 0,0 0.05536806276464352,-0.856519424484362 l 28.783807430666286 2.1095993781734403" fill="#acff21" stroke="none" /><path d="M 79.16333360222342 97.38593545837743 l -13.436296557486724 -1.6856509448843149 a34.541620445453304,34.541620445453304 0 0,0 0.07909044333538676,-0.5893156686176318 l 13.405290115093504 1.9166849555666061" fill="#ff8d0d" stroke="none" /><path d="M 79.21141760316559 97.0276538004421 l -14.78839163305498 -2.114440457218396 a35.938787954172604,35.938787954172604 0 0,0 0.09283178302135527,-0.6116454625892228 l 14.749803956594322 2.368685032199711" fill="#ffa10e" stroke="none" /><path d="M 79.26566170972629 96.67025291283419 l -16.8016843668957 -2.6981984569236888 a38.016958379150275,38.016958379150275 0 0,0 0.10932254034190687,-0.6452278214921344 l 16.75274996503357 2.9870120667316513" fill="#ffbd11" stroke="none" /><path d="M 79.32604984820605 96.31383870115002 l -20.291224355158967 -3.6179213636044714 a41.61123821667738,41.61123821667738 0 0,0 0.13179720891412364,-0.7040659601101273 l 20.225941422334984 3.9666654011771714" fill="#ffec16" stroke="none" /><path d="M 79.46518482838121 95.60439243477599 l -16.954925644435747 -3.629309482828776 a38.33901355125187,38.33901355125187 0 0,0 0.14369026491849837,-0.6441352828000763 l 16.889940992515214 3.9206229351788116" fill="#ffc112" stroke="none" /><path d="M 79.71946130924805 94.55025226153421 l -18.7017938040219 -5.025510418773935 a40.36524842229909,40.36524842229909 0 0,0 0.1860900026978041,-0.669464750484435 l 18.612517030757736 5.3466864726773125" fill="#ffdc14" stroke="none" /><path d="M 79.91906864156998 93.8553929516997 l -28.84214907579578 -8.825470758101266 a51.1622031259742,51.1622031259742 0 0,0 0.26493376325175966,-0.839912429187504 l 28.685959828775818 9.320633353715186" fill="#9dff22" stroke="none" /><path d="M 80.2630227832202 92.82701384747504 l -16.870323636137137 -6.131161651630548 a38.94990147010374,38.94990147010374 0 0,0 0.23443280114927728,-0.6281633544243322 l 16.762286246486234 6.420648143084223" fill="#ffc912" stroke="none" /><path d="M 80.38941819471856 92.48833698450439 l -15.361213513899479 -5.883979403120734 a37.44956212900383,37.44956212900383 0 0,0 0.23576541274098356,-0.5999972592629177 l 15.257654551276804 6.147525667279415" fill="#ffb510" stroke="none" /><path d="M 80.803312248108 91.48605970444005 l -41.96547426409308 -18.61214533346418 a66.90765714044065,66.90765714044065 0 0,0 0.47599280734249017,-1.0487870557416057 l 41.638879139787235 19.331754398047856" fill="#37ff75" stroke="none" /><path d="M 81.10775173730289 90.83032412892265 l -14.989775145613992 -7.275543786760957 a37.66213960777976,37.66213960777976 0 0,0 0.2880974104162143,-0.5807867994568074 l 14.862317722244365 7.532490174716726" fill="#ffb811" stroke="none" /><path d="M 81.26839172434947 90.50648371742162 l -16.031821916156538 -8.125215953734935 a38.97327038260388,38.97327038260388 0 0,0 0.30842809030900376,-0.5957848997875818 l 15.889584392687418 8.399973575782854" fill="#ffca12" stroke="none" /><path d="M 81.43458229118936 90.18545643968196 l -13.369665860877125 -7.067827400199216 a36.12290148716542,36.12290148716542 0 0,0 0.2953337913369201,-0.5472086619178582 l 13.246023970321733 7.296917045449547" fill="#ffa30f" stroke="none" /><line stroke="#e1ed5e" stroke-width="0.3" x1="26.266209847984243" x2="21.928928074336255" y1="57.711370442889674" y2="55.22380399835377" /><path d="M 25.398753493254645 57.213857153982495 a86.0,86.0 0 0,1 29.58750427330803,-30.492523968695096" fill="none" id="id23" stroke="none" /><text fill="#e1ed5e" style="font-size:6.75px; font-family:Arial;" text-anchor="middle"><textPath startOffset="21.46611528233685" xlink:href="#id23">November</textPath></text><path d="M 81.96595687620814 89.24020034530311 l -21.271920930787854 -12.691641353783442 a45.7703932213188,45.7703932213188 0 0,0 0.4095016091673062,-0.6731129742727481 l 21.05030352333433 13.055922101263265" fill="#ddff1b" stroke="none" /><path d="M 82.34701348167596 88.62581576622439 l -14.647458507554232 -9.437660389564654 a38.424622646108595,38.424622646108595 0 0,0 0.36302735324239044,-0.5529155648632703 l 14.482834518953922 9.68839401840559" fill="#ffc212" stroke="none" /><path d="M 82.7489923806493 88.02491185347247 l -15.906300934799043 -11.041636522480472 a40.36306139335832,40.36306139335832 0 0,0 0.4011076923273892,-0.5673383851809785 l 15.713880622667775 11.313801407993237" fill="#ffdc14" stroke="none" /><path d="M 83.39014120810768 87.1503855733568 l -24.751227400651583 -19.14788877312937 a52.293208565228646,52.293208565228646 0 0,0 0.5569125099172281,-0.7072223322440271 l 24.417960810140386 19.571103499326448" fill="#90ff24" stroke="none" /><path d="M 83.84228863543731 86.58626213691792 l -13.862584222021734 -11.508379291074798 a39.01704846027465,39.01704846027465 0 0,0 0.43344110946860087,-0.5130575592472347 l 13.66243249906601 11.745295799951148" fill="#ffca12" stroke="none" /><path d="M 84.07557802195018 86.31012108654704 l -12.242563033666366 -10.52466492989361 a37.14462515885168,37.14462515885168 0 0,0 0.42098681010275407,-0.48126069887601547 l 12.059584359985768 10.733841184972569" fill="#ffb110" stroke="none" /><path d="M 84.80347519578584 85.50635884689758 l -33.235341624584365 -31.698110016173747 a66.92774881811958,66.92774881811958 0 0,0 0.8022907679724801,-0.8268311597451483 l 32.68478659290877 32.26550537146902" fill="#37ff75" stroke="none" /><path d="M 85.83668400450813 84.49514656593479 l -13.65173609470051 -14.944817113184682 a41.24147862548303,41.24147862548303 0 0,0 0.5282621240738351,-0.47427895085117877 l 13.392462983030702 15.17759507280514" fill="#ffe815" stroke="none" /><path d="M 86.10567301691215 84.25364557470407 l -11.908575601766087 -13.495914725059063 a38.998719041338596,38.998719041338596 0 0,0 0.5071805721438918,-0.43982199432283114 l 11.674501230975423 13.698901712801574" fill="#ffca12" stroke="none" /><path d="M 86.65592168130627 83.78471172551755 l -10.281212552830972 -12.493393801641114 a37.17987083506459,37.17987083506459 0 0,0 0.49767311112130974,-0.4024170450151057 l 10.06463604314516 12.668516943920354" fill="#ffb210" stroke="none" /><path d="M 86.93701828274178 83.55741782278169 l -16.84053773232383 -21.197451819629347 a48.07278476181071,48.07278476181071 0 0,0 0.652341839997338,-0.5091631533927284 l 16.47316333716707 21.484193362245296" fill="#c1ff1e" stroke="none" /><path d="M 87.51073957382395 83.11751280151077 l -11.08407219483273 -14.983009445795377 a39.637253780346974,39.637253780346974 0 0,0 0.5520047864255354,-0.401054953000669 l 10.824522092053414 15.171583633612714" fill="#ffd213" stroke="none" /><path d="M 87.80319425747018 82.90503203632743 l -8.490900239138785 -11.900793587675057 a35.61931171045528,35.61931171045528 0 0,0 0.5021794774728038,-0.35180881614591536 l 8.28478962208232 12.045187246584915" fill="#ff9c0e" stroke="none" /><path d="M 88.39885842347998 82.49532879139004 l -8.693915013306793 -13.118030050727448 a36.73743532696448,36.73743532696448 0 0,0 0.5301263948660688,-0.34480895364591446 l 8.466821592656437 13.265737928532898" fill="#ffac0f" stroke="none" /><line stroke="#e1ed5e" stroke-width="0.3" x1="56.762969772571076" x2="54.21961505331055" y1="26.818313649435495" y2="22.513508569990535" /><path d="M 56.25429882871897 25.957352633546506 a86.0,86.0 0 0,1 42.265352541879196,-11.944610805530505" fill="none" id="id24" stroke="none" /><text fill="#e1ed5e" style="font-size:6.75px; font-family:Arial;" text-anchor="middle"><textPath startOffset="22.20632615414155" xlink:href="#id24">December</textPath></text><path d="M 89.3179101791058 81.91981866633112 l -32.046269462682616 -54.240544001006626 a84.0,84.0 0 0,0 1.2512130701387194,-0.7247833704398112 l 31.107859660078574 54.78413152883649" fill="#4dd2ff" stroke="none" /><path d="M 91.90106846888425 80.62456947434976 l -6.061310598155529 -14.500740244283884 a36.71658212842432,36.71658212842432 0 0,0 0.5852205853317435,-0.23872617077061772 l 5.810806143235405 14.60292730123808" fill="#ffab0f" stroke="none" /><path d="M 92.23578459929587 80.48803036053334 l -6.190709002881404 -15.55764747330943 a37.74411158772325,37.74411158772325 0 0,0 0.605733382247311,-0.23501514167923795 l 5.921992455634417 15.661905318879219" fill="#ffb911" stroke="none" /><path d="M 92.91201910852362 80.23233633223022 l -6.158500415948637 -17.175436387912647 a39.246170625325014,39.246170625325014 0 0,0 0.637877347906014,-0.22254288163436114 l 5.861941063979338 17.278900122719218" fill="#ffcd13" stroke="none" /><path d="M 93.59665428221793 80.00007090966166 l -7.91478822081132 -24.720702295002773 a46.95682943925257,46.95682943925257 0 0,0 0.7719135415979742,-0.2398372948570714 l 7.4880893065026175 24.853279724742368" fill="#cfff1d" stroke="none" /><path d="M 94.98787191387505 79.60689891045804 l -3.686094582819418 -14.997800966249173 a36.444135686295795,36.444135686295795 0 0,0 0.6104849373124893,-0.14448206068461378 l 3.4273859585443947 15.059028939074658" fill="#ffa80f" stroke="none" /><path d="M 95.33964822691252 79.52364482259891 l -3.99147657722469 -17.53749417576331 a38.98598307659232,38.98598307659232 0 0,0 0.6556277895012513,-0.14329484080837346 l 3.6890060635699173 17.60360251466755" fill="#ffca12" stroke="none" /><path d="M 96.04723909329186 79.375362276772 l -5.685528083438143 -29.665836045673284 a51.20574544480457,51.20574544480457 0 0,0 0.867095852749324,-0.1584562247527313 l 5.174037109585926 29.759307751776753" fill="#9cff22" stroke="none" /><path d="M 97.11714578562143 79.19881850522333 l -2.0372372499461577 -14.699647860335723 a35.84014766875454,35.84014766875454 0 0,0 0.6118173841596162,-0.07943145574041872 l 1.7839051372786838 14.73253763924028" fill="#ff9f0e" stroke="none" /><path d="M 97.83486435360386 79.11191278185805 l -1.6446478186473676 -15.866695066525919 a36.95170457291319,36.95170457291319 0 0,0 0.6332376184274412,-0.06013354204834387 l 1.3712850731296902 15.892654153089444" fill="#ffae10" stroke="none" /><path d="M 98.55514903715128 79.0497635885617 l -2.162765735334372 -31.359949657698767 a52.43443968260509,52.43443968260509 0 0,0 0.9009683707292185,-0.054348872560277935 l 1.6226353157655304 31.39253179963935" fill="#8eff24" stroke="none" /></svg>